<svg xmlns:xlink="http://www.w3.org/1999/xlink" xmlns="http://www.w3.org/2000/svg" width="266" height="40" viewBox="0 0 266 40" fill="none">
<path d="M20.5231 12.7001C20.5231 12.7258 20.5333 12.7504 20.5514 12.7685C20.5695 12.7866 20.5941 12.7968 20.6198 12.7968C20.6454 12.7968 20.67 12.7866 20.6881 12.7685C20.7063 12.7504 20.7164 12.7258 20.7164 12.7001C20.7164 12.7001 21.8214 9.60625 22.0493 8.75681C22.05 8.33688 22.027 7.91725 21.9802 7.49992C21.7415 5.00123 21.3145 2.52414 20.7026 0.0897788C20.7026 0.0207187 20.6543 0 20.6059 0C20.5576 0 20.5231 7.40934e-07 20.5093 0.0897788C19.906 2.52531 19.4836 5.00211 19.2455 7.49992C19.2024 7.91748 19.1817 8.33704 19.1833 8.75681C19.4112 9.60625 20.5093 12.7001 20.5093 12.7001" fill="#2D3955"/>
<path d="M17.8931 17.319C17.3531 17.8642 16.9865 18.557 16.8395 19.3102C16.6925 20.0634 16.7716 20.8433 17.067 21.5516C17.3624 22.2598 17.8607 22.8649 18.4993 23.2905C19.1379 23.7161 19.8881 23.9432 20.6555 23.9432C21.4229 23.9432 22.1732 23.7161 22.8118 23.2905C23.4504 22.8649 23.9487 22.2598 24.2441 21.5516C24.5395 20.8433 24.6186 20.0634 24.4716 19.3102C24.3246 18.557 23.958 17.8642 23.4179 17.319C23.0564 16.954 22.6262 16.6642 22.152 16.4665C21.6779 16.2688 21.1693 16.167 20.6555 16.167C20.1418 16.167 19.6332 16.2688 19.159 16.4665C18.6849 16.6642 18.2546 16.954 17.8931 17.319Z" fill="#2D3955"/>
<path d="M18.3481 10.0609L18.0028 9.03192C16.8264 9.31103 15.7025 9.77737 14.6741 10.4131L15.1782 11.38C16.148 10.7648 17.2152 10.3188 18.3343 10.0609" fill="#2D3955"/>
<path d="M26.5664 10.4131C25.5386 9.77619 24.4146 9.30976 23.2378 9.03192L22.8925 10.0885C24.0147 10.3433 25.0847 10.7895 26.0554 11.4076L26.5664 10.4131Z" fill="#2D3955"/>
<path d="M14.6741 29.6323C15.7031 30.2668 16.8268 30.7331 18.0028 31.0135L18.3481 29.9637C17.2247 29.7092 16.1528 29.2655 15.1782 28.6516L14.6741 29.6323Z" fill="#2D3955"/>
<path d="M22.8925 29.9802L23.2378 31.0299C24.4146 30.7521 25.5386 30.2857 26.5664 29.6487L26.0554 28.6681C25.0835 29.2854 24.0141 29.7337 22.8925 29.994" fill="#2D3955"/>
<path d="M11.0353 25.9606L12.0159 25.4496C11.3986 24.4801 10.9502 23.413 10.69 22.2935L9.64026 22.6388C9.91611 23.8141 10.3827 24.9362 11.0215 25.9606" fill="#2D3955"/>
<path d="M9.61194 17.3955L10.6616 17.7408C10.919 16.6117 11.3674 15.535 11.9876 14.5571L11.0346 14.0737C10.3958 15.098 9.92922 16.2202 9.65337 17.3955" fill="#2D3955"/>
<path d="M31.6361 22.6388L30.5795 22.2935C30.3222 23.4139 29.8736 24.4816 29.2535 25.4496L30.2411 25.9606C30.8768 24.9347 31.3432 23.813 31.6223 22.6388" fill="#2D3955"/>
<path d="M29.2535 14.5578C29.8736 15.5258 30.3222 16.5934 30.5795 17.7138L31.6361 17.3685C31.357 16.1943 30.8906 15.0727 30.2549 14.0468L29.2535 14.5578Z" fill="#2D3955"/>
<path d="M20.7027 27.2999C20.7027 27.2743 20.6925 27.2497 20.6743 27.2316C20.6562 27.2134 20.6316 27.2032 20.606 27.2032C20.5803 27.2032 20.5557 27.2134 20.5376 27.2316C20.5195 27.2497 20.5093 27.2743 20.5093 27.2999C20.5093 27.2999 19.4112 30.3938 19.1833 31.2433C19.1816 31.663 19.2023 32.0826 19.2455 32.5002C19.4828 34.9981 19.9052 37.4749 20.5093 39.9103C20.5093 39.9794 20.5576 40.0001 20.606 40.0001C20.6543 40.0001 20.6888 40.0001 20.7096 39.9103C21.3172 37.48 21.7419 35.0077 21.9803 32.514C22.0271 32.0967 22.0502 31.677 22.0493 31.2571C21.8214 30.4076 20.7165 27.3137 20.7165 27.3137" fill="#2D3955"/>
<path d="M9.37742 21.4634C10.2269 21.2355 13.3207 20.1306 13.3207 20.1306C13.3464 20.1306 13.371 20.1204 13.3891 20.1022C13.4072 20.0841 13.4174 20.0595 13.4174 20.0339C13.4174 20.0082 13.4072 19.9836 13.3891 19.9655C13.371 19.9474 13.3464 19.9372 13.3207 19.9372C13.3207 19.9372 10.2269 18.8391 9.37742 18.6112C8.95765 18.6096 8.53809 18.6304 8.12053 18.6734C5.62271 18.9115 3.14592 19.3339 0.710384 19.9372C0.641324 19.9372 0.620605 19.9855 0.620605 20.0339C0.620605 20.0822 0.620606 20.1167 0.710384 20.1306C3.1451 20.7377 5.62219 21.1602 8.12053 21.3944C8.53785 21.4411 8.95749 21.4641 9.37742 21.4634Z" fill="#2D3955"/>
<path d="M40.5305 19.902C38.0997 19.2986 35.6275 18.8762 33.1342 18.6382C32.7166 18.595 32.2971 18.5743 31.8773 18.576C31.0279 18.8039 27.934 19.902 27.934 19.902C27.9083 19.902 27.8837 19.9122 27.8656 19.9303C27.8475 19.9484 27.8373 19.973 27.8373 19.9987C27.8373 20.0243 27.8475 20.0489 27.8656 20.067C27.8837 20.0852 27.9083 20.0954 27.934 20.0954C27.934 20.0954 31.0279 21.2003 31.8773 21.4282C32.2972 21.4291 32.7169 21.406 33.1342 21.3592C35.6281 21.1186 38.1004 20.6915 40.5305 20.0815C40.5996 20.0815 40.6203 20.0263 40.6203 19.9779C40.6203 19.9296 40.6203 19.8951 40.5305 19.8813" fill="#2D3955"/>
<path d="M10.8208 12.1266C11.3387 12.8172 11.5528 12.9968 11.5528 12.9968C12.2434 13.4388 15.3926 14.9098 15.3926 14.9098C15.4119 14.919 15.4336 14.922 15.4547 14.9184C15.4758 14.9148 15.4953 14.9047 15.5105 14.8895C15.5256 14.8744 15.5357 14.8549 15.5393 14.8338C15.5429 14.8127 15.5399 14.791 15.5307 14.7716C15.5307 14.7716 14.0597 11.6018 13.6177 10.9319C13.6177 10.9319 13.4036 10.7178 12.7476 10.1999C11.2564 8.95696 9.61064 7.91237 7.85121 7.09216C7.77525 7.09216 7.74762 7.09216 7.72 7.09216C7.69238 7.09216 7.67856 7.14741 7.72 7.22337C8.54021 8.98279 9.58479 10.6286 10.8277 12.1197" fill="#2D3955"/>
<path d="M30.4268 27.8808C29.9019 27.2178 29.6809 26.9899 29.6809 26.9899C28.9903 26.5479 25.8412 25.0839 25.8412 25.0839C25.8228 25.0738 25.8018 25.07 25.7811 25.073C25.7604 25.076 25.7412 25.0856 25.7264 25.1003C25.7117 25.1151 25.7021 25.1343 25.6991 25.155C25.6961 25.1757 25.6999 25.1968 25.71 25.2151C25.71 25.2151 27.1809 28.3711 27.6091 29.0617C27.6091 29.0617 27.8232 29.2758 28.4862 29.8007C29.9768 31.0409 31.6199 32.0853 33.3756 32.9084C33.4516 32.9084 33.4792 32.9084 33.5138 32.9084C33.5483 32.9084 33.5483 32.8462 33.5138 32.7703C32.6907 31.0145 31.6463 29.3714 30.4061 27.8808" fill="#2D3955"/>
<path d="M15.5095 25.1102C15.4932 25.0961 15.4724 25.0884 15.4508 25.0884C15.4293 25.0884 15.4084 25.0961 15.3921 25.1102C15.3921 25.1102 12.2223 26.5605 11.5524 26.9887C11.2935 27.2683 11.0492 27.561 10.8203 27.8657C9.57687 29.3539 8.53221 30.9975 7.71265 32.7552C7.71265 32.8311 7.71265 32.8588 7.71265 32.8933C7.71265 32.9278 7.76789 32.9278 7.84386 32.8933C9.60228 32.0684 11.2478 31.0217 12.7402 29.7787C13.4308 29.2607 13.6104 29.0467 13.6104 29.0467C14.0524 28.3561 15.5233 25.2069 15.5233 25.2069C15.5352 25.1896 15.5416 25.1692 15.5416 25.1482C15.5416 25.1273 15.5352 25.1068 15.5233 25.0895" fill="#2D3955"/>
<path d="M25.7314 14.8891C25.7486 14.901 25.7691 14.9074 25.7901 14.9074C25.811 14.9074 25.8315 14.901 25.8488 14.8891C25.8488 14.8891 28.991 13.4389 29.6816 12.9969C29.6816 12.9969 29.8957 12.7828 30.4205 12.1267C31.6602 10.6333 32.7045 8.98789 33.5282 7.23038C33.5282 7.15441 33.5282 7.13369 33.5282 7.09916C33.5282 7.06463 33.4661 7.05773 33.3901 7.09916C31.6325 7.91873 29.9889 8.96339 28.5007 10.2069C28.1914 10.4331 27.8941 10.6751 27.6098 10.932C27.1678 11.6226 25.7037 14.7717 25.7037 14.7717C25.6896 14.788 25.6819 14.8089 25.6819 14.8304C25.6819 14.852 25.6896 14.8728 25.7037 14.8891" fill="#2D3955"/>
<path d="M61.9877 26.6722H59.3082C59.2297 26.678 59.1521 26.6532 59.0915 26.603C59.031 26.5528 58.9923 26.481 58.9836 26.4028C58.8178 25.7122 58.6452 25.0769 58.4587 24.407H52.3055C52.1121 25.0976 51.9395 25.7399 51.7737 26.4028C51.7702 26.4419 51.7591 26.4799 51.7409 26.5146C51.7226 26.5493 51.6977 26.5801 51.6675 26.6051C51.6374 26.6302 51.6025 26.649 51.565 26.6605C51.5275 26.672 51.4882 26.676 51.4491 26.6722H48.7696C48.7258 26.6783 48.6813 26.6726 48.6404 26.6558C48.5996 26.639 48.564 26.6115 48.5372 26.5764C48.5105 26.5412 48.4936 26.4996 48.4884 26.4557C48.4831 26.4118 48.4896 26.3674 48.5072 26.3269C49.6168 21.8477 51.3609 17.5502 53.6867 13.5646C53.7198 13.5001 53.7689 13.4452 53.8294 13.4053C53.8899 13.3654 53.9597 13.3418 54.032 13.3367C54.9263 13.2262 55.8309 13.2262 56.7253 13.3367C56.8004 13.3415 56.8726 13.3674 56.9337 13.4113C56.9948 13.4553 57.0422 13.5156 57.0706 13.5853C59.3872 17.559 61.1331 21.839 62.257 26.2992C62.2798 26.3415 62.2902 26.3893 62.2871 26.4372C62.284 26.4852 62.2674 26.5312 62.2393 26.5701C62.2112 26.6091 62.1726 26.6393 62.1281 26.6573C62.0836 26.6754 62.035 26.6805 61.9877 26.6722ZM57.6783 21.838C57.0526 19.9408 56.2839 18.0939 55.3786 16.3132C54.4734 18.0939 53.7046 19.9408 53.0789 21.838H57.6783Z" fill="#2D3955"/>
<path d="M75.8126 22.7961C75.8126 25.1511 74.0861 26.6704 70.6124 26.6704H64.5489C64.5082 26.6735 64.4673 26.6678 64.4291 26.6536C64.3908 26.6394 64.356 26.6172 64.3272 26.5883C64.2983 26.5594 64.276 26.5247 64.2619 26.4864C64.2477 26.4481 64.242 26.4072 64.2451 26.3666V13.6802C64.2407 13.6393 64.2456 13.5978 64.2593 13.559C64.2731 13.5201 64.2953 13.4849 64.3244 13.4557C64.3536 13.4266 64.3888 13.4043 64.4277 13.3906C64.4665 13.3769 64.508 13.372 64.5489 13.3764H70.7643C73.879 13.3764 75.0599 14.7576 75.0599 16.4495C75.0606 17.137 74.8439 17.8072 74.4407 18.3641C74.0376 18.921 73.4687 19.3362 72.8154 19.5503C74.6939 19.9302 75.8126 21.2354 75.8126 22.7961ZM67.3804 15.7658V18.7009H69.908C71.4273 18.7009 72.0903 18.2244 72.0903 17.2575C72.0903 16.2907 71.4826 15.7727 70.1566 15.7727L67.3804 15.7658ZM70.5364 24.274C71.9591 24.274 72.7533 23.7216 72.7533 22.6442C72.7533 21.5669 72.1317 21.0835 70.6815 21.0835H67.3735V24.274H70.5364Z" fill="#2D3955"/>
<path d="M78.0231 20.8429V13.6607C78.0193 13.62 78.024 13.579 78.0367 13.5401C78.0495 13.5013 78.0702 13.4656 78.0974 13.4351C78.1246 13.4046 78.1578 13.3801 78.195 13.3631C78.2321 13.346 78.2723 13.3369 78.3132 13.3361C78.6155 13.2979 78.92 13.2794 79.2248 13.2808C80.4955 13.2808 81.1585 13.8333 81.1585 15.3526V20.7048C81.1585 22.9423 82.1667 24.1578 84.1557 24.1578C86.1446 24.1578 87.1598 22.9976 87.1598 20.7048V13.6814C87.1554 13.6404 87.1603 13.599 87.174 13.5601C87.1878 13.5213 87.21 13.486 87.2392 13.4569C87.2683 13.4278 87.3036 13.4055 87.3424 13.3918C87.3813 13.378 87.4227 13.3732 87.4636 13.3775H89.9498C89.9908 13.3732 90.0322 13.378 90.071 13.3918C90.1099 13.4055 90.1452 13.4278 90.1743 13.4569C90.2034 13.486 90.2257 13.5213 90.2394 13.5601C90.2532 13.599 90.258 13.6404 90.2537 13.6814V20.8429C90.2537 24.9036 87.9954 26.9547 84.1419 26.9547C80.2883 26.9547 78.0231 24.9174 78.0231 20.8429Z" fill="#2D3955"/>
<path d="M110.758 19.868C110.758 23.839 107.996 26.6704 103.562 26.6704H97.9404C97.8994 26.6748 97.858 26.6699 97.8192 26.6562C97.7803 26.6424 97.7451 26.6202 97.7159 26.5911C97.6868 26.5619 97.6645 26.5266 97.6508 26.4878C97.6371 26.4489 97.6322 26.4075 97.6366 26.3666V13.6802C97.6322 13.6393 97.6371 13.5978 97.6508 13.559C97.6645 13.5201 97.6868 13.4849 97.7159 13.4557C97.7451 13.4266 97.7803 13.4043 97.8192 13.3906C97.858 13.3769 97.8994 13.372 97.9404 13.3764H103.576C108.002 13.3764 110.758 16.0904 110.758 19.868ZM103.576 23.9495C105.869 23.9495 107.56 22.5683 107.56 19.868C107.56 17.4026 105.869 16.0904 103.576 16.0904H100.813V23.9495H103.576Z" fill="#2D3955"/>
<path d="M122.38 13.6814C122.376 13.6404 122.38 13.599 122.394 13.5601C122.408 13.5213 122.43 13.486 122.459 13.4569C122.488 13.4278 122.524 13.4055 122.563 13.3918C122.601 13.378 122.643 13.3732 122.684 13.3775H125.211C125.252 13.3732 125.294 13.378 125.333 13.3918C125.372 13.4055 125.407 13.4278 125.436 13.4569C125.465 13.486 125.487 13.5213 125.501 13.5601C125.515 13.599 125.52 13.6404 125.515 13.6814V26.3677C125.518 26.4084 125.513 26.4493 125.498 26.4876C125.484 26.5258 125.462 26.5606 125.433 26.5895C125.404 26.6183 125.37 26.6406 125.331 26.6548C125.293 26.669 125.252 26.6747 125.211 26.6716H122.684C122.643 26.6759 122.601 26.6711 122.563 26.6573C122.524 26.6436 122.488 26.6213 122.459 26.5922C122.43 26.5631 122.408 26.5278 122.394 26.489C122.38 26.4501 122.376 26.4087 122.38 26.3677V21.3539H116.455V26.3677C116.459 26.4087 116.454 26.4501 116.44 26.489C116.427 26.5278 116.404 26.5631 116.375 26.5922C116.346 26.6213 116.311 26.6436 116.272 26.6573C116.233 26.6711 116.192 26.6759 116.151 26.6716H113.623C113.582 26.6747 113.542 26.669 113.503 26.6548C113.465 26.6406 113.43 26.6183 113.401 26.5895C113.373 26.5606 113.35 26.5258 113.336 26.4876C113.322 26.4493 113.316 26.4084 113.319 26.3677V13.6607C113.315 13.62 113.32 13.579 113.333 13.5401C113.346 13.5013 113.366 13.4656 113.394 13.4351C113.421 13.4046 113.454 13.3801 113.491 13.3631C113.528 13.346 113.568 13.3369 113.609 13.3361C113.912 13.2979 114.216 13.2794 114.521 13.2808C115.792 13.2808 116.455 13.8333 116.455 15.3526V18.5985H122.38V13.6814Z" fill="#2D3955"/>
<path d="M140.992 26.6722H138.312C138.273 26.676 138.234 26.672 138.196 26.6605C138.159 26.649 138.124 26.6302 138.094 26.6051C138.064 26.5801 138.039 26.5493 138.02 26.5146C138.002 26.4799 137.991 26.4419 137.988 26.4028C137.822 25.7122 137.649 25.0769 137.456 24.407H131.31C131.116 25.0976 130.944 25.7399 130.778 26.4028C130.774 26.4419 130.763 26.4799 130.745 26.5146C130.727 26.5493 130.702 26.5801 130.672 26.6051C130.641 26.6302 130.607 26.649 130.569 26.6605C130.532 26.672 130.492 26.676 130.453 26.6722H127.746C127.702 26.6783 127.658 26.6726 127.617 26.6558C127.576 26.639 127.54 26.6115 127.514 26.5764C127.487 26.5412 127.47 26.4996 127.465 26.4557C127.46 26.4118 127.466 26.3674 127.484 26.3269C128.593 21.8477 130.337 17.5502 132.663 13.5646C132.696 13.5001 132.745 13.4452 132.806 13.4053C132.866 13.3654 132.936 13.3418 133.008 13.3367C133.903 13.2262 134.807 13.2262 135.702 13.3367C135.777 13.3415 135.849 13.3674 135.91 13.4113C135.971 13.4553 136.019 13.5156 136.047 13.5853C138.371 17.5579 140.124 21.8379 141.254 26.2992C141.279 26.3406 141.292 26.3884 141.29 26.4368C141.289 26.4852 141.273 26.5321 141.245 26.5717C141.217 26.6114 141.179 26.642 141.133 26.6598C141.088 26.6776 141.039 26.6819 140.992 26.6722ZM136.682 21.838C136.057 19.9408 135.288 18.0939 134.383 16.3132C133.477 18.0939 132.709 19.9408 132.083 21.838H136.682Z" fill="#2D3955"/>
<path d="M154.818 22.7961C154.818 25.1511 153.091 26.6704 149.611 26.6704H143.554C143.513 26.6735 143.472 26.6678 143.434 26.6536C143.396 26.6394 143.361 26.6172 143.332 26.5883C143.303 26.5594 143.281 26.5247 143.267 26.4864C143.253 26.4481 143.247 26.4072 143.25 26.3666V13.6802C143.246 13.6393 143.251 13.5978 143.264 13.559C143.278 13.5201 143.3 13.4849 143.329 13.4557C143.359 13.4266 143.394 13.4043 143.433 13.3906C143.472 13.3769 143.513 13.372 143.554 13.3764H149.769C152.884 13.3764 154.065 14.7576 154.065 16.4495C154.066 17.137 153.849 17.8072 153.446 18.3641C153.043 18.921 152.474 19.3362 151.82 19.5503C153.699 19.9302 154.818 21.2354 154.818 22.7961ZM146.392 15.7658V18.7009H148.92C150.439 18.7009 151.102 18.2244 151.102 17.2575C151.102 16.2907 150.494 15.7727 149.162 15.7727L146.392 15.7658ZM149.541 24.274C150.971 24.274 151.765 23.7216 151.765 22.6442C151.765 21.5669 151.137 21.0835 149.693 21.0835H146.392V24.274H149.541Z" fill="#2D3955"/>
<path d="M159.928 26.6715H157.401C157.36 26.6746 157.319 26.6689 157.281 26.6547C157.243 26.6406 157.208 26.6183 157.179 26.5894C157.15 26.5606 157.128 26.5258 157.114 26.4875C157.099 26.4493 157.094 26.4084 157.097 26.3677V13.6606C157.093 13.6205 157.097 13.58 157.11 13.5417C157.122 13.5033 157.142 13.4679 157.169 13.4375C157.195 13.4072 157.228 13.3825 157.264 13.3651C157.3 13.3476 157.34 13.3377 157.38 13.336C157.682 13.2983 157.987 13.2799 158.292 13.2808C159.569 13.2808 160.232 13.8333 160.232 15.3526V26.3677C160.235 26.4084 160.229 26.4493 160.215 26.4875C160.201 26.5258 160.179 26.5606 160.15 26.5894C160.121 26.6183 160.086 26.6406 160.048 26.6547C160.01 26.6689 159.969 26.6746 159.928 26.6715Z" fill="#2D3955"/>
<path d="M181.689 13.6794L181.972 26.3657C181.978 26.407 181.974 26.449 181.96 26.4885C181.947 26.5279 181.925 26.5638 181.895 26.5933C181.866 26.6227 181.83 26.6449 181.791 26.6582C181.751 26.6714 181.709 26.6753 181.668 26.6696H179.147C179.106 26.6753 179.064 26.6714 179.024 26.6582C178.985 26.6449 178.949 26.6227 178.92 26.5933C178.89 26.5638 178.868 26.5279 178.855 26.4885C178.842 26.449 178.838 26.407 178.843 26.3657L178.85 19.1835C177.879 21.0073 176.807 22.7756 175.639 24.4804C175.603 24.5423 175.55 24.5931 175.486 24.6272C175.423 24.6613 175.352 24.6774 175.28 24.6737H174.368C174.297 24.6766 174.225 24.6602 174.162 24.6262C174.099 24.5922 174.046 24.5418 174.009 24.4804C172.841 22.7756 171.769 21.0073 170.798 19.1835L170.839 26.3657C170.844 26.4067 170.839 26.4481 170.825 26.487C170.811 26.5258 170.789 26.5611 170.76 26.5902C170.731 26.6194 170.696 26.6416 170.657 26.6553C170.618 26.6691 170.576 26.6739 170.535 26.6696H168.008C167.967 26.6753 167.925 26.6714 167.885 26.6582C167.846 26.6449 167.81 26.6227 167.78 26.5933C167.751 26.5638 167.729 26.5279 167.715 26.4885C167.702 26.449 167.698 26.407 167.704 26.3657L167.987 13.6794C167.983 13.6384 167.988 13.597 168.001 13.5582C168.015 13.5193 168.037 13.484 168.066 13.4549C168.096 13.4258 168.131 13.4035 168.17 13.3898C168.209 13.376 168.25 13.3712 168.291 13.3755H170.563C170.64 13.3719 170.716 13.3918 170.782 13.4325C170.847 13.4732 170.898 13.5328 170.929 13.6034C172.158 16.2415 173.526 18.6724 174.838 20.91C176.15 18.6724 177.517 16.2415 178.754 13.6034C178.782 13.5328 178.832 13.4728 178.897 13.432C178.961 13.3911 179.037 13.3714 179.113 13.3755H181.371C181.413 13.3689 181.456 13.372 181.497 13.3847C181.537 13.3974 181.574 13.4193 181.605 13.4487C181.636 13.4782 181.659 13.5143 181.674 13.5543C181.688 13.5943 181.693 13.6371 181.689 13.6794Z" fill="#2D3955"/>
<path d="M197.448 26.6721H194.776C194.737 26.6759 194.697 26.6719 194.66 26.6604C194.622 26.6489 194.587 26.6301 194.557 26.605C194.527 26.58 194.502 26.5492 194.484 26.5145C194.466 26.4798 194.454 26.4418 194.451 26.4027C194.278 25.7121 194.106 25.0768 193.919 24.4069H187.766C187.58 25.0975 187.407 25.7398 187.234 26.4027C187.231 26.4418 187.22 26.4798 187.201 26.5145C187.183 26.5492 187.158 26.58 187.128 26.605C187.098 26.6301 187.063 26.6489 187.026 26.6604C186.988 26.6719 186.949 26.6759 186.91 26.6721H184.237C184.193 26.6774 184.149 26.6713 184.108 26.6544C184.067 26.6375 184.032 26.6103 184.005 26.5756C183.978 26.5408 183.96 26.4996 183.953 26.456C183.947 26.4124 183.952 26.3679 183.968 26.3268C185.077 21.8463 186.823 17.5484 189.154 13.5645C189.186 13.5005 189.234 13.4459 189.293 13.406C189.353 13.3661 189.421 13.3421 189.492 13.3366C190.389 13.2262 191.296 13.2262 192.193 13.3366C192.267 13.3419 192.338 13.368 192.398 13.412C192.458 13.456 192.504 13.516 192.531 13.5852C194.851 17.5575 196.597 21.8378 197.718 26.2991C197.744 26.341 197.757 26.3897 197.755 26.439C197.753 26.4883 197.737 26.5359 197.708 26.5759C197.679 26.6159 197.639 26.6464 197.593 26.6635C197.546 26.6806 197.496 26.6836 197.448 26.6721ZM193.139 21.8379C192.518 19.9398 191.752 18.0927 190.846 16.3131C189.935 18.0911 189.166 19.9385 188.546 21.8379H193.139Z" fill="#2D3955"/>
<path d="M211.219 26.2975C211.337 26.5116 211.219 26.6635 210.991 26.6635H208.353C208.277 26.6677 208.202 26.6479 208.137 26.6071C208.073 26.5662 208.023 26.5063 207.994 26.4356C207.301 25.0123 206.367 23.7201 205.232 22.6166H202.822V26.3666C202.825 26.4072 202.819 26.4481 202.805 26.4864C202.791 26.5247 202.768 26.5594 202.739 26.5883C202.711 26.6172 202.676 26.6394 202.638 26.6536C202.599 26.6678 202.558 26.6735 202.518 26.6704H199.99C199.949 26.6748 199.908 26.6699 199.869 26.6562C199.83 26.6424 199.795 26.6202 199.766 26.5911C199.736 26.5619 199.714 26.5266 199.7 26.4878C199.687 26.4489 199.682 26.4075 199.686 26.3666V13.6802C199.682 13.6393 199.687 13.5978 199.7 13.559C199.714 13.5201 199.736 13.4849 199.766 13.4557C199.795 13.4266 199.83 13.4043 199.869 13.3906C199.908 13.3769 199.949 13.372 199.99 13.3764H205.101C208.761 13.3764 210.853 14.9509 210.853 17.741C210.926 18.6376 210.679 19.531 210.158 20.2638C209.636 20.9966 208.872 21.5216 208.001 21.7464C209.345 23.052 210.436 24.595 211.219 26.2975ZM202.849 16.0352V19.9647H205.094C206.799 19.9647 207.732 19.2741 207.732 18.0103C207.732 16.7465 207.041 16.0352 204.969 16.0352H202.849Z" fill="#2D3955"/>
<path d="M216.144 26.6715H213.616C213.575 26.6746 213.534 26.6689 213.496 26.6547C213.458 26.6406 213.423 26.6183 213.394 26.5894C213.365 26.5606 213.343 26.5258 213.329 26.4875C213.315 26.4493 213.309 26.4084 213.312 26.3677V13.6606C213.308 13.6205 213.313 13.58 213.325 13.5417C213.337 13.5033 213.357 13.4679 213.384 13.4375C213.41 13.4072 213.443 13.3825 213.479 13.3651C213.515 13.3476 213.555 13.3377 213.595 13.336C213.898 13.2983 214.202 13.2799 214.507 13.2808C215.784 13.2808 216.447 13.8333 216.447 15.3526V26.3677C216.451 26.4084 216.445 26.4493 216.431 26.4875C216.416 26.5258 216.394 26.5606 216.365 26.5894C216.336 26.6183 216.302 26.6406 216.263 26.6547C216.225 26.6689 216.184 26.6746 216.144 26.6715Z" fill="#2D3955"/>
<path d="M230.535 13.6594C230.687 15.1027 230.266 16.035 228.387 16.035H225.749V26.394C225.754 26.435 225.749 26.4764 225.735 26.5153C225.721 26.5541 225.699 26.5894 225.67 26.6185C225.641 26.6477 225.606 26.6699 225.567 26.6837C225.528 26.6974 225.486 26.7023 225.445 26.6979H222.918C222.877 26.701 222.836 26.6953 222.798 26.6811C222.76 26.6669 222.725 26.6447 222.696 26.6158C222.667 26.5869 222.645 26.5522 222.631 26.5139C222.617 26.4756 222.611 26.4347 222.614 26.394V16.035H218.533C218.492 16.0381 218.451 16.0324 218.413 16.0182C218.374 16.0041 218.34 15.9818 218.311 15.9529C218.282 15.9241 218.26 15.8893 218.246 15.851C218.231 15.8128 218.226 15.7719 218.229 15.7312V13.6594C218.224 13.6184 218.229 13.577 218.243 13.5381C218.257 13.4993 218.279 13.464 218.308 13.4349C218.337 13.4057 218.373 13.3835 218.411 13.3698C218.45 13.356 218.492 13.3512 218.533 13.3555H230.211C230.253 13.3504 230.295 13.3546 230.336 13.3677C230.376 13.3809 230.413 13.4027 230.444 13.4317C230.475 13.4607 230.499 13.4961 230.515 13.5354C230.531 13.5747 230.538 13.617 230.535 13.6594Z" fill="#2D3955"/>
<path d="M235.211 26.6715H232.718C232.677 26.6759 232.636 26.671 232.597 26.6573C232.558 26.6435 232.523 26.6213 232.494 26.5922C232.465 26.563 232.442 26.5278 232.429 26.4889C232.415 26.4501 232.41 26.4086 232.414 26.3677V13.6606C232.411 13.6205 232.415 13.58 232.427 13.5417C232.44 13.5033 232.46 13.4679 232.486 13.4375C232.513 13.4072 232.545 13.3825 232.581 13.3651C232.618 13.3476 232.657 13.3377 232.698 13.336C233 13.2983 233.304 13.2799 233.609 13.2808C234.88 13.2808 235.55 13.8333 235.55 15.3526V26.3677C235.554 26.4117 235.548 26.4561 235.531 26.4972C235.515 26.5384 235.49 26.5752 235.457 26.6048C235.424 26.6343 235.385 26.6557 235.342 26.6673C235.299 26.6789 235.255 26.6804 235.211 26.6715Z" fill="#2D3955"/>
<path d="M252.511 13.6812L252.794 26.3676C252.798 26.4085 252.793 26.45 252.78 26.4888C252.766 26.5277 252.744 26.5629 252.714 26.5921C252.685 26.6212 252.65 26.6435 252.611 26.6572C252.572 26.6709 252.531 26.6758 252.49 26.6714H249.983C249.942 26.6758 249.901 26.6709 249.862 26.6572C249.823 26.6435 249.788 26.6212 249.759 26.5921C249.729 26.5629 249.707 26.5277 249.693 26.4888C249.68 26.45 249.675 26.4085 249.679 26.3676L249.721 19.1853C248.749 21.0091 247.677 22.7775 246.509 24.4822C246.472 24.5437 246.419 24.594 246.356 24.6281C246.293 24.6621 246.222 24.6785 246.15 24.6756H245.218C245.146 24.6792 245.075 24.6631 245.011 24.6291C244.948 24.595 244.895 24.5442 244.859 24.4822C243.691 22.7775 242.619 21.0091 241.647 19.1853L241.696 26.3676C241.702 26.4088 241.698 26.4508 241.684 26.4903C241.671 26.5298 241.649 26.5657 241.619 26.5951C241.59 26.6246 241.554 26.6468 241.515 26.66C241.475 26.6733 241.433 26.6772 241.392 26.6714H238.871C238.83 26.6772 238.788 26.6733 238.749 26.66C238.709 26.6468 238.673 26.6246 238.644 26.5951C238.614 26.5657 238.592 26.5298 238.579 26.4903C238.566 26.4508 238.562 26.4088 238.567 26.3676L238.851 13.6812C238.845 13.64 238.849 13.598 238.862 13.5585C238.875 13.519 238.897 13.4832 238.927 13.4537C238.956 13.4243 238.992 13.402 239.032 13.3888C239.071 13.3756 239.113 13.3716 239.154 13.3774H241.413C241.489 13.3732 241.564 13.393 241.629 13.4338C241.693 13.4747 241.743 13.5346 241.772 13.6053C243.008 16.2434 244.375 18.6743 245.687 20.9118C247 18.6743 248.36 16.2434 249.596 13.6053C249.626 13.5352 249.676 13.4759 249.74 13.4351C249.804 13.3944 249.879 13.3742 249.955 13.3774H252.221C252.26 13.3752 252.3 13.3816 252.337 13.3963C252.375 13.411 252.408 13.4336 252.436 13.4625C252.463 13.4913 252.484 13.5259 252.497 13.5636C252.51 13.6014 252.515 13.6415 252.511 13.6812Z" fill="#2D3955"/>
<path d="M258.96 24.1014H265.569C265.609 24.0983 265.65 24.104 265.689 24.1182C265.727 24.1324 265.762 24.1546 265.79 24.1835C265.819 24.2124 265.842 24.2471 265.856 24.2854C265.87 24.3237 265.876 24.3646 265.873 24.4052V26.3666C265.876 26.4072 265.87 26.4481 265.856 26.4864C265.842 26.5247 265.819 26.5594 265.79 26.5883C265.762 26.6172 265.727 26.6394 265.689 26.6536C265.65 26.6678 265.609 26.6735 265.569 26.6704H256.135C256.094 26.6735 256.054 26.6678 256.015 26.6536C255.977 26.6394 255.942 26.6172 255.913 26.5883C255.885 26.5594 255.862 26.5247 255.848 26.4864C255.834 26.4481 255.828 26.4072 255.831 26.3666V13.6802C255.827 13.6393 255.832 13.5978 255.846 13.559C255.859 13.5201 255.881 13.4849 255.911 13.4557C255.94 13.4266 255.975 13.4043 256.014 13.3906C256.053 13.3769 256.094 13.372 256.135 13.3764H265.382C265.423 13.372 265.465 13.3769 265.503 13.3906C265.542 13.4043 265.578 13.4266 265.607 13.4557C265.636 13.4849 265.658 13.5201 265.672 13.559C265.686 13.5978 265.69 13.6393 265.686 13.6802V15.6346C265.69 15.6756 265.686 15.717 265.672 15.7559C265.658 15.7947 265.636 15.83 265.607 15.8591C265.578 15.8883 265.542 15.9105 265.503 15.9242C265.465 15.938 265.423 15.9428 265.382 15.9385H258.96V18.5973H264.484C264.526 18.5934 264.569 18.5984 264.608 18.612C264.648 18.6256 264.684 18.6474 264.715 18.6762C264.746 18.7049 264.77 18.7398 264.786 18.7786C264.802 18.8174 264.81 18.8592 264.809 18.9012V19.3362C264.885 20.7174 264.16 21.2561 262.627 21.2561H258.96V24.1014Z" fill="#2D3955"/>
</svg>