<svg xmlns:xlink="http://www.w3.org/1999/xlink" xmlns="http://www.w3.org/2000/svg" width="234" height="40" viewBox="0 0 234 40" fill="none">
<path d="M19.9025 12.7001C19.9025 12.7258 19.9127 12.7504 19.9308 12.7685C19.9489 12.7866 19.9735 12.7968 19.9992 12.7968C20.0248 12.7968 20.0494 12.7866 20.0675 12.7685C20.0857 12.7504 20.0958 12.7258 20.0958 12.7001C20.0958 12.7001 21.2008 9.60625 21.4287 8.75681C21.4294 8.33688 21.4064 7.91725 21.3596 7.49992C21.1209 5.00123 20.6939 2.52414 20.082 0.0897788C20.082 0.0207187 20.0337 0 19.9853 0C19.937 0 19.9025 7.40934e-07 19.8887 0.0897788C19.2854 2.52531 18.863 5.00211 18.6249 7.49992C18.5818 7.91748 18.5611 8.33704 18.5627 8.75681C18.7906 9.60625 19.8887 12.7001 19.8887 12.7001" fill="#2D3955"/>
<path d="M17.2725 17.319C16.7325 17.8642 16.3659 18.557 16.2189 19.3102C16.0719 20.0634 16.151 20.8433 16.4464 21.5516C16.7418 22.2598 17.2401 22.8649 17.8787 23.2905C18.5173 23.7161 19.2675 23.9432 20.0349 23.9432C20.8023 23.9432 21.5526 23.7161 22.1912 23.2905C22.8298 22.8649 23.3281 22.2598 23.6235 21.5516C23.9188 20.8433 23.998 20.0634 23.851 19.3102C23.704 18.557 23.3374 17.8642 22.7973 17.319C22.4358 16.954 22.0056 16.6642 21.5314 16.4665C21.0573 16.2688 20.5487 16.167 20.0349 16.167C19.5212 16.167 19.0126 16.2688 18.5384 16.4665C18.0643 16.6642 17.634 16.954 17.2725 17.319Z" fill="#2D3955"/>
<path d="M17.7275 10.0609L17.3822 9.03192C16.2058 9.31103 15.0819 9.77737 14.0535 10.4131L14.5576 11.38C15.5274 10.7648 16.5946 10.3188 17.7137 10.0609" fill="#2D3955"/>
<path d="M25.9458 10.4131C24.918 9.77619 23.794 9.30976 22.6172 9.03192L22.2719 10.0885C23.3941 10.3433 24.464 10.7895 25.4348 11.4076L25.9458 10.4131Z" fill="#2D3955"/>
<path d="M14.0535 29.6323C15.0825 30.2668 16.2062 30.7331 17.3822 31.0135L17.7275 29.9637C16.6041 29.7092 15.5322 29.2655 14.5576 28.6516L14.0535 29.6323Z" fill="#2D3955"/>
<path d="M22.2719 29.9802L22.6172 31.0299C23.794 30.7521 24.918 30.2857 25.9458 29.6487L25.4348 28.6681C24.4629 29.2854 23.3934 29.7337 22.2719 29.994" fill="#2D3955"/>
<path d="M10.4147 25.9606L11.3953 25.4496C10.778 24.4801 10.3296 23.413 10.0694 22.2935L9.01965 22.6388C9.2955 23.8141 9.76209 24.9362 10.4009 25.9606" fill="#2D3955"/>
<path d="M8.99133 17.3955L10.041 17.7408C10.2983 16.6117 10.7468 15.535 11.367 14.5571L10.414 14.0737C9.7752 15.098 9.30862 16.2202 9.03277 17.3955" fill="#2D3955"/>
<path d="M31.0155 22.6388L29.9589 22.2935C29.7016 23.4139 29.253 24.4816 28.6329 25.4496L29.6205 25.9606C30.2562 24.9347 30.7226 23.813 31.0017 22.6388" fill="#2D3955"/>
<path d="M28.6329 14.5578C29.253 15.5258 29.7016 16.5934 29.9589 17.7138L31.0155 17.3685C30.7364 16.1943 30.27 15.0727 29.6343 14.0468L28.6329 14.5578Z" fill="#2D3955"/>
<path d="M20.082 27.2999C20.082 27.2743 20.0719 27.2497 20.0537 27.2316C20.0356 27.2134 20.011 27.2032 19.9854 27.2032C19.9597 27.2032 19.9351 27.2134 19.917 27.2316C19.8989 27.2497 19.8887 27.2743 19.8887 27.2999C19.8887 27.2999 18.7906 30.3938 18.5627 31.2433C18.561 31.663 18.5817 32.0826 18.6249 32.5002C18.8622 34.9981 19.2846 37.4749 19.8887 39.9103C19.8887 39.9794 19.937 40.0001 19.9854 40.0001C20.0337 40.0001 20.0682 40.0001 20.089 39.9103C20.6966 37.48 21.1213 35.0077 21.3597 32.514C21.4065 32.0967 21.4296 31.677 21.4287 31.2571C21.2008 30.4076 20.0959 27.3137 20.0959 27.3137" fill="#2D3955"/>
<path d="M8.75681 21.4634C9.60625 21.2355 12.7001 20.1306 12.7001 20.1306C12.7258 20.1306 12.7504 20.1204 12.7685 20.1022C12.7866 20.0841 12.7968 20.0595 12.7968 20.0339C12.7968 20.0082 12.7866 19.9836 12.7685 19.9655C12.7504 19.9474 12.7258 19.9372 12.7001 19.9372C12.7001 19.9372 9.60625 18.8391 8.75681 18.6112C8.33704 18.6096 7.91748 18.6304 7.49992 18.6734C5.00211 18.9115 2.52531 19.3339 0.0897788 19.9372C0.0207187 19.9372 0 19.9855 0 20.0339C0 20.0822 7.40934e-07 20.1167 0.0897788 20.1306C2.5245 20.7377 5.00158 21.1602 7.49992 21.3944C7.91725 21.4411 8.33688 21.4641 8.75681 21.4634Z" fill="#2D3955"/>
<path d="M39.9099 19.902C37.4791 19.2986 35.0069 18.8762 32.5136 18.6382C32.096 18.595 31.6765 18.5743 31.2567 18.576C30.4072 18.8039 27.3134 19.902 27.3134 19.902C27.2877 19.902 27.2631 19.9122 27.245 19.9303C27.2269 19.9484 27.2167 19.973 27.2167 19.9987C27.2167 20.0243 27.2269 20.0489 27.245 20.067C27.2631 20.0852 27.2877 20.0954 27.3134 20.0954C27.3134 20.0954 30.4072 21.2003 31.2567 21.4282C31.6766 21.4291 32.0963 21.406 32.5136 21.3592C35.0075 21.1186 37.4798 20.6915 39.9099 20.0815C39.979 20.0815 39.9997 20.0263 39.9997 19.9779C39.9997 19.9296 39.9997 19.8951 39.9099 19.8813" fill="#2D3955"/>
<path d="M10.2002 12.1266C10.7181 12.8172 10.9322 12.9968 10.9322 12.9968C11.6228 13.4388 14.772 14.9098 14.772 14.9098C14.7913 14.919 14.813 14.922 14.8341 14.9184C14.8552 14.9148 14.8747 14.9047 14.8899 14.8895C14.905 14.8744 14.9151 14.8549 14.9187 14.8338C14.9223 14.8127 14.9193 14.791 14.9101 14.7716C14.9101 14.7716 13.4391 11.6018 12.9971 10.9319C12.9971 10.9319 12.783 10.7178 12.127 10.1999C10.6358 8.95696 8.99003 7.91237 7.23061 7.09216C7.15464 7.09216 7.12702 7.09216 7.09939 7.09216C7.07177 7.09216 7.05796 7.14741 7.09939 7.22337C7.9196 8.98279 8.96419 10.6286 10.2071 12.1197" fill="#2D3955"/>
<path d="M29.806 27.8808C29.2812 27.2178 29.0602 26.9899 29.0602 26.9899C28.3696 26.5479 25.2205 25.0839 25.2205 25.0839C25.2021 25.0738 25.181 25.07 25.1603 25.073C25.1397 25.076 25.1205 25.0856 25.1057 25.1003C25.0909 25.1151 25.0813 25.1343 25.0784 25.155C25.0754 25.1757 25.0792 25.1968 25.0892 25.2151C25.0892 25.2151 26.5602 28.3711 26.9884 29.0617C26.9884 29.0617 27.2025 29.2758 27.8655 29.8007C29.356 31.0409 30.9992 32.0853 32.7549 32.9084C32.8309 32.9084 32.8585 32.9084 32.893 32.9084C32.9276 32.9084 32.9276 32.8462 32.893 32.7703C32.0699 31.0145 31.0256 29.3714 29.7853 27.8808" fill="#2D3955"/>
<path d="M14.889 25.1102C14.8727 25.0961 14.8519 25.0884 14.8303 25.0884C14.8088 25.0884 14.7879 25.0961 14.7716 25.1102C14.7716 25.1102 11.6018 26.5605 10.9319 26.9887C10.673 27.2683 10.4287 27.561 10.1999 27.8657C8.95639 29.3539 7.91173 30.9975 7.09216 32.7552C7.09216 32.8311 7.09216 32.8588 7.09216 32.8933C7.09216 32.9278 7.14741 32.9278 7.22337 32.8933C8.9818 32.0684 10.6273 31.0217 12.1197 29.7787C12.8103 29.2607 12.9899 29.0467 12.9899 29.0467C13.4319 28.3561 14.9029 25.2069 14.9029 25.2069C14.9147 25.1896 14.9211 25.1692 14.9211 25.1482C14.9211 25.1273 14.9147 25.1068 14.9029 25.0895" fill="#2D3955"/>
<path d="M25.1108 14.8891C25.128 14.901 25.1485 14.9074 25.1695 14.9074C25.1904 14.9074 25.2109 14.901 25.2282 14.8891C25.2282 14.8891 28.3704 13.4389 29.061 12.9969C29.061 12.9969 29.2751 12.7828 29.7999 12.1267C31.0396 10.6333 32.0839 8.98789 32.9076 7.23038C32.9076 7.15441 32.9076 7.13369 32.9076 7.09916C32.9076 7.06463 32.8455 7.05773 32.7695 7.09916C31.0119 7.91873 29.3683 8.96339 27.8801 10.2069C27.5708 10.4331 27.2735 10.6751 26.9892 10.932C26.5472 11.6226 25.0831 14.7717 25.0831 14.7717C25.069 14.788 25.0613 14.8089 25.0613 14.8304C25.0613 14.852 25.069 14.8728 25.0831 14.8891" fill="#2D3955"/>
<path d="M61.3671 26.6722H58.6875C58.6091 26.678 58.5315 26.6532 58.4709 26.603C58.4104 26.5528 58.3717 26.481 58.363 26.4028C58.1972 25.7122 58.0246 25.0769 57.8381 24.407H51.6849C51.4915 25.0976 51.3188 25.7399 51.1531 26.4028C51.1496 26.4419 51.1385 26.4799 51.1202 26.5146C51.102 26.5493 51.0771 26.5801 51.0469 26.6051C51.0168 26.6302 50.9819 26.649 50.9444 26.6605C50.9069 26.672 50.8676 26.676 50.8285 26.6722H48.149C48.1052 26.6783 48.0607 26.6726 48.0198 26.6558C47.979 26.639 47.9434 26.6115 47.9166 26.5764C47.8899 26.5412 47.873 26.4996 47.8678 26.4557C47.8625 26.4118 47.869 26.3674 47.8866 26.3269C48.9962 21.8477 50.7403 17.5502 53.0661 13.5646C53.0992 13.5001 53.1483 13.4452 53.2088 13.4053C53.2693 13.3654 53.3391 13.3418 53.4114 13.3367C54.3057 13.2262 55.2103 13.2262 56.1047 13.3367C56.1798 13.3415 56.252 13.3674 56.3131 13.4113C56.3742 13.4553 56.4216 13.5156 56.45 13.5853C58.7666 17.559 60.5125 21.839 61.6364 26.2992C61.6592 26.3415 61.6696 26.3893 61.6665 26.4372C61.6633 26.4852 61.6468 26.5312 61.6187 26.5701C61.5906 26.6091 61.552 26.6393 61.5075 26.6573C61.463 26.6754 61.4144 26.6805 61.3671 26.6722ZM57.0577 21.838C56.432 19.9408 55.6633 18.0939 54.758 16.3132C53.8528 18.0939 53.084 19.9408 52.4583 21.838H57.0577Z" fill="#2D3955"/>
<path d="M75.192 22.7961C75.192 25.1511 73.4655 26.6704 69.9918 26.6704H63.9283C63.8876 26.6735 63.8467 26.6678 63.8085 26.6536C63.7702 26.6394 63.7354 26.6172 63.7066 26.5883C63.6777 26.5594 63.6554 26.5247 63.6413 26.4864C63.6271 26.4481 63.6214 26.4072 63.6245 26.3666V13.6802C63.6201 13.6393 63.625 13.5978 63.6387 13.559C63.6524 13.5201 63.6747 13.4849 63.7038 13.4557C63.733 13.4266 63.7682 13.4043 63.8071 13.3906C63.8459 13.3769 63.8874 13.372 63.9283 13.3764H70.1437C73.2583 13.3764 74.4393 14.7576 74.4393 16.4495C74.44 17.137 74.2233 17.8072 73.8201 18.3641C73.417 18.921 72.8481 19.3362 72.1948 19.5503C74.0733 19.9302 75.192 21.2354 75.192 22.7961ZM66.7598 15.7658V18.7009H69.2874C70.8067 18.7009 71.4697 18.2244 71.4697 17.2575C71.4697 16.2907 70.862 15.7727 69.536 15.7727L66.7598 15.7658ZM69.9158 24.274C71.3385 24.274 72.1327 23.7216 72.1327 22.6442C72.1327 21.5669 71.5111 21.0835 70.0609 21.0835H66.7529V24.274H69.9158Z" fill="#2D3955"/>
<path d="M77.4024 20.8429V13.6607C77.3986 13.62 77.4032 13.579 77.416 13.5401C77.4288 13.5013 77.4494 13.4656 77.4767 13.4351C77.5039 13.4046 77.5371 13.3801 77.5742 13.3631C77.6114 13.346 77.6516 13.3369 77.6925 13.3361C77.9948 13.2979 78.2993 13.2794 78.6041 13.2808C79.8748 13.2808 80.5377 13.8333 80.5377 15.3526V20.7048C80.5377 22.9423 81.546 24.1578 83.5349 24.1578C85.5239 24.1578 86.5391 22.9976 86.5391 20.7048V13.6814C86.5347 13.6404 86.5396 13.599 86.5533 13.5601C86.567 13.5213 86.5893 13.486 86.6184 13.4569C86.6476 13.4278 86.6828 13.4055 86.7217 13.3918C86.7605 13.378 86.8019 13.3732 86.8429 13.3775H89.3291C89.3701 13.3732 89.4115 13.378 89.4503 13.3918C89.4892 13.4055 89.5244 13.4278 89.5536 13.4569C89.5827 13.486 89.605 13.5213 89.6187 13.5601C89.6324 13.599 89.6373 13.6404 89.633 13.6814V20.8429C89.633 24.9036 87.3747 26.9547 83.5211 26.9547C79.6676 26.9547 77.4024 24.9174 77.4024 20.8429Z" fill="#2D3955"/>
<path d="M110.137 19.868C110.137 23.839 107.375 26.6704 102.941 26.6704H97.3199C97.279 26.6748 97.2375 26.6699 97.1987 26.6562C97.1599 26.6424 97.1246 26.6202 97.0954 26.5911C97.0663 26.5619 97.0441 26.5266 97.0303 26.4878C97.0166 26.4489 97.0117 26.4075 97.0161 26.3666V13.6802C97.0117 13.6393 97.0166 13.5978 97.0303 13.559C97.0441 13.5201 97.0663 13.4849 97.0954 13.4557C97.1246 13.4266 97.1599 13.4043 97.1987 13.3906C97.2375 13.3769 97.279 13.372 97.3199 13.3764H102.955C107.382 13.3764 110.137 16.0904 110.137 19.868ZM102.955 23.9495C105.248 23.9495 106.94 22.5683 106.94 19.868C106.94 17.4026 105.248 16.0904 102.955 16.0904H100.193V23.9495H102.955Z" fill="#2D3955"/>
<path d="M121.759 13.6814C121.755 13.6404 121.76 13.599 121.774 13.5601C121.787 13.5213 121.81 13.486 121.839 13.4569C121.868 13.4278 121.903 13.4055 121.942 13.3918C121.981 13.378 122.022 13.3732 122.063 13.3775H124.591C124.632 13.3732 124.673 13.378 124.712 13.3918C124.751 13.4055 124.786 13.4278 124.815 13.4569C124.844 13.486 124.867 13.5213 124.88 13.5601C124.894 13.599 124.899 13.6404 124.895 13.6814V26.3677C124.898 26.4084 124.892 26.4493 124.878 26.4876C124.864 26.5258 124.841 26.5606 124.813 26.5895C124.784 26.6183 124.749 26.6406 124.711 26.6548C124.672 26.669 124.632 26.6747 124.591 26.6716H122.063C122.022 26.6759 121.981 26.6711 121.942 26.6573C121.903 26.6436 121.868 26.6213 121.839 26.5922C121.81 26.5631 121.787 26.5278 121.774 26.489C121.76 26.4501 121.755 26.4087 121.759 26.3677V21.3539H115.834V26.3677C115.838 26.4087 115.833 26.4501 115.82 26.489C115.806 26.5278 115.784 26.5631 115.755 26.5922C115.726 26.6213 115.69 26.6436 115.651 26.6573C115.613 26.6711 115.571 26.6759 115.53 26.6716H113.003C112.962 26.6747 112.921 26.669 112.883 26.6548C112.844 26.6406 112.81 26.6183 112.781 26.5895C112.752 26.5606 112.73 26.5258 112.715 26.4876C112.701 26.4493 112.696 26.4084 112.699 26.3677V13.6607C112.695 13.62 112.7 13.579 112.712 13.5401C112.725 13.5013 112.746 13.4656 112.773 13.4351C112.8 13.4046 112.833 13.3801 112.87 13.3631C112.908 13.346 112.948 13.3369 112.989 13.3361C113.291 13.2979 113.596 13.2794 113.9 13.2808C115.171 13.2808 115.834 13.8333 115.834 15.3526V18.5985H121.759V13.6814Z" fill="#2D3955"/>
<path d="M140.371 26.6722H137.692C137.653 26.676 137.613 26.672 137.576 26.6605C137.538 26.649 137.503 26.6302 137.473 26.6051C137.443 26.5801 137.418 26.5493 137.4 26.5146C137.382 26.4799 137.371 26.4419 137.367 26.4028C137.201 25.7122 137.029 25.0769 136.835 24.407H130.689C130.496 25.0976 130.323 25.7399 130.157 26.4028C130.154 26.4419 130.143 26.4799 130.124 26.5146C130.106 26.5493 130.081 26.5801 130.051 26.6051C130.021 26.6302 129.986 26.649 129.949 26.6605C129.911 26.672 129.872 26.676 129.833 26.6722H127.126C127.082 26.6783 127.037 26.6726 126.996 26.6558C126.956 26.639 126.92 26.6115 126.893 26.5764C126.866 26.5412 126.85 26.4996 126.844 26.4557C126.839 26.4118 126.846 26.3674 126.863 26.3269C127.973 21.8477 129.717 17.5502 132.043 13.5646C132.076 13.5001 132.125 13.4452 132.185 13.4053C132.246 13.3654 132.316 13.3418 132.388 13.3367C133.282 13.2262 134.187 13.2262 135.081 13.3367C135.156 13.3415 135.229 13.3674 135.29 13.4113C135.351 13.4553 135.398 13.5156 135.427 13.5853C137.75 17.5579 139.503 21.8379 140.634 26.2992C140.659 26.3406 140.671 26.3884 140.67 26.4368C140.668 26.4852 140.653 26.5321 140.625 26.5717C140.597 26.6114 140.558 26.642 140.513 26.6598C140.468 26.6776 140.419 26.6819 140.371 26.6722ZM136.062 21.838C135.436 19.9408 134.667 18.0939 133.762 16.3132C132.857 18.0939 132.088 19.9408 131.463 21.838H136.062Z" fill="#2D3955"/>
<path d="M154.197 22.7961C154.197 25.1511 152.471 26.6704 148.99 26.6704H142.933C142.893 26.6735 142.852 26.6678 142.813 26.6536C142.775 26.6394 142.74 26.6172 142.712 26.5883C142.683 26.5594 142.66 26.5247 142.646 26.4864C142.632 26.4481 142.626 26.4072 142.629 26.3666V13.6802C142.625 13.6393 142.63 13.5978 142.644 13.559C142.657 13.5201 142.68 13.4849 142.709 13.4557C142.738 13.4266 142.773 13.4043 142.812 13.3906C142.851 13.3769 142.892 13.372 142.933 13.3764H149.149C152.263 13.3764 153.444 14.7576 153.444 16.4495C153.445 17.137 153.228 17.8072 152.825 18.3641C152.422 18.921 151.853 19.3362 151.2 19.5503C153.078 19.9302 154.197 21.2354 154.197 22.7961ZM145.772 15.7658V18.7009H148.299C149.819 18.7009 150.482 18.2244 150.482 17.2575C150.482 16.2907 149.874 15.7727 148.541 15.7727L145.772 15.7658ZM148.921 24.274C150.35 24.274 151.145 23.7216 151.145 22.6442C151.145 21.5669 150.516 21.0835 149.073 21.0835H145.772V24.274H148.921Z" fill="#2D3955"/>
<path d="M159.308 26.6715H156.78C156.739 26.6746 156.698 26.6689 156.66 26.6547C156.622 26.6406 156.587 26.6183 156.558 26.5894C156.529 26.5606 156.507 26.5258 156.493 26.4875C156.479 26.4493 156.473 26.4084 156.476 26.3677V13.6606C156.472 13.6205 156.477 13.58 156.489 13.5417C156.502 13.5033 156.522 13.4679 156.548 13.4375C156.575 13.4072 156.607 13.3825 156.643 13.3651C156.68 13.3476 156.719 13.3377 156.759 13.336C157.062 13.2983 157.366 13.2799 157.671 13.2808C158.949 13.2808 159.611 13.8333 159.611 15.3526V26.3677C159.615 26.4084 159.609 26.4493 159.595 26.4875C159.581 26.5258 159.558 26.5606 159.529 26.5894C159.501 26.6183 159.466 26.6406 159.427 26.6547C159.389 26.6689 159.348 26.6746 159.308 26.6715Z" fill="#2D3955"/>
<path d="M178.659 18.107C178.659 21.2561 176.152 23.0033 172.616 23.0033H170.247V26.3666C170.25 26.4072 170.245 26.4481 170.231 26.4864C170.216 26.5247 170.194 26.5594 170.165 26.5883C170.136 26.6172 170.102 26.6394 170.063 26.6536C170.025 26.6678 169.984 26.6735 169.943 26.6704H167.416C167.375 26.6748 167.333 26.6699 167.295 26.6562C167.256 26.6424 167.221 26.6202 167.191 26.5911C167.162 26.5619 167.14 26.5266 167.126 26.4878C167.113 26.4489 167.108 26.4075 167.112 26.3666V13.6802C167.108 13.6393 167.113 13.5978 167.126 13.559C167.14 13.5201 167.162 13.4849 167.191 13.4557C167.221 13.4266 167.256 13.4043 167.295 13.3906C167.333 13.3769 167.375 13.372 167.416 13.3764H173.037C176.629 13.3764 178.659 15.0269 178.659 18.107ZM172.637 20.3445C174.667 20.3445 175.524 19.4882 175.524 18.107C175.524 16.7258 174.667 16.0352 172.83 16.0352H170.247V20.3445H172.637Z" fill="#2D3955"/>
<path d="M180.461 20.0192C180.461 15.9792 183.224 13.1132 187.657 13.1132C192.091 13.1132 194.853 15.9999 194.853 20.0192C194.853 24.0385 192.091 26.9252 187.657 26.9252C183.224 26.9252 180.461 24.0661 180.461 20.0192ZM191.649 20.0192C191.649 17.2568 189.957 15.8065 187.657 15.8065C185.358 15.8065 183.672 17.2499 183.672 20.0192C183.672 22.7885 185.364 24.2249 187.657 24.2249C189.95 24.2249 191.649 22.7954 191.649 20.0192Z" fill="#2D3955"/>
<path d="M208.928 26.2975C209.045 26.5116 208.928 26.6635 208.7 26.6635H206.062C205.985 26.6677 205.91 26.6479 205.845 26.6071C205.781 26.5662 205.731 26.5063 205.702 26.4356C205.01 25.0123 204.075 23.7201 202.94 22.6166H200.53V26.3666C200.533 26.4072 200.527 26.4481 200.513 26.4864C200.499 26.5247 200.477 26.5594 200.448 26.5883C200.419 26.6172 200.384 26.6394 200.346 26.6536C200.308 26.6678 200.267 26.6735 200.226 26.6704H197.698C197.657 26.6748 197.616 26.6699 197.577 26.6562C197.538 26.6424 197.503 26.6202 197.474 26.5911C197.445 26.5619 197.422 26.5266 197.409 26.4878C197.395 26.4489 197.39 26.4075 197.394 26.3666V13.6802C197.39 13.6393 197.395 13.5978 197.409 13.559C197.422 13.5201 197.445 13.4849 197.474 13.4557C197.503 13.4266 197.538 13.4043 197.577 13.3906C197.616 13.3769 197.657 13.372 197.698 13.3764H202.809C206.469 13.3764 208.562 14.9509 208.562 17.741C208.634 18.6376 208.388 19.531 207.866 20.2638C207.344 20.9966 206.58 21.5216 205.709 21.7464C207.054 23.052 208.145 24.595 208.928 26.2975ZM200.557 16.0352V19.9647H202.816C204.521 19.9647 205.454 19.2741 205.454 18.0103C205.454 16.7465 204.763 16.0352 202.691 16.0352H200.557Z" fill="#2D3955"/>
<path d="M222.07 13.6603C222.221 15.1037 221.807 16.036 219.929 16.036H217.284V26.395C217.288 26.4359 217.283 26.4774 217.269 26.5162C217.256 26.5551 217.233 26.5903 217.204 26.6195C217.175 26.6486 217.14 26.6709 217.101 26.6846C217.062 26.6983 217.021 26.7032 216.98 26.6988H214.459C214.418 26.7032 214.377 26.6983 214.338 26.6846C214.299 26.6709 214.264 26.6486 214.235 26.6195C214.205 26.5903 214.183 26.5551 214.169 26.5162C214.156 26.4774 214.151 26.4359 214.155 26.395V16.036H210.067C210.026 16.0392 209.986 16.0335 209.948 16.0193C209.91 16.0051 209.875 15.9827 209.847 15.9537C209.819 15.9247 209.797 15.8898 209.784 15.8515C209.77 15.8132 209.766 15.7724 209.77 15.7321V13.6603C209.766 13.62 209.77 13.5792 209.784 13.5409C209.797 13.5026 209.819 13.4677 209.847 13.4387C209.875 13.4097 209.91 13.3873 209.948 13.3731C209.986 13.3589 210.026 13.3532 210.067 13.3564H221.738C221.781 13.3502 221.824 13.3536 221.865 13.3662C221.906 13.3789 221.944 13.4005 221.976 13.4296C222.008 13.4587 222.033 13.4945 222.049 13.5344C222.065 13.5743 222.072 13.6173 222.07 13.6603Z" fill="#2D3955"/>
<path d="M223.478 25.945C223.409 25.9185 223.351 25.8672 223.317 25.801C223.282 25.7348 223.273 25.6582 223.292 25.5859L223.651 23.0376C223.686 22.7959 223.837 22.7337 224.031 22.8718C225.265 23.6713 226.704 24.098 228.174 24.1011C229.908 24.1011 230.723 23.666 230.723 22.9478C230.723 22.2296 230.288 21.9395 229.342 21.6564L227.27 20.9658C225.239 20.3166 223.416 19.2738 223.416 16.8981C223.416 14.5225 225.405 13.0653 228.582 13.0653C230.133 13.0512 231.676 13.2843 233.154 13.7559C233.192 13.767 233.228 13.7857 233.26 13.8108C233.291 13.836 233.317 13.8672 233.337 13.9025C233.356 13.9378 233.368 13.9766 233.372 14.0167C233.376 14.0567 233.372 14.0972 233.361 14.1357L233.23 14.8263C233.204 15.0353 233.134 15.2366 233.027 15.4176C232.919 15.5986 232.775 15.7553 232.604 15.8779C232.432 16.0005 232.238 16.0863 232.032 16.13C231.826 16.1736 231.613 16.1742 231.406 16.1316C230.425 15.9087 229.427 15.7678 228.423 15.7103C227.249 15.7103 226.565 16.0901 226.565 16.8498C226.565 17.6095 227.076 17.9133 228.637 18.3898L230.018 18.8042C232.636 19.626 233.893 20.6274 233.893 22.7751C233.893 25.2613 232.104 26.9187 227.829 26.9187C226.327 26.9005 224.845 26.5688 223.478 25.945Z" fill="#2D3955"/>
</svg>