<svg xmlns:xlink="http://www.w3.org/1999/xlink" xmlns="http://www.w3.org/2000/svg" width="107" height="40" viewBox="0 0 107 40" fill="none">
<path d="M20.7761 12.6999C20.7899 12.7482 20.8313 12.7689 20.8727 12.7758C20.9142 12.7758 20.9556 12.7482 20.9694 12.6999C20.9694 12.6999 22.0744 9.60604 22.3022 8.75662C22.3022 8.75662 22.3161 8.3768 22.2401 7.49976C21.8948 3.57033 20.9763 0.0897768 20.9763 0.0897768C20.9556 0.0207183 20.9211 0 20.8796 0C20.8313 0 20.7968 0.0207183 20.783 0.0897768C20.783 0.0897768 19.8714 3.56342 19.5192 7.49976C19.4432 8.38371 19.457 8.75662 19.457 8.75662C19.678 9.60604 20.7761 12.6999 20.7761 12.6999Z" fill="#1C355E"/>
<path d="M18.1446 17.2924C16.6253 18.8117 16.6253 21.2702 18.1446 22.7964C19.6639 24.3157 22.1293 24.3157 23.6486 22.7964C25.1678 21.2771 25.1678 18.8117 23.6486 17.2924C22.1293 15.7663 19.6639 15.7732 18.1446 17.2924Z" fill="#1C355E"/>
<path d="M18.6004 10.0612L18.2551 9.00464C17.0811 9.28778 15.9623 9.75738 14.9333 10.3996L15.4444 11.3803C16.4181 10.7656 17.4816 10.3167 18.6004 10.0612Z" fill="#1C355E"/>
<path d="M26.8186 10.3996C25.7896 9.75738 24.6709 9.28778 23.4969 9.00464L23.1516 10.0612C24.2704 10.3168 25.3339 10.7656 26.3076 11.3872L26.8186 10.3996Z" fill="#1C355E"/>
<path d="M14.9266 29.6332C15.9556 30.2755 17.0744 30.7451 18.2484 31.0282L18.5936 29.9716C17.4749 29.7092 16.4114 29.2672 15.4377 28.6457L14.9266 29.6332Z" fill="#1C355E"/>
<path d="M23.145 29.9784L23.4903 31.035C24.6643 30.7518 25.7831 30.2822 26.812 29.64L26.301 28.6594C25.3273 29.274 24.2707 29.716 23.145 29.9784Z" fill="#1C355E"/>
<path d="M11.2598 25.96L12.2404 25.4489C11.6189 24.4752 11.1769 23.4117 10.9145 22.293L9.85791 22.6383C10.148 23.8123 10.6106 24.931 11.2598 25.96Z" fill="#1C355E"/>
<path d="M9.86462 17.3951L10.9212 17.7404C11.1836 16.6217 11.6256 15.5582 12.2471 14.5845L11.2665 14.0734C10.6105 15.1024 10.1478 16.2211 9.86462 17.3951Z" fill="#1C355E"/>
<path d="M31.8884 22.6383L30.8318 22.293C30.5763 23.4117 30.1274 24.4752 29.5059 25.4489L30.4865 25.96C31.1356 24.931 31.6052 23.8123 31.8884 22.6383Z" fill="#1C355E"/>
<path d="M29.5059 14.5845C30.1274 15.5582 30.5694 16.6217 30.8318 17.7404L31.8884 17.3951C31.6052 16.2211 31.1356 15.1024 30.4934 14.0734L29.5059 14.5845Z" fill="#1C355E"/>
<path d="M20.9697 27.3002C20.9559 27.2519 20.9144 27.2311 20.873 27.2242C20.8316 27.2242 20.7901 27.2519 20.7763 27.3002C20.7763 27.3002 19.6714 30.394 19.4435 31.2435C19.4435 31.2435 19.4297 31.6233 19.5056 32.5003C19.8509 36.4298 20.7694 39.9103 20.7694 39.9103C20.7901 39.9794 20.8247 40.0001 20.8661 40.0001C20.9144 40.0001 20.949 39.9794 20.9628 39.9103C20.9628 39.9103 21.8743 36.4367 22.2265 32.5003C22.3025 31.6164 22.2887 31.2435 22.2887 31.2435C22.0746 30.394 20.9697 27.3002 20.9697 27.3002Z" fill="#1C355E"/>
<path d="M9.63016 21.4276C10.4796 21.1997 13.5734 20.0947 13.5734 20.0947C13.6217 20.0809 13.6494 20.0395 13.6494 19.9981C13.6494 19.9566 13.6217 19.9152 13.5734 19.9014C13.5734 19.9014 10.4796 18.7964 9.63016 18.5685C9.63016 18.5685 9.25034 18.5547 8.37329 18.6307C4.44386 18.976 0.963312 19.8945 0.963312 19.8945C0.894253 19.9152 0.873535 19.9497 0.873535 19.9912C0.873535 20.0395 0.894253 20.074 0.963312 20.0878C0.963312 20.0878 4.43696 20.9994 8.37329 21.3516C9.25724 21.4414 9.63016 21.4276 9.63016 21.4276Z" fill="#1C355E"/>
<path d="M40.7824 19.9027C40.7824 19.9027 37.3087 18.9911 33.3724 18.6389C32.4884 18.563 32.1155 18.5768 32.1155 18.5768C31.2661 18.8047 28.1723 19.9096 28.1723 19.9096C28.1239 19.9234 28.1032 19.9649 28.0963 20.0063C28.0963 20.0477 28.1239 20.0892 28.1723 20.103C28.1723 20.103 31.2661 21.2079 32.1155 21.4358C32.1155 21.4358 32.4953 21.4496 33.3724 21.3737C37.3018 21.0284 40.7824 20.1099 40.7824 20.1099C40.8514 20.0892 40.8721 20.0546 40.8721 20.0132C40.8721 19.9511 40.8514 19.9165 40.7824 19.9027Z" fill="#1C355E"/>
<path d="M11.0731 12.1259C11.5979 12.7888 11.8051 13.0029 11.8051 13.0029C12.475 13.4449 15.6447 14.9089 15.6447 14.9089C15.6862 14.9297 15.7345 14.9227 15.7621 14.8951C15.7898 14.8675 15.8036 14.8192 15.776 14.7777C15.776 14.7777 14.305 11.6079 13.8699 10.9381C13.8699 10.9381 13.6559 10.724 12.9929 10.2061C10.0372 7.87187 8.09664 7.09842 8.09664 7.09842C8.02067 7.07079 7.99306 7.0708 7.96543 7.10532C7.9309 7.13985 7.9309 7.16057 7.95852 7.23654C7.96543 7.22963 8.73889 9.16327 11.0731 12.1259Z" fill="#1C355E"/>
<path d="M30.6724 27.879C30.1545 27.216 29.9404 27.0019 29.9404 27.0019C29.2705 26.56 26.1007 25.089 26.1007 25.089C26.0593 25.0683 26.011 25.0752 25.9833 25.1028C25.9557 25.1304 25.9419 25.1788 25.9695 25.2202C25.9695 25.2202 27.4405 28.39 27.8755 29.0599C27.8755 29.0599 28.0896 29.274 28.7526 29.7919C31.7083 32.1261 33.6488 32.8995 33.6488 32.8995C33.7248 32.9272 33.7524 32.9272 33.78 32.8926C33.8146 32.8581 33.8146 32.8374 33.787 32.7614C33.787 32.7683 33.0066 30.8347 30.6724 27.879Z" fill="#1C355E"/>
<path d="M15.762 25.1086C15.7343 25.081 15.686 25.0671 15.6445 25.0948C15.6445 25.0948 12.4748 26.5657 11.8049 27.0077C11.8049 27.0077 11.5908 27.2218 11.0729 27.8847C8.7387 30.8404 7.96524 32.781 7.96524 32.781C7.93762 32.8569 7.93761 32.8846 7.97214 32.9122C8.00667 32.9467 8.02739 32.9467 8.10336 32.9191C8.10336 32.9191 10.037 32.1456 12.9996 29.8115C13.6626 29.2935 13.8766 29.0794 13.8766 29.0794C14.3186 28.4096 15.7827 25.2398 15.7827 25.2398C15.8034 25.1845 15.7896 25.1362 15.762 25.1086Z" fill="#1C355E"/>
<path d="M25.9835 14.8903C26.0111 14.9179 26.0594 14.9317 26.1009 14.9041C26.1009 14.9041 29.2707 13.4331 29.9405 12.9912C29.9405 12.9912 30.1546 12.7771 30.6726 12.1141C33.0067 9.1584 33.7802 7.21786 33.7802 7.21786C33.8078 7.1419 33.8078 7.12118 33.7733 7.08665C33.7388 7.05212 33.718 7.05212 33.6421 7.07974C33.6421 7.07974 31.7084 7.8532 28.7458 10.1874C28.0829 10.7053 27.8688 10.9194 27.8688 10.9194C27.4268 11.5893 25.9559 14.7591 25.9559 14.7591C25.942 14.8143 25.9559 14.8626 25.9835 14.8903Z" fill="#1C355E"/>
<path d="M49.3251 20.0182C49.3251 15.9714 52.0805 13.0847 56.521 13.0847C60.9614 13.0847 63.7169 15.9714 63.7169 20.0182C63.7169 24.065 60.9614 26.9517 56.521 26.9517C52.0805 26.9517 49.3251 24.065 49.3251 20.0182ZM60.5126 20.0182C60.5126 17.2489 58.8206 15.8056 56.5279 15.8056C54.2282 15.8056 52.5432 17.2489 52.5432 20.0182C52.5432 22.7874 54.2351 24.2308 56.5279 24.2308C58.8206 24.2377 60.5126 22.7943 60.5126 20.0182Z" fill="#1C355E"/>
<path d="M76.1064 13.68V15.6344C76.1064 15.8277 75.989 15.9382 75.8025 15.9382H69.4215V19.108H74.9255C75.1119 19.108 75.2293 19.2047 75.2501 19.4119L75.2708 19.8469C75.3467 21.2488 74.6216 21.7668 73.0885 21.7668H69.4215V26.3592C69.4215 26.5456 69.3041 26.663 69.1177 26.663H66.5901C66.4037 26.663 66.2863 26.5456 66.2863 26.3592V13.68C66.2863 13.4936 66.4037 13.3762 66.5901 13.3762H75.8025C75.989 13.3762 76.1064 13.4867 76.1064 13.68Z" fill="#1C355E"/>
<path d="M77.9088 19.8883C77.9088 16.0141 80.7195 13.093 85.6019 13.093C87.2317 13.093 88.4333 13.3208 89.4209 13.6592C89.5935 13.7145 89.6488 13.8457 89.628 14.0183L89.5521 14.5846C89.3587 15.952 88.6958 16.2558 87.501 16.0694C87.0245 15.9934 86.2511 15.8967 85.4293 15.8967C82.6739 15.8967 81.12 17.4713 81.12 19.8814C81.12 22.6161 82.66 24.018 85.0909 24.018C86.7621 24.018 88.0121 23.5415 89.2275 22.7473C89.4347 22.6161 89.5866 22.7059 89.6073 22.9338L89.8145 25.4959C89.8352 25.6685 89.78 25.7583 89.6626 25.8412C88.4264 26.4834 86.9693 26.9392 85.0702 26.9392C80.5883 26.953 77.9088 24.0871 77.9088 19.8883Z" fill="#1C355E"/>
<path d="M92.2102 20.0183C92.2102 15.9714 94.9657 13.0848 99.4061 13.0848C103.847 13.0848 106.602 15.9714 106.602 20.0183C106.602 24.0651 103.847 26.9517 99.4061 26.9517C94.9657 26.9517 92.2102 24.0651 92.2102 20.0183ZM103.391 20.0183C103.391 17.249 101.699 15.8057 99.4061 15.8057C97.1134 15.8057 95.4214 17.249 95.4214 20.0183C95.4214 22.7875 97.1134 24.2308 99.4061 24.2308C101.699 24.2308 103.391 22.7944 103.391 20.0183Z" fill="#1C355E"/>
</svg>