<svg xmlns:xlink="http://www.w3.org/1999/xlink" xmlns="http://www.w3.org/2000/svg" width="288" height="50" viewBox="0 0 288 50" fill="none">
<path d="M24.9233 15.9169C24.9233 16.0034 25.0098 16.0034 25.0963 16.0034C25.1829 16.0034 25.1829 15.9169 25.1829 15.9169C25.1829 15.9169 26.5675 12.0242 26.8271 10.9861C26.8271 10.4671 26.8271 9.94804 26.7406 9.42901C26.4809 6.31484 25.8752 3.20067 25.1829 0.173009C25.1829 0 25.0963 0 25.0963 0C25.0963 0 25.0098 0 25.0098 0.0865047C24.2309 3.11417 23.7117 6.22834 23.4521 9.34251C23.3656 9.86153 23.3656 10.3806 23.3656 10.8996C23.5386 12.0242 24.9233 15.9169 24.9233 15.9169Z" fill="white"/>
<path d="M21.635 21.6256C19.7311 23.5287 19.7311 26.6428 21.635 28.5459C23.5388 30.449 26.6542 30.449 28.5581 28.5459C30.4619 26.6428 30.4619 23.5287 28.5581 21.6256C26.6542 19.7225 23.5388 19.7225 21.635 21.6256Z" fill="white"/>
<path d="M22.2404 12.6302L21.8077 11.2461C20.3366 11.5921 18.9519 12.1976 17.6539 12.9762L18.2596 14.1873C19.4712 13.4952 20.7692 12.8897 22.2404 12.6302Z" fill="white"/>
<path d="M32.5389 13.0621C31.2408 12.2836 29.8562 11.678 28.385 11.332L27.9523 12.6296C29.3369 12.9756 30.7215 13.4946 31.9331 14.2732L32.5389 13.0621Z" fill="white"/>
<path d="M17.6539 37.1105C18.9519 37.889 20.3366 38.4946 21.8077 38.8406L22.2404 37.543C20.8558 37.197 19.4712 36.678 18.2596 35.8994L17.6539 37.1105Z" fill="white"/>
<path d="M27.9523 37.543L28.385 38.8406C29.8562 38.4946 31.2408 37.889 32.5389 37.1105L31.9331 35.8994C30.635 36.678 29.3369 37.197 27.9523 37.543Z" fill="white"/>
<path d="M12.9808 32.5252L14.1923 31.9196C13.4135 30.7086 12.8942 29.411 12.5481 27.9404L11.25 28.373C11.5961 29.8435 12.2019 31.2276 12.9808 32.5252Z" fill="white"/>
<path d="M11.25 21.7997L12.5481 22.2322C12.8942 20.8481 13.4135 19.4641 14.1923 18.253L12.9808 17.6475C12.2019 18.945 11.5961 20.3291 11.25 21.7997Z" fill="white"/>
<path d="M38.8562 28.373L37.5581 27.9404C37.212 29.3245 36.6928 30.7086 35.9139 31.9196L37.1254 32.5252C37.9043 31.2276 38.5101 29.8435 38.8562 28.373Z" fill="white"/>
<path d="M35.9139 18.253C36.6928 19.4641 37.212 20.8481 37.5581 22.2322L38.8562 21.7997C38.5101 20.3291 37.9043 18.945 37.1254 17.6475L35.9139 18.253Z" fill="white"/>
<path d="M25.1825 34.1695C25.1825 34.083 25.0959 34.083 25.0094 34.083C24.9228 34.083 24.9228 34.1695 24.9228 34.1695C24.9228 34.1695 23.5382 38.0622 23.2786 39.1003C23.2786 39.6193 23.2786 40.1383 23.3651 40.6574C23.6248 43.7715 24.2305 46.8857 24.9228 49.9134C24.9228 49.9999 25.0094 49.9999 25.0094 49.9999C25.0094 49.9999 25.0959 49.9999 25.0959 49.9134C25.8748 46.8857 26.394 43.7715 26.6536 40.6574C26.7401 40.1383 26.7401 39.6193 26.7401 39.1003C26.5671 38.0622 25.1825 34.1695 25.1825 34.1695Z" fill="white"/>
<path d="M10.9904 26.8162C12.0288 26.5567 15.9231 25.1726 15.9231 25.1726C16.0096 25.1726 16.0096 25.0861 16.0096 24.9996C16.0096 24.9131 15.9231 24.9131 15.9231 24.9131C15.9231 24.9131 12.0288 23.529 10.9904 23.2695C10.4712 23.2695 9.95192 23.2695 9.43269 23.356C6.31731 23.6156 3.20192 24.2211 0.173077 24.9131C0 24.9131 0 24.9996 0 25.0861C0 25.1726 0 25.1726 0.0865384 25.1726C3.11538 25.9512 6.23077 26.4702 9.34615 26.7297C9.95192 26.8162 10.4712 26.8162 10.9904 26.8162Z" fill="white"/>
<path d="M50.0193 24.9131C46.9905 24.1346 43.8751 23.6156 40.7597 23.356C40.2405 23.2695 39.7212 23.2695 39.202 23.2695C38.1635 23.529 34.2693 24.9131 34.2693 24.9131C34.1828 24.9131 34.1828 24.9996 34.1828 25.0861C34.1828 25.1726 34.2693 25.1726 34.2693 25.1726C34.2693 25.1726 38.1635 26.5567 39.202 26.8162C39.7212 26.8162 40.2405 26.8162 40.7597 26.7297C43.8751 26.4702 46.9905 25.8647 50.0193 25.1726C50.1058 25.1726 50.1058 25.0861 50.1058 25.0861C50.1058 25.0861 50.1058 24.9131 50.0193 24.9131Z" fill="white"/>
<path d="M12.8078 15.225C13.5001 16.09 13.7597 16.3496 13.7597 16.3496C14.6251 16.8686 18.6059 18.7717 18.6059 18.7717C18.6924 18.7717 18.6924 18.7717 18.779 18.7717C18.779 18.7717 18.8655 18.6852 18.779 18.5987C18.779 18.5987 16.9616 14.6195 16.3559 13.7544C16.3559 13.7544 16.0963 13.4949 15.2309 12.8029C13.327 11.2458 11.3366 9.94821 9.08665 8.91016C9.00011 8.91016 9.00011 8.91016 8.91357 8.91016C8.82703 8.91016 8.82703 8.99666 8.91357 9.08317C9.95203 11.2458 11.2501 13.3219 12.8078 15.225Z" fill="white"/>
<path d="M37.3843 34.9481C36.692 34.083 36.4324 33.8235 36.4324 33.8235C35.567 33.3045 31.5862 31.4014 31.5862 31.4014C31.4997 31.4014 31.4131 31.4014 31.4131 31.4014C31.4131 31.4879 31.4131 31.4879 31.4131 31.5744C31.4131 31.5744 33.2304 35.5536 33.8362 36.4186C33.8362 36.4186 34.0958 36.6782 34.9612 37.3702C36.8651 38.9273 38.8554 40.2248 41.1054 41.2629C41.192 41.2629 41.192 41.2629 41.2785 41.2629C41.3651 41.2629 41.3651 41.1764 41.2785 41.0899C40.2401 38.8408 38.942 36.7647 37.3843 34.9481Z" fill="white"/>
<path d="M18.6921 31.4877C18.6921 31.4877 18.6055 31.4012 18.519 31.4877C18.519 31.4877 14.5382 33.3043 13.6728 33.9098C13.6728 33.9098 13.4132 34.1693 12.7209 35.0344C11.1632 36.9375 9.86515 38.9271 8.82669 41.1762C8.82669 41.2627 8.82669 41.2627 8.82669 41.3492C8.82669 41.4357 8.91323 41.4357 8.99976 41.3492C11.1632 40.3111 13.2401 39.0136 15.144 37.4565C16.0094 36.7644 16.269 36.5049 16.269 36.5049C16.7882 35.6399 18.6921 31.6607 18.6921 31.6607C18.6921 31.5742 18.6921 31.4877 18.6921 31.4877Z" fill="white"/>
<path d="M31.5005 18.6852C31.5005 18.6852 31.587 18.7717 31.6736 18.6852C31.6736 18.6852 35.6544 16.8686 36.5197 16.2631C36.5197 16.2631 36.7794 16.0036 37.4717 15.1385C39.0294 13.2354 40.3274 11.2458 41.3659 8.99668C41.3659 8.91017 41.3659 8.91017 41.3659 8.82367C41.3659 8.73716 41.2794 8.73716 41.1928 8.82367C39.0294 9.86172 36.9524 11.1593 35.0486 12.7164C34.1832 13.4084 33.9236 13.6679 33.9236 13.6679C33.4044 14.533 31.5005 18.5122 31.5005 18.5122C31.414 18.5122 31.414 18.5987 31.5005 18.6852Z" fill="white"/>
<path d="M70.7647 17.0422C70.6781 16.8692 70.505 16.7827 70.332 16.6962C69.207 16.5232 68.082 16.5232 66.957 16.6962C66.7839 16.6962 66.6108 16.7827 66.5243 16.9557C63.582 21.9729 61.4185 27.3362 60.0339 32.959C59.9474 33.1321 60.0339 33.3051 60.207 33.3916C60.2935 33.3916 60.2935 33.3916 60.38 33.3916H63.755C63.9281 33.3916 64.1012 33.3051 64.1877 33.0455C64.3608 32.1805 64.6204 31.402 64.88 30.5369H72.582C72.8416 31.402 73.0147 32.1805 73.2743 33.0455C73.2743 33.2186 73.4474 33.3916 73.707 33.3916H77.082C77.255 33.3916 77.4281 33.3051 77.4281 33.1321C77.4281 33.0455 77.4281 33.0455 77.4281 32.959C75.8704 27.3362 73.707 21.9729 70.7647 17.0422ZM65.832 27.3362C66.6108 25.0006 67.5627 22.665 68.6877 20.4159C69.8127 22.665 70.7647 25.0006 71.5435 27.3362H65.832Z" fill="white"/>
<path d="M87.1442 16.7822H80.1346C79.9615 16.7822 79.7885 16.8687 79.7885 17.1282V17.2147V33.1316C79.7885 33.3046 79.875 33.4776 80.1346 33.4776H80.2211H87.2308C92.7692 33.4776 96.2308 29.9309 96.2308 25.0002C96.1442 20.1559 92.7692 16.7822 87.1442 16.7822ZM87.1442 30.0174H83.6827V20.1559H87.1442C90 20.1559 92.1635 21.7995 92.1635 24.9137C92.1635 28.2873 90 30.0174 87.1442 30.0174Z" fill="white"/>
<path d="M112.413 16.7822H105.404C105.231 16.7822 105.058 16.8687 105.058 17.1282C105.058 17.1282 105.058 17.1282 105.058 17.2147V33.1316C105.058 33.3046 105.144 33.4776 105.404 33.4776C105.404 33.4776 105.404 33.4776 105.49 33.4776H108.692C108.865 33.4776 109.038 33.3911 109.038 33.1316V33.0451V28.8064H111.981C116.394 28.8064 119.51 26.6438 119.51 22.6645C119.423 18.8583 116.913 16.7822 112.413 16.7822ZM111.894 25.5192H108.865V20.1559H112.067C114.404 20.1559 115.442 21.021 115.442 22.751C115.442 24.4811 114.49 25.5192 111.894 25.5192Z" fill="white"/>
<path d="M130.76 16.4355C125.222 16.4355 121.76 20.0687 121.76 25.086C121.76 30.1033 125.222 33.7365 130.76 33.7365C136.299 33.7365 139.76 30.1033 139.76 25.086C139.76 20.0687 136.299 16.4355 130.76 16.4355ZM130.76 30.3628C127.905 30.3628 125.741 28.5462 125.741 25.086C125.741 21.6258 127.818 19.8092 130.76 19.8092C133.703 19.8092 135.78 21.6258 135.78 25.086C135.78 28.5462 133.616 30.3628 130.76 30.3628Z" fill="white"/>
<path d="M153.346 27.2493C155.596 26.6438 157.067 24.5676 156.894 22.232C156.894 18.7718 154.298 16.7822 149.711 16.7822H143.307C143.134 16.7822 142.961 16.8687 142.961 17.1282V17.2147V33.1316C142.961 33.3046 143.048 33.4776 143.307 33.4776H143.394H146.596C146.769 33.4776 146.942 33.3911 146.942 33.1316C146.942 33.1316 146.942 33.1316 146.942 33.0451V28.3739H149.971C151.355 29.7579 152.567 31.4015 153.432 33.1316C153.519 33.3046 153.692 33.3911 153.865 33.3911H157.153C157.413 33.3911 157.586 33.2181 157.413 32.9586C156.375 30.796 155.076 28.8929 153.346 27.2493ZM149.711 25.0002H146.855V20.0694H149.538C152.134 20.0694 153 20.9345 153 22.578C153 24.1351 151.875 25.0002 149.711 25.0002Z" fill="white"/>
<path d="M173.942 16.7822H159.317C159.144 16.7822 158.971 16.8687 158.971 17.1282V17.2147V19.8099C158.971 19.9829 159.058 20.1559 159.317 20.1559H159.404H164.51V33.1316C164.51 33.3046 164.596 33.4776 164.856 33.4776C164.856 33.4776 164.856 33.4776 164.942 33.4776H168.144C168.317 33.4776 168.49 33.3911 168.49 33.1316V33.0451V20.0694H171.779C174.115 20.0694 174.635 18.9448 174.462 17.1282C174.289 16.8687 174.202 16.7822 173.942 16.7822Z" fill="white"/>
<path d="M184.241 23.5289L182.51 23.0099C180.519 22.4044 179.914 21.9718 179.914 21.1068C179.914 20.1552 180.779 19.6362 182.25 19.6362C183.548 19.7227 184.76 19.8957 185.971 20.1552C187.01 20.4148 188.048 19.7227 188.308 18.7712C188.308 18.6847 188.308 18.6847 188.308 18.5982L188.481 17.7331C188.568 17.5601 188.394 17.3006 188.221 17.3006C186.404 16.6951 184.414 16.4355 182.51 16.4355C178.529 16.4355 176.019 18.4252 176.019 21.2798C176.019 24.221 178.269 25.5185 180.866 26.3836L183.462 27.2486C184.587 27.5946 185.193 27.9407 185.193 28.8922C185.193 29.7573 184.154 30.3628 181.991 30.3628C180.173 30.3628 178.356 29.8438 176.798 28.8057C176.539 28.6327 176.366 28.7192 176.366 28.9787L175.933 32.1794C175.846 32.3524 176.02 32.5254 176.193 32.6119C177.837 33.3905 179.741 33.823 181.558 33.9095C186.923 33.9095 189.173 31.8334 189.173 28.7192C189.087 25.8646 187.529 24.567 184.241 23.5289Z" fill="white"/>
<path d="M212.798 23.7886H206.567C206.394 23.7886 206.221 23.8751 206.221 24.1347C206.221 24.1347 206.221 24.1347 206.221 24.2212V26.9028C206.221 27.0758 206.308 27.2488 206.567 27.2488C206.567 27.2488 206.567 27.2488 206.654 27.2488H209.769V29.3249C208.644 29.9305 207.433 30.19 206.135 30.19C203.279 30.19 201.115 28.4599 201.115 25.1727C201.115 21.799 203.452 19.9824 206.481 19.9824C207.346 19.9824 208.211 20.0689 209.077 20.1554C210.548 20.415 211.413 19.9824 211.673 18.3389L211.76 17.6468C211.846 17.4738 211.673 17.2143 211.5 17.2143C209.942 16.6953 208.298 16.4357 206.74 16.5223C200.856 16.5223 197.135 20.1554 197.135 25.1727C197.135 30.19 200.596 33.8232 206.135 33.8232C208.558 33.8232 210.981 33.0446 212.971 31.5741C213.144 31.4876 213.144 31.3146 213.144 31.055V24.1347C213.231 23.9617 213.144 23.7886 212.798 23.7886C212.885 23.7886 212.885 23.7886 212.798 23.7886Z" fill="white"/>
<path d="M227.336 27.2493C229.586 26.6438 231.058 24.5676 230.885 22.232C230.885 18.7718 228.288 16.7822 223.702 16.7822H217.298C217.125 16.7822 216.952 16.8687 216.952 17.1282V17.2147V33.1316C216.952 33.3046 217.038 33.4776 217.298 33.4776H217.385H220.586C220.76 33.4776 220.933 33.3911 220.933 33.1316C220.933 33.1316 220.933 33.1316 220.933 33.0451V28.3739H223.961C225.346 29.7579 226.558 31.4015 227.423 33.1316C227.51 33.3046 227.683 33.3911 227.856 33.3911H231.144C231.404 33.3911 231.577 33.2181 231.404 32.9586C230.365 30.796 228.981 28.8929 227.336 27.2493ZM223.702 25.0002H220.846V20.0694H223.529C226.125 20.0694 226.99 20.9345 226.99 22.578C226.99 24.1351 225.779 25.0002 223.702 25.0002Z" fill="white"/>
<path d="M242.308 16.4355C236.769 16.4355 233.308 20.0687 233.308 25.086C233.308 30.1033 236.769 33.7365 242.308 33.7365C247.846 33.7365 251.308 30.1033 251.308 25.086C251.308 20.0687 247.933 16.4355 242.308 16.4355ZM242.308 30.3628C239.452 30.3628 237.289 28.5462 237.289 25.086C237.289 21.6258 239.366 19.8092 242.308 19.8092C245.25 19.8092 247.327 21.6258 247.327 25.086C247.327 28.5462 245.25 30.3628 242.308 30.3628Z" fill="white"/>
<path d="M269.394 16.7824H266.279C266.106 16.7824 265.932 16.8689 265.932 17.1284V17.2149V25.9519C265.932 28.893 264.634 30.2771 262.211 30.2771C259.702 30.2771 258.49 28.72 258.49 25.9519V19.2045C258.49 17.3014 257.625 16.6094 256.067 16.6094C255.721 16.6094 255.288 16.6094 254.942 16.6959C254.769 16.6959 254.596 16.8689 254.596 17.0419V26.0384C254.596 31.1422 257.452 33.7373 262.298 33.7373C267.144 33.7373 270 31.1422 270 26.0384V17.1284C269.827 16.9554 269.654 16.7824 269.394 16.7824C269.481 16.7824 269.394 16.7824 269.394 16.7824Z" fill="white"/>
<path d="M280.904 16.7822H273.894C273.721 16.7822 273.548 16.8687 273.548 17.1282V17.2147V33.1316C273.548 33.3046 273.635 33.4776 273.894 33.4776H273.981H277.183C277.356 33.4776 277.529 33.3911 277.529 33.1316C277.529 33.1316 277.529 33.1316 277.529 33.0451V28.8064H280.471C284.885 28.8064 288 26.6438 288 22.6645C287.913 18.8583 285.404 16.7822 280.904 16.7822ZM280.385 25.5192H277.356V20.1559H280.558C282.894 20.1559 283.933 21.021 283.933 22.751C283.933 24.4811 282.981 25.5192 280.385 25.5192Z" fill="white"/>
</svg>