<svg xmlns:xlink="http://www.w3.org/1999/xlink" xmlns="http://www.w3.org/2000/svg" width="221" height="67" viewBox="0 0 221 67" fill="none">
<path d="M166.057 38.4595L220.035 17.9764L210.812 50.7494L166.057 38.4595Z" fill="#002A3B"/>
<path d="M185.972 4.17121H192.247L191.335 0.998108L185.972 4.17121Z" fill="#002A3B"/>
<path d="M207.354 7.71333L185.971 7.03845L208.502 12.3309L207.354 7.71333Z" fill="#D50032"/>
<path d="M185.96 15.8455L191.087 24.015L165.536 35.7839L185.96 15.8455Z" fill="#009FDF"/>
<path d="M184.006 7.71362L168.211 27.8652L185.154 11.7037L184.006 7.71362Z" fill="#F9BE48"/>
<path d="M3.70568 43.1591L0.912598 50.6771H2.32078L2.94922 48.9082H6.06817L6.70825 50.6771H8.1048L5.32335 43.1591H3.70568ZM3.39146 47.6513L4.55525 44.5323L5.71903 47.6513H3.39146Z" fill="#002A3B"/>
<path d="M13.3749 46.6271C13.6912 46.502 13.9619 46.2835 14.1511 46.0008C14.3402 45.7181 14.4389 45.3845 14.4339 45.0444C14.4339 43.9853 13.5844 43.1591 11.7107 43.1591H9.12708V50.6771H12.0831C13.4564 50.6771 14.818 50.0487 14.818 48.4659C14.8173 48.0423 14.6748 47.6311 14.4133 47.2979C14.1518 46.9646 13.7862 46.7285 13.3749 46.6271ZM10.4654 44.3927H11.6292C12.6417 44.3927 13.049 44.7534 13.049 45.2771C13.049 45.8009 12.6068 46.1849 11.6292 46.1849H10.4654V44.3927ZM11.8969 49.4319H10.4654V47.4418H11.862C12.8396 47.4418 13.4331 47.6513 13.4331 48.4426C13.4331 49.234 12.9443 49.4319 11.8969 49.4319Z" fill="#002A3B"/>
<path d="M21.2423 47.4185C21.2423 48.8034 20.7419 49.525 19.3453 49.525C17.9488 49.525 17.4483 48.8034 17.4483 47.4185V43.1591H16.11V47.7327C16.11 48.5908 16.4508 49.4137 17.0576 50.0205C17.6643 50.6272 18.4872 50.9681 19.3453 50.9681C20.2034 50.9681 21.0263 50.6272 21.633 50.0205C22.2398 49.4137 22.5806 48.5908 22.5806 47.7327V43.1591H21.2423V47.4185Z" fill="#002A3B"/>
<path d="M29.0989 43.1591H27.1205V50.6771H29.1571C31.6825 50.6771 33.4748 49.3039 33.4748 46.8715C33.4748 44.4392 31.6127 43.1591 29.0989 43.1591ZM29.0989 49.4319H28.4821V44.3927H29.1455C30.9028 44.3927 32.0899 45.1259 32.0899 46.8715C32.0899 48.6172 30.9261 49.4319 29.0989 49.4319Z" fill="#002A3B"/>
<path d="M39.7588 46.1863H36.1511V43.1488H34.8127V50.6785H36.1511V47.4548H39.7588V50.6785H41.0972V43.1488H39.7588V46.1863Z" fill="#002A3B"/>
<path d="M44.8107 43.1591L42.0293 50.6771H43.4258L44.0659 48.9082H47.1732L47.8133 50.6771H49.2215L46.4284 43.1591H44.8107ZM44.5082 47.6513L45.672 44.5323L46.7775 47.6513H44.5082Z" fill="#002A3B"/>
<path d="M54.4919 46.6271C54.807 46.5015 55.0761 46.2826 55.2633 45.9997C55.4505 45.7168 55.5468 45.3835 55.5393 45.0444C55.5393 43.9853 54.7014 43.1591 52.8277 43.1591H50.2324V50.6771H53.1419C54.5152 50.6771 55.8884 50.0487 55.8884 48.4659C55.8877 48.0423 55.7453 47.6311 55.4837 47.2979C55.2222 46.9646 54.8566 46.7285 54.4453 46.6271H54.4919ZM51.5242 44.3927H52.688C53.7005 44.3927 54.0962 44.7534 54.0962 45.2771C54.0962 45.8009 53.6656 46.1849 52.688 46.1849H51.5242V44.3927ZM52.9673 49.4319H51.5242V47.4418H52.9208C53.91 47.4418 54.5035 47.6513 54.5035 48.4426C54.5035 49.234 54.0147 49.4319 52.9673 49.4319Z" fill="#002A3B"/>
<path d="M58.6589 43.1488H57.3206V50.6785H58.6589V43.1488Z" fill="#002A3B"/>
<path d="M66.7361 44.291C67.4165 44.2893 68.0831 44.4832 68.6564 44.8496L69.1685 43.6858C68.4094 43.2561 67.5501 43.0353 66.678 43.0458C65.647 43.0458 64.6584 43.4553 63.9294 44.1843C63.2004 44.9132 62.7909 45.9019 62.7909 46.9328C62.7909 47.9637 63.2004 48.9524 63.9294 49.6814C64.6584 50.4103 65.647 50.8199 66.678 50.8199C67.5501 50.8304 68.4094 50.6095 69.1685 50.1798L68.6564 49.016C68.0831 49.3824 67.4165 49.5763 66.7361 49.5746C66.0417 49.5746 65.3756 49.2987 64.8846 48.8077C64.3935 48.3166 64.1176 47.6506 64.1176 46.9561C64.1176 46.2616 64.3935 45.5956 64.8846 45.1045C65.3756 44.6135 66.0417 44.3376 66.7361 44.3376" fill="#002A3B"/>
<path d="M82.7489 47.4185C82.7489 48.8034 82.2484 49.525 80.8519 49.525C79.4554 49.525 78.9666 48.8034 78.9666 47.4185V43.1591H77.5817V47.7327C77.6311 48.5557 77.9929 49.3288 78.5931 49.8941C79.1933 50.4593 79.9867 50.7741 80.8112 50.7741C81.6357 50.7741 82.429 50.4593 83.0293 49.8941C83.6295 49.3288 83.9913 48.5557 84.0407 47.7327V43.1591H82.7023L82.7489 47.4185Z" fill="#002A3B"/>
<path d="M87.1832 43.1488H85.8448V50.6785H87.1832V43.1488Z" fill="#002A3B"/>
<path d="M91.9548 46.2328L91.3263 46.0815C90.4884 45.8604 90.1625 45.5927 90.1625 45.1039C90.1625 44.6151 90.791 44.2892 91.5009 44.2892C92.2456 44.2952 92.9758 44.4958 93.619 44.8711L94.1427 43.7073C93.3367 43.2648 92.4321 43.0327 91.5125 43.0323C89.8832 43.0323 88.7776 43.8586 88.7776 45.0923C88.7776 46.3259 89.4875 47.0009 90.8492 47.3384L91.4776 47.4897C92.3388 47.6991 92.9091 47.9202 92.9091 48.5487C92.9091 49.1771 92.1992 49.5379 91.3031 49.5379C90.5291 49.5308 89.7691 49.3308 89.0919 48.956L88.5565 50.1198C89.4118 50.5762 90.3687 50.8084 91.338 50.7948C93.0371 50.7948 94.3173 49.9918 94.3173 48.5487C94.3173 47.1056 93.2582 46.547 91.9897 46.2211" fill="#002A3B"/>
<path d="M97.052 47.4534H100.194V46.1849H97.052V44.3927H100.52V43.1591H95.7136V50.6771H100.543V49.4319H97.052V47.4534Z" fill="#002A3B"/>
<path d="M104.106 44.3927H106.608V50.6771H107.958V44.3927H110.46V43.1591H104.106V44.3927Z" fill="#002A3B"/>
<path d="M112.904 47.4534H116.046V46.1849H112.904V44.3927H116.384V43.1591H111.565V50.6771H116.395V49.4319H112.904V47.4534Z" fill="#002A3B"/>
<path d="M123.493 45.4321C123.493 44.2683 122.702 43.1045 120.747 43.1045H117.919V50.6226H119.257V47.6549H120.642L122.481 50.6226H123.982L122.015 47.4687C122.47 47.3433 122.868 47.0683 123.147 46.6882C123.426 46.308 123.568 45.845 123.551 45.3739L123.493 45.4321ZM120.502 46.5377H119.338V44.3963H120.502C121.608 44.3963 122.131 44.7105 122.131 45.4553C122.131 46.2002 121.48 46.5493 120.502 46.5493" fill="#002A3B"/>
<path d="M129.08 49.4914L127.439 43.1488H125.169V50.6785H126.508V44.2544L128.253 50.6785H129.918L131.652 44.2544V50.6785H132.99V43.1488H130.744L129.08 49.4914Z" fill="#002A3B"/>
<path d="M136.179 43.1488H134.84V50.6785H136.179V43.1488Z" fill="#002A3B"/>
<path d="M142.834 49.4202L140.088 43.1591H138.028V50.6771H139.343V44.4043L142.09 50.6771H144.138V43.1591H142.834V49.4202Z" fill="#002A3B"/>
<path d="M147.851 43.1591L145.081 50.6771H146.478L147.106 48.9082H150.225L150.865 50.6771H152.273L149.48 43.1591H147.851ZM147.549 47.6513L148.654 44.5323L149.818 47.6513H147.549Z" fill="#002A3B"/>
<path d="M154.625 49.4319V43.1591H153.275V50.6771H158.082V49.4319H154.625Z" fill="#002A3B"/>
<path d="M76.0345 45.4321C76.0345 44.2683 75.2431 43.1045 73.2879 43.1045H70.4716V50.6226H71.7634V47.6549H73.0901L74.9172 50.6226H76.4301L74.4634 47.4687C74.9156 47.3411 75.3118 47.0652 75.5883 46.6852C75.8648 46.3053 76.0056 45.8434 75.9879 45.3739L76.0345 45.4321ZM72.9504 46.5377H71.7866V44.3963H72.9504C74.0444 44.3963 74.5797 44.7105 74.5797 45.4553C74.5797 46.2002 73.928 46.5493 72.9504 46.5493" fill="#002A3B"/>
<path d="M106.863 30.1939C106.961 30.2036 107.06 30.1928 107.153 30.1623C107.247 30.1317 107.333 30.082 107.406 30.0163C107.48 29.9506 107.539 29.8705 107.579 29.7808C107.62 29.6912 107.641 29.5941 107.643 29.4957C107.659 29.339 107.628 29.181 107.553 29.0426C107.478 28.9041 107.362 28.7916 107.222 28.7199C107.082 28.6482 106.923 28.6207 106.767 28.6409C106.611 28.6612 106.464 28.7283 106.347 28.8333C106.23 28.9384 106.147 29.0766 106.11 29.2296C106.072 29.3826 106.082 29.5434 106.138 29.6907C106.194 29.8379 106.293 29.9649 106.422 30.0547C106.552 30.1445 106.705 30.1931 106.863 30.1939Z" fill="#002A3B"/>
<path d="M52.6648 30.4303C52.7648 30.4432 52.8665 30.4346 52.963 30.4051C53.0594 30.3756 53.1485 30.3259 53.2243 30.2593C53.3 30.1927 53.3607 30.1107 53.4023 30.0187C53.4439 29.9268 53.4654 29.8271 53.4654 29.7262C53.4654 29.6253 53.4439 29.5256 53.4023 29.4337C53.3607 29.3418 53.3 29.2597 53.2243 29.1931C53.1485 29.1265 53.0594 29.0768 52.963 29.0473C52.8665 29.0178 52.7648 29.0092 52.6648 29.0221C52.5672 29.0142 52.469 29.0262 52.3762 29.0574C52.2833 29.0886 52.1979 29.1384 52.1249 29.2038C52.052 29.2691 51.9931 29.3486 51.9518 29.4374C51.9106 29.5262 51.8879 29.6225 51.885 29.7204C51.8845 29.8198 51.9049 29.9182 51.9449 30.0092C51.9849 30.1002 52.0435 30.1818 52.117 30.2488C52.1905 30.3157 52.2772 30.3664 52.3716 30.3977C52.466 30.429 52.5658 30.4401 52.6648 30.4303Z" fill="#002A3B"/>
<path d="M132.082 29.4164C132.176 29.4263 132.272 29.4161 132.362 29.3866C132.452 29.3571 132.535 29.3089 132.605 29.2452C132.675 29.1815 132.731 29.1038 132.77 29.017C132.808 28.9302 132.827 28.8363 132.827 28.7414C132.804 28.5614 132.717 28.3958 132.58 28.2758C132.444 28.1558 132.269 28.0895 132.088 28.0895C131.906 28.0895 131.731 28.1558 131.595 28.2758C131.459 28.3958 131.371 28.5614 131.349 28.7414C131.348 28.8352 131.368 28.928 131.405 29.0139C131.443 29.0999 131.498 29.177 131.567 29.2405C131.636 29.3041 131.717 29.3525 131.806 29.3828C131.894 29.4131 131.989 29.4245 132.082 29.4164Z" fill="#002A3B"/>
<path d="M4.26341 34.5952H3.69316C3.5041 34.6127 3.31344 34.5915 3.13285 34.5329C2.95226 34.4743 2.78552 34.3794 2.64283 34.2541C2.50013 34.1289 2.38449 33.9758 2.30295 33.8044C2.22141 33.6329 2.17569 33.4466 2.16859 33.2568C2.18469 33.064 2.23879 32.8763 2.32778 32.7044C2.41677 32.5326 2.5389 32.3801 2.68711 32.2557C2.83533 32.1313 3.00669 32.0374 3.19134 31.9795C3.37599 31.9217 3.57027 31.9009 3.76298 31.9185H4.26341V34.5952ZM15.4823 30.4172C14.7484 30.4216 14.0291 30.6225 13.3991 30.9991L13.9461 32.1629C14.3483 31.882 14.8289 31.7354 15.3194 31.7439C15.7388 31.7139 16.1542 31.8427 16.4832 32.1047C16.637 32.2559 16.7579 32.4374 16.838 32.6378C16.9181 32.8381 16.9558 33.0529 16.9487 33.2685C16.9397 33.7266 16.8851 34.1828 16.7858 34.6301H11.2461V30.6267H9.96597V34.6301H5.61341V30.1495H4.26341V30.6267H4.0772C2.05221 30.6267 0.853516 31.7905 0.853516 33.2918C0.853516 35.084 2.2035 35.9568 4.0772 35.9568H17.7866C18.0609 35.1102 18.2099 34.228 18.2288 33.3383C18.2425 32.9344 18.1755 32.5318 18.0316 32.1541C17.8877 31.7764 17.6699 31.4312 17.3909 31.1388C17.1408 30.8986 16.8451 30.7111 16.5213 30.5872C16.1975 30.4632 15.8521 30.4054 15.5056 30.4172" fill="#002A3B"/>
<path d="M23.7915 36.5734C23.6969 36.567 23.602 36.58 23.5126 36.6115C23.4233 36.643 23.3412 36.6924 23.2715 36.7567C23.2019 36.8209 23.146 36.8987 23.1073 36.9852C23.0686 37.0717 23.048 37.1652 23.0466 37.26C23.0693 37.44 23.1568 37.6056 23.2929 37.7256C23.429 37.8457 23.6042 37.9119 23.7856 37.9119C23.9671 37.9119 24.1423 37.8457 24.2784 37.7256C24.4144 37.6056 24.502 37.44 24.5246 37.26C24.5249 37.1658 24.5057 37.0725 24.4683 36.986C24.4309 36.8995 24.3761 36.8216 24.3074 36.7572C24.2386 36.6928 24.1573 36.6433 24.0685 36.6116C23.9798 36.58 23.8855 36.567 23.7915 36.5734Z" fill="#002A3B"/>
<path d="M11.5719 36.5737C11.4779 36.5673 11.3836 36.5803 11.2949 36.612C11.2061 36.6436 11.1248 36.6932 11.056 36.7576C10.9873 36.822 10.9325 36.8999 10.8951 36.9863C10.8577 37.0728 10.8385 37.1661 10.8388 37.2603C10.8382 37.3536 10.8574 37.446 10.895 37.5314C10.9326 37.6168 10.9878 37.6933 11.057 37.7559C11.1262 37.8185 11.2079 37.8658 11.2966 37.8947C11.3853 37.9237 11.4791 37.9335 11.5719 37.9237C11.6653 37.9334 11.7596 37.9235 11.849 37.8947C11.9383 37.8659 12.0207 37.8188 12.0907 37.7564C12.1608 37.694 12.2171 37.6176 12.2561 37.5322C12.295 37.4468 12.3156 37.3542 12.3168 37.2603C12.3171 37.165 12.2976 37.0707 12.2595 36.9834C12.2214 36.8961 12.1656 36.8176 12.0955 36.753C12.0255 36.6884 11.9427 36.6391 11.8526 36.6083C11.7625 36.5774 11.6669 36.5656 11.5719 36.5737Z" fill="#002A3B"/>
<path d="M9.52384 36.5734C9.42983 36.567 9.33552 36.58 9.24676 36.6116C9.15801 36.6433 9.07671 36.6928 9.00794 36.7572C8.93916 36.8216 8.88439 36.8995 8.84701 36.986C8.80963 37.0725 8.79044 37.1658 8.79066 37.26C8.79014 37.3533 8.80932 37.4457 8.84693 37.5311C8.88455 37.6165 8.93975 37.693 9.00895 37.7556C9.07815 37.8182 9.15977 37.8655 9.2485 37.8944C9.33722 37.9233 9.43105 37.9332 9.52384 37.9233C9.6172 37.9331 9.71156 37.9232 9.80089 37.8944C9.89022 37.8656 9.97256 37.8185 10.0427 37.756C10.1127 37.6936 10.169 37.6173 10.208 37.5318C10.2469 37.4464 10.2676 37.3538 10.2687 37.26C10.2673 37.1652 10.2467 37.0717 10.208 36.9852C10.1693 36.8987 10.1134 36.8209 10.0438 36.7567C9.97408 36.6924 9.89204 36.643 9.80266 36.6115C9.71328 36.58 9.61841 36.567 9.52384 36.5734Z" fill="#002A3B"/>
<path d="M4.82206 29.4164C4.91639 29.4263 5.01172 29.4161 5.10186 29.3866C5.19199 29.3571 5.27489 29.3089 5.34517 29.2452C5.41544 29.1815 5.4715 29.1038 5.5097 29.017C5.54791 28.9302 5.56739 28.8363 5.56689 28.7414C5.54425 28.5614 5.45667 28.3958 5.3206 28.2758C5.18453 28.1558 5.00933 28.0895 4.82788 28.0895C4.64643 28.0895 4.47123 28.1558 4.33516 28.2758C4.19909 28.3958 4.11151 28.5614 4.08887 28.7414C4.08852 28.8352 4.10771 28.928 4.14521 29.0139C4.18271 29.0999 4.2377 29.177 4.30668 29.2405C4.37566 29.3041 4.45711 29.3525 4.54585 29.3828C4.63458 29.4131 4.72865 29.4245 4.82206 29.4164Z" fill="#002A3B"/>
<path d="M130.034 29.4164C130.128 29.4263 130.223 29.4161 130.314 29.3866C130.404 29.3571 130.487 29.3089 130.557 29.2452C130.627 29.1815 130.683 29.1038 130.721 29.017C130.76 28.9302 130.779 28.8363 130.779 28.7414C130.756 28.5614 130.668 28.3958 130.532 28.2758C130.396 28.1558 130.221 28.0895 130.04 28.0895C129.858 28.0895 129.683 28.1558 129.547 28.2758C129.411 28.3958 129.323 28.5614 129.301 28.7414C129.3 28.8352 129.319 28.928 129.357 29.0139C129.394 29.0999 129.449 29.177 129.518 29.2405C129.587 29.3041 129.669 29.3525 129.758 29.3828C129.846 29.4131 129.94 29.4245 130.034 29.4164Z" fill="#002A3B"/>
<path d="M59.6247 29.7888C59.7248 29.8016 59.8264 29.7931 59.9229 29.7636C60.0194 29.7341 60.1085 29.6844 60.1842 29.6178C60.26 29.5511 60.3207 29.4691 60.3623 29.3772C60.4038 29.2853 60.4253 29.1855 60.4253 29.0847C60.4253 28.9838 60.4038 28.884 60.3623 28.7921C60.3207 28.7002 60.26 28.6182 60.1842 28.5516C60.1085 28.485 60.0194 28.4352 59.9229 28.4058C59.8264 28.3763 59.7248 28.3677 59.6247 28.3806C59.5247 28.3677 59.423 28.3763 59.3265 28.4058C59.23 28.4352 59.1409 28.485 59.0652 28.5516C58.9894 28.6182 58.9287 28.7002 58.8872 28.7921C58.8456 28.884 58.8241 28.9838 58.8241 29.0847C58.8241 29.1855 58.8456 29.2853 58.8872 29.3772C58.9287 29.4691 58.9894 29.5511 59.0652 29.6178C59.1409 29.6844 59.23 29.7341 59.3265 29.7636C59.423 29.7931 59.5247 29.8016 59.6247 29.7888Z" fill="#002A3B"/>
<path d="M2.7736 29.4164C2.86701 29.4245 2.96108 29.413 3.04981 29.3828C3.13854 29.3525 3.21999 29.304 3.28897 29.2405C3.35795 29.177 3.41295 29.0999 3.45045 29.0139C3.48795 28.928 3.50713 28.8352 3.50678 28.7414C3.50678 28.547 3.42954 28.3605 3.29204 28.223C3.15454 28.0855 2.96805 28.0082 2.7736 28.0082C2.57915 28.0082 2.39266 28.0855 2.25516 28.223C2.11766 28.3605 2.04041 28.547 2.04041 28.7414C2.04006 28.8352 2.05926 28.928 2.09676 29.0139C2.13426 29.0999 2.18924 29.177 2.25822 29.2405C2.3272 29.304 2.40865 29.3525 2.49738 29.3828C2.58612 29.413 2.68019 29.4245 2.7736 29.4164Z" fill="#002A3B"/>
<path d="M88.4168 37.7836C88.3234 37.7756 88.2293 37.787 88.1406 37.8173C88.0518 37.8476 87.9704 37.896 87.9014 37.9595C87.8324 38.023 87.7774 38.1002 87.7399 38.1862C87.7024 38.2721 87.6832 38.3649 87.6836 38.4586C87.6832 38.5524 87.7024 38.6452 87.7399 38.7311C87.7774 38.8171 87.8324 38.8942 87.9014 38.9577C87.9704 39.0212 88.0518 39.0697 88.1406 39.1C88.2293 39.1303 88.3234 39.1417 88.4168 39.1336C88.5111 39.1434 88.6065 39.1333 88.6966 39.1038C88.7867 39.0743 88.8696 39.0261 88.9399 38.9624C89.0102 38.8987 89.0662 38.821 89.1044 38.7342C89.1427 38.6474 89.1621 38.5535 89.1616 38.4586C89.1604 38.3643 89.1397 38.2713 89.1009 38.1854C89.0621 38.0994 89.006 38.0223 88.9361 37.959C88.8663 37.8957 88.7841 37.8474 88.6947 37.8173C88.6054 37.7871 88.5108 37.7756 88.4168 37.7836Z" fill="#002A3B"/>
<path d="M120.188 36.5151C120.091 36.5087 119.993 36.5223 119.901 36.555C119.808 36.5877 119.724 36.6388 119.652 36.7052C119.58 36.7716 119.522 36.8519 119.483 36.9413C119.443 37.0306 119.422 37.1271 119.42 37.225C119.443 37.4139 119.535 37.5878 119.677 37.7139C119.82 37.84 120.004 37.9096 120.194 37.9096C120.384 37.9096 120.568 37.84 120.711 37.7139C120.853 37.5878 120.945 37.4139 120.968 37.225C120.967 37.1261 120.945 37.0285 120.905 36.9383C120.864 36.8482 120.805 36.7673 120.732 36.7007C120.659 36.6341 120.573 36.5833 120.48 36.5514C120.386 36.5194 120.287 36.5071 120.188 36.5151Z" fill="#002A3B"/>
<path d="M114.648 34.5971H114.09C113.898 34.6219 113.703 34.6055 113.518 34.5491C113.332 34.4926 113.162 34.3973 113.016 34.2695C112.871 34.1418 112.754 33.9845 112.675 33.8082C112.595 33.6319 112.553 33.4406 112.553 33.2471C112.583 32.8683 112.761 32.5164 113.049 32.268C113.336 32.0196 113.71 31.8947 114.09 31.9204H114.648V34.5971ZM120.84 30.5937H119.478V34.5971H115.987V30.5937H114.474C112.588 30.5937 111.238 31.5946 111.238 33.2471C111.238 35.1557 112.67 35.9238 114.474 35.9238H114.625C114.543 36.5756 114.171 36.6687 113.461 36.6687C112.99 36.6653 112.523 36.5868 112.076 36.4359L112.169 37.7743C112.617 37.9161 113.084 37.9906 113.554 37.9954C115.253 37.9954 115.882 37.1574 115.963 35.9238H120.863L120.84 30.5937Z" fill="#002A3B"/>
<path d="M124.099 29.3931H122.772V35.922H124.099V29.3931Z" fill="#002A3B"/>
<path d="M108.911 34.5952H104.826V32.384H107.841C107.991 32.3799 108.141 32.4103 108.278 32.4728C108.415 32.5353 108.536 32.6284 108.632 32.7448C108.82 32.9959 108.914 33.3045 108.9 33.6177L108.911 34.5952ZM107.747 31.1039H104.861V28.2759H103.546V34.6302H100.113V30.6267H98.7863V34.6302H95.0389V30.6267H93.2466C92.6068 30.592 91.9732 30.7678 91.4428 31.1272C91.1535 31.3712 90.9282 31.6822 90.7862 32.033C90.6442 32.3838 90.59 32.764 90.6281 33.1405V35.8056H88.7893C88.1717 35.8165 87.5632 35.6553 87.032 35.3401L86.5083 36.5038C87.3213 36.9883 88.2649 37.2079 89.2083 37.1323H91.9432V33.059C91.9196 32.9008 91.9335 32.7392 91.9836 32.5872C92.0338 32.4353 92.1188 32.2972 92.232 32.1841C92.3451 32.0709 92.4832 31.9858 92.6352 31.9357C92.7871 31.8855 92.9487 31.8717 93.107 31.8953H93.7121V35.8987H110.191V33.6875C110.248 33.0094 110.054 32.3342 109.644 31.7905C109.385 31.5398 109.076 31.3469 108.737 31.2246C108.398 31.1022 108.037 31.0531 107.678 31.0806" fill="#002A3B"/>
<path d="M155.218 35.4934C154.914 35.4911 154.618 35.3988 154.367 35.228C154.115 35.0573 153.92 34.8159 153.806 34.5343C153.692 34.2528 153.664 33.9437 153.726 33.6461C153.787 33.3486 153.935 33.076 154.152 32.8628C154.368 32.6496 154.643 32.5054 154.942 32.4484C155.24 32.3913 155.549 32.4241 155.828 32.5425C156.108 32.6609 156.347 32.8596 156.514 33.1135C156.68 33.3674 156.768 33.665 156.766 33.9689C156.769 34.1719 156.731 34.3736 156.654 34.5615C156.577 34.7495 156.463 34.9199 156.318 35.0624C156.174 35.205 156.002 35.3166 155.812 35.3907C155.623 35.4648 155.421 35.4997 155.218 35.4934ZM139.903 34.5973H135.771V32.3861H138.797C138.949 32.3827 139.101 32.4134 139.239 32.4758C139.378 32.5382 139.502 32.6308 139.6 32.7469C139.779 33.0019 139.869 33.3086 139.856 33.6197L139.903 34.5973ZM131.558 34.5973H130.977C130.788 34.6149 130.598 34.5936 130.418 34.5349C130.238 34.4761 130.072 34.3811 129.93 34.2557C129.789 34.1302 129.674 33.9771 129.594 33.8057C129.513 33.6342 129.469 33.4482 129.464 33.2589C129.478 33.0666 129.531 32.8791 129.619 32.7074C129.707 32.5356 129.828 32.383 129.975 32.2585C130.122 32.1339 130.293 32.0399 130.477 31.9819C130.661 31.9239 130.854 31.9031 131.046 31.9206H131.558V34.5973ZM155.218 31.1059C154.842 31.109 154.47 31.1865 154.123 31.3341C153.777 31.4816 153.463 31.6963 153.2 31.9657C152.938 32.2351 152.731 32.5539 152.592 32.9037C152.452 33.2535 152.384 33.6274 152.39 34.0038C152.386 34.207 152.406 34.4101 152.448 34.6089H150.691C150.771 34.1948 150.81 33.7738 150.807 33.352C150.82 32.9473 150.751 32.5442 150.605 32.1665C150.459 31.7887 150.239 31.444 149.958 31.1525C149.711 30.9116 149.417 30.7235 149.095 30.5994C148.773 30.4754 148.429 30.4181 148.084 30.4309C147.351 30.437 146.632 30.6378 146.001 31.0128L146.548 32.1766C146.95 31.8957 147.431 31.7491 147.921 31.7577C148.341 31.7253 148.757 31.8543 149.085 32.1184C149.238 32.2701 149.359 32.4517 149.439 32.6519C149.519 32.8521 149.557 33.0667 149.551 33.2822C149.541 33.7365 149.486 34.1887 149.388 34.6322H141.241V33.6895C141.298 33.0115 141.103 32.3363 140.694 31.7926C140.436 31.5407 140.127 31.347 139.788 31.2245C139.448 31.102 139.087 31.0537 138.727 31.0827H135.771V28.2663H134.456V34.6089H132.839V30.14H131.512V30.6055H131.326C129.289 30.6055 128.09 31.7693 128.09 33.2706C128.09 35.0745 129.44 35.9357 131.326 35.9357H153.1C153.368 36.215 153.69 36.4373 154.046 36.5892C154.402 36.7412 154.785 36.8198 155.172 36.8201C155.562 36.8451 155.954 36.7897 156.322 36.6574C156.69 36.5251 157.028 36.3187 157.313 36.0509C157.598 35.7832 157.826 35.4598 157.981 35.1006C158.137 34.7415 158.217 34.3544 158.217 33.963C158.217 33.5717 158.137 33.1845 157.981 32.8254C157.826 32.4663 157.598 32.1429 157.313 31.8751C157.028 31.6074 156.69 31.401 156.322 31.2687C155.954 31.1364 155.562 31.081 155.172 31.1059" fill="#002A3B"/>
<path d="M123.714 27.787H124.133V27.3564H123.656C123.498 27.3353 123.338 27.3509 123.187 27.4019C123.036 27.453 122.899 27.5381 122.787 27.6507C122.674 27.7632 122.589 27.9003 122.538 28.0511C122.487 28.2019 122.471 28.3624 122.492 28.5202V28.9508H124.448V28.2409H123.284C123.284 27.9383 123.412 27.7754 123.796 27.7754" fill="#002A3B"/>
<path d="M99.4145 36.5151C99.3163 36.5088 99.2178 36.5223 99.125 36.5549C99.0321 36.5875 98.9468 36.6384 98.874 36.7046C98.8013 36.7709 98.7426 36.8511 98.7015 36.9405C98.6604 37.0299 98.6377 37.1266 98.6348 37.225C98.6359 37.3234 98.6575 37.4205 98.6982 37.5102C98.7388 37.5998 98.7977 37.68 98.871 37.7456C98.9444 37.8113 99.0305 37.861 99.1241 37.8916C99.2177 37.9222 99.3165 37.933 99.4145 37.9233C99.5119 37.9331 99.6103 37.9223 99.7032 37.8916C99.7962 37.8609 99.8816 37.811 99.9541 37.7452C100.026 37.6793 100.084 37.599 100.124 37.5094C100.163 37.4198 100.183 37.3229 100.183 37.225C100.183 37.1267 100.163 37.0293 100.124 36.9392C100.084 36.849 100.027 36.768 99.9545 36.7013C99.8823 36.6345 99.797 36.5835 99.7041 36.5515C99.6111 36.5194 99.5125 36.507 99.4145 36.5151Z" fill="#002A3B"/>
<path d="M45.9152 28.2525H44.5885V35.9219H45.9152V28.2525Z" fill="#002A3B"/>
<path d="M25.8398 36.5734C25.7457 36.567 25.6514 36.58 25.5627 36.6116C25.4739 36.6433 25.3926 36.6928 25.3238 36.7572C25.2551 36.8216 25.2003 36.8995 25.1629 36.986C25.1255 37.0725 25.1064 37.1658 25.1066 37.26C25.1066 37.4544 25.1838 37.6409 25.3213 37.7784C25.4588 37.9159 25.6453 37.9932 25.8398 37.9932C26.0342 37.9932 26.2207 37.9159 26.3582 37.7784C26.4957 37.6409 26.5729 37.4544 26.5729 37.26C26.5732 37.1658 26.554 37.0725 26.5166 36.986C26.4792 36.8995 26.4244 36.8216 26.3557 36.7572C26.2869 36.6928 26.2056 36.6433 26.1168 36.6116C26.0281 36.58 25.9338 36.567 25.8398 36.5734Z" fill="#002A3B"/>
<path d="M41.3298 34.5947H38.9207C38.6801 34.6171 38.4374 34.5882 38.2087 34.51C37.9801 34.4317 37.7705 34.3059 37.594 34.1409C37.6371 33.8714 37.6605 33.5991 37.6638 33.3262V29.9279H36.3488V33.4891C36.3631 33.6456 36.3428 33.8032 36.2894 33.9509C36.2359 34.0986 36.1507 34.2327 36.0396 34.3438C35.9286 34.4548 35.7944 34.5401 35.6467 34.5935C35.499 34.647 35.3414 34.6672 35.185 34.6529C34.4751 34.6529 34.0212 34.2107 34.0212 33.3146V30.987H32.6945V33.3146C32.6949 33.4745 32.6623 33.6328 32.5988 33.7796C32.5353 33.9264 32.4422 34.0585 32.3253 34.1677C32.2085 34.2769 32.0704 34.3608 31.9196 34.4143C31.7689 34.4677 31.6088 34.4896 31.4492 34.4784H30.4833V30.987H29.1566V34.4784H25.5488V30.4749H24.2221V34.4784H21.2195V28.1357H19.8928V35.8051H31.4492C31.8003 35.8025 32.1472 35.7289 32.4692 35.589C32.7912 35.449 33.0816 35.2454 33.3229 34.9904C33.53 35.2937 33.8132 35.5372 34.1441 35.6966C34.475 35.8559 34.842 35.9254 35.2082 35.8982C35.5907 35.9281 35.9747 35.863 36.326 35.7087C36.6772 35.5544 36.9849 35.3156 37.2216 35.0137C37.3803 35.2678 37.6046 35.4744 37.8708 35.6116C38.1371 35.7488 38.4355 35.8117 38.7345 35.7934H42.6681V28.1241H41.3414L41.3298 34.5947Z" fill="#002A3B"/>
<path d="M60.2649 34.5969H58.8916C58.6714 34.4476 58.4914 34.2463 58.3676 34.0108C58.2437 33.7754 58.1799 33.513 58.1817 33.2469C58.1887 33.0576 58.2344 32.8718 58.3161 32.7009C58.3978 32.5299 58.5136 32.3776 58.6565 32.2532C58.7994 32.1289 58.9663 32.0352 59.1469 31.9779C59.3274 31.9206 59.5178 31.901 59.7063 31.9202H60.2649V34.5969ZM81.4574 34.5969H77.8381V28.2543H76.5113V34.5969H74.0907C73.85 34.6193 73.6074 34.5904 73.3787 34.5121C73.15 34.4339 72.9405 34.3081 72.7639 34.143C72.807 33.8736 72.8304 33.6013 72.8338 33.3284V29.9301H71.5303V33.4913C71.5446 33.6477 71.5244 33.8054 71.4709 33.9531C71.4175 34.1008 71.3322 34.2349 71.2212 34.346C71.1101 34.457 70.976 34.5423 70.8283 34.5957C70.6806 34.6491 70.523 34.6694 70.3665 34.6551C69.645 34.6551 69.2028 34.2129 69.2028 33.3168V30.9892H67.876V33.3168C67.8764 33.4767 67.8439 33.635 67.7803 33.7818C67.7168 33.9286 67.6237 34.0607 67.5069 34.1699C67.39 34.2791 67.252 34.363 67.1012 34.4165C66.9505 34.4699 66.7903 34.4917 66.6308 34.4805H65.6648V30.9892H64.3381V34.4805H61.5916V30.4771H60.0321C58.1351 30.4771 56.855 31.4663 56.855 33.1305C56.8478 33.6191 57.008 34.0955 57.3089 34.4805H55.1908V31.1637H53.8757V35.656H53.1425C52.6494 35.6999 52.1561 35.5724 51.746 35.2952C51.5991 35.1418 51.4875 34.9582 51.4192 34.7571C51.3508 34.5561 51.3273 34.3425 51.3503 34.1314V31.2103H50.0236V34.2943C49.9938 34.6456 50.034 34.9993 50.1419 35.3349C50.2498 35.6705 50.4231 35.9814 50.652 36.2495C50.9761 36.5379 51.3565 36.7561 51.7691 36.8903C52.1817 37.0245 52.6176 37.0718 53.0494 37.0292H55.2257V35.8654H66.6657C67.0168 35.8628 67.3637 35.7893 67.6857 35.6493C68.0077 35.5093 68.298 35.3058 68.5394 35.0508C68.7457 35.3549 69.0287 35.5991 69.3598 35.7586C69.6909 35.918 70.0583 35.987 70.4247 35.9585C70.8072 35.9885 71.1912 35.9234 71.5424 35.7691C71.8937 35.6148 72.2014 35.376 72.4381 35.0741C72.5967 35.3282 72.821 35.5347 73.0873 35.672C73.3536 35.8092 73.652 35.872 73.951 35.8538H82.8191V28.1844H81.4923L81.4574 34.5969Z" fill="#002A3B"/>
<path d="M90.465 37.7838C90.372 37.7774 90.2786 37.7901 90.1906 37.821C90.1027 37.852 90.0219 37.9005 89.9533 37.9636C89.8847 38.0268 89.8297 38.1033 89.7916 38.1884C89.7535 38.2735 89.7332 38.3655 89.7318 38.4587C89.7315 38.5525 89.7506 38.6453 89.7881 38.7312C89.8256 38.8172 89.8806 38.8944 89.9496 38.9579C90.0186 39.0214 90.1 39.0698 90.1888 39.1001C90.2775 39.1304 90.3716 39.1418 90.465 39.1337C90.644 39.1337 90.8157 39.0626 90.9423 38.936C91.0689 38.8095 91.14 38.6378 91.14 38.4587C91.14 38.2797 91.0689 38.108 90.9423 37.9815C90.8157 37.8549 90.644 37.7838 90.465 37.7838Z" fill="#002A3B"/>
</svg>