<svg xmlns:xlink="http://www.w3.org/1999/xlink" xmlns="http://www.w3.org/2000/svg" width="263" height="40" viewBox="0 0 263 40" fill="none">
<path d="M19.9025 12.7001C19.9025 12.7258 19.9127 12.7504 19.9308 12.7685C19.9489 12.7866 19.9735 12.7968 19.9992 12.7968C20.0248 12.7968 20.0494 12.7866 20.0675 12.7685C20.0857 12.7504 20.0958 12.7258 20.0958 12.7001C20.0958 12.7001 21.2008 9.60625 21.4287 8.75681C21.4294 8.33688 21.4064 7.91725 21.3596 7.49992C21.1209 5.00123 20.6939 2.52414 20.082 0.0897788C20.082 0.0207187 20.0337 0 19.9853 0C19.937 0 19.9025 7.40934e-07 19.8887 0.0897788C19.2854 2.52531 18.863 5.00211 18.6249 7.49992C18.5818 7.91748 18.5611 8.33704 18.5627 8.75681C18.7906 9.60625 19.8887 12.7001 19.8887 12.7001" fill="#2D3955"/>
<path d="M17.2725 17.319C16.7325 17.8642 16.3659 18.557 16.2189 19.3102C16.0719 20.0634 16.151 20.8433 16.4464 21.5516C16.7418 22.2598 17.2401 22.8649 17.8787 23.2905C18.5173 23.7161 19.2675 23.9432 20.0349 23.9432C20.8023 23.9432 21.5526 23.7161 22.1912 23.2905C22.8298 22.8649 23.3281 22.2598 23.6235 21.5516C23.9188 20.8433 23.998 20.0634 23.851 19.3102C23.704 18.557 23.3374 17.8642 22.7973 17.319C22.4358 16.954 22.0056 16.6642 21.5314 16.4665C21.0573 16.2688 20.5487 16.167 20.0349 16.167C19.5212 16.167 19.0126 16.2688 18.5384 16.4665C18.0643 16.6642 17.634 16.954 17.2725 17.319Z" fill="#2D3955"/>
<path d="M17.7275 10.0609L17.3822 9.03192C16.2058 9.31103 15.0819 9.77737 14.0535 10.4131L14.5576 11.38C15.5274 10.7648 16.5946 10.3188 17.7137 10.0609" fill="#2D3955"/>
<path d="M25.9458 10.4131C24.918 9.77619 23.794 9.30976 22.6172 9.03192L22.2719 10.0885C23.3941 10.3433 24.464 10.7895 25.4348 11.4076L25.9458 10.4131Z" fill="#2D3955"/>
<path d="M14.0535 29.6323C15.0825 30.2668 16.2062 30.7331 17.3822 31.0135L17.7275 29.9637C16.6041 29.7092 15.5322 29.2655 14.5576 28.6516L14.0535 29.6323Z" fill="#2D3955"/>
<path d="M22.2719 29.9802L22.6172 31.0299C23.794 30.7521 24.918 30.2857 25.9458 29.6487L25.4348 28.6681C24.4629 29.2854 23.3934 29.7337 22.2719 29.994" fill="#2D3955"/>
<path d="M10.4147 25.9606L11.3953 25.4496C10.778 24.4801 10.3296 23.413 10.0694 22.2935L9.01965 22.6388C9.2955 23.8141 9.76209 24.9362 10.4009 25.9606" fill="#2D3955"/>
<path d="M8.99133 17.3955L10.041 17.7408C10.2983 16.6117 10.7468 15.535 11.367 14.5571L10.414 14.0737C9.7752 15.098 9.30862 16.2202 9.03277 17.3955" fill="#2D3955"/>
<path d="M31.0155 22.6388L29.9589 22.2935C29.7016 23.4139 29.253 24.4816 28.6329 25.4496L29.6205 25.9606C30.2562 24.9347 30.7226 23.813 31.0017 22.6388" fill="#2D3955"/>
<path d="M28.6329 14.5578C29.253 15.5258 29.7016 16.5934 29.9589 17.7138L31.0155 17.3685C30.7364 16.1943 30.27 15.0727 29.6343 14.0468L28.6329 14.5578Z" fill="#2D3955"/>
<path d="M20.082 27.2999C20.082 27.2743 20.0719 27.2497 20.0537 27.2316C20.0356 27.2134 20.011 27.2032 19.9854 27.2032C19.9597 27.2032 19.9351 27.2134 19.917 27.2316C19.8989 27.2497 19.8887 27.2743 19.8887 27.2999C19.8887 27.2999 18.7906 30.3938 18.5627 31.2433C18.561 31.663 18.5817 32.0826 18.6249 32.5002C18.8622 34.9981 19.2846 37.4749 19.8887 39.9103C19.8887 39.9794 19.937 40.0001 19.9854 40.0001C20.0337 40.0001 20.0682 40.0001 20.089 39.9103C20.6966 37.48 21.1213 35.0077 21.3597 32.514C21.4065 32.0967 21.4296 31.677 21.4287 31.2571C21.2008 30.4076 20.0959 27.3137 20.0959 27.3137" fill="#2D3955"/>
<path d="M8.75681 21.4634C9.60625 21.2355 12.7001 20.1306 12.7001 20.1306C12.7258 20.1306 12.7504 20.1204 12.7685 20.1022C12.7866 20.0841 12.7968 20.0595 12.7968 20.0339C12.7968 20.0082 12.7866 19.9836 12.7685 19.9655C12.7504 19.9474 12.7258 19.9372 12.7001 19.9372C12.7001 19.9372 9.60625 18.8391 8.75681 18.6112C8.33704 18.6096 7.91748 18.6304 7.49992 18.6734C5.00211 18.9115 2.52531 19.3339 0.0897788 19.9372C0.0207187 19.9372 0 19.9855 0 20.0339C0 20.0822 7.40934e-07 20.1167 0.0897788 20.1306C2.5245 20.7377 5.00158 21.1602 7.49992 21.3944C7.91725 21.4411 8.33688 21.4641 8.75681 21.4634Z" fill="#2D3955"/>
<path d="M39.9099 19.902C37.4791 19.2986 35.0069 18.8762 32.5136 18.6382C32.096 18.595 31.6765 18.5743 31.2567 18.576C30.4072 18.8039 27.3134 19.902 27.3134 19.902C27.2877 19.902 27.2631 19.9122 27.245 19.9303C27.2269 19.9484 27.2167 19.973 27.2167 19.9987C27.2167 20.0243 27.2269 20.0489 27.245 20.067C27.2631 20.0852 27.2877 20.0954 27.3134 20.0954C27.3134 20.0954 30.4072 21.2003 31.2567 21.4282C31.6766 21.4291 32.0963 21.406 32.5136 21.3592C35.0075 21.1186 37.4798 20.6915 39.9099 20.0815C39.979 20.0815 39.9997 20.0263 39.9997 19.9779C39.9997 19.9296 39.9997 19.8951 39.9099 19.8813" fill="#2D3955"/>
<path d="M10.2002 12.1266C10.7181 12.8172 10.9322 12.9968 10.9322 12.9968C11.6228 13.4388 14.772 14.9098 14.772 14.9098C14.7913 14.919 14.813 14.922 14.8341 14.9184C14.8552 14.9148 14.8747 14.9047 14.8899 14.8895C14.905 14.8744 14.9151 14.8549 14.9187 14.8338C14.9223 14.8127 14.9193 14.791 14.9101 14.7716C14.9101 14.7716 13.4391 11.6018 12.9971 10.9319C12.9971 10.9319 12.783 10.7178 12.127 10.1999C10.6358 8.95696 8.99003 7.91237 7.23061 7.09216C7.15464 7.09216 7.12702 7.09216 7.09939 7.09216C7.07177 7.09216 7.05796 7.14741 7.09939 7.22337C7.9196 8.98279 8.96419 10.6286 10.2071 12.1197" fill="#2D3955"/>
<path d="M29.8062 27.8808C29.2813 27.2178 29.0603 26.9899 29.0603 26.9899C28.3697 26.5479 25.2206 25.0839 25.2206 25.0839C25.2022 25.0738 25.1811 25.07 25.1605 25.073C25.1398 25.076 25.1206 25.0856 25.1058 25.1003C25.0911 25.1151 25.0815 25.1343 25.0785 25.155C25.0755 25.1757 25.0793 25.1968 25.0894 25.2151C25.0894 25.2151 26.5603 28.3711 26.9885 29.0617C26.9885 29.0617 27.2026 29.2758 27.8656 29.8007C29.3561 31.0409 30.9993 32.0853 32.755 32.9084C32.831 32.9084 32.8586 32.9084 32.8932 32.9084C32.9277 32.9084 32.9277 32.8462 32.8932 32.7703C32.0701 31.0145 31.0257 29.3714 29.7854 27.8808" fill="#2D3955"/>
<path d="M14.8889 25.1102C14.8726 25.0961 14.8518 25.0884 14.8302 25.0884C14.8087 25.0884 14.7878 25.0961 14.7715 25.1102C14.7715 25.1102 11.6017 26.5605 10.9318 26.9887C10.6729 27.2683 10.4286 27.561 10.1997 27.8657C8.95627 29.3539 7.91161 30.9975 7.09204 32.7552C7.09204 32.8311 7.09204 32.8588 7.09204 32.8933C7.09204 32.9278 7.14729 32.9278 7.22325 32.8933C8.98168 32.0684 10.6272 31.0217 12.1196 29.7787C12.8102 29.2607 12.9898 29.0467 12.9898 29.0467C13.4318 28.3561 14.9027 25.2069 14.9027 25.2069C14.9146 25.1896 14.921 25.1692 14.921 25.1482C14.921 25.1273 14.9146 25.1068 14.9027 25.0895" fill="#2D3955"/>
<path d="M25.1108 14.8891C25.128 14.901 25.1485 14.9074 25.1695 14.9074C25.1904 14.9074 25.2109 14.901 25.2282 14.8891C25.2282 14.8891 28.3704 13.4389 29.061 12.9969C29.061 12.9969 29.2751 12.7828 29.7999 12.1267C31.0396 10.6333 32.0839 8.98789 32.9076 7.23038C32.9076 7.15441 32.9076 7.13369 32.9076 7.09916C32.9076 7.06463 32.8455 7.05773 32.7695 7.09916C31.0119 7.91873 29.3683 8.96339 27.8801 10.2069C27.5708 10.4331 27.2735 10.6751 26.9892 10.932C26.5472 11.6226 25.0831 14.7717 25.0831 14.7717C25.069 14.788 25.0613 14.8089 25.0613 14.8304C25.0613 14.852 25.069 14.8728 25.0831 14.8891" fill="#2D3955"/>
<path d="M61.3671 26.6722H58.6875C58.6091 26.678 58.5315 26.6532 58.4709 26.603C58.4104 26.5528 58.3717 26.481 58.363 26.4028C58.1972 25.7122 58.0246 25.0769 57.8381 24.407H51.6849C51.4915 25.0976 51.3188 25.7399 51.1531 26.4028C51.1496 26.4419 51.1385 26.4799 51.1202 26.5146C51.102 26.5493 51.0771 26.5801 51.0469 26.6051C51.0168 26.6302 50.9819 26.649 50.9444 26.6605C50.9069 26.672 50.8676 26.676 50.8285 26.6722H48.149C48.1052 26.6783 48.0607 26.6726 48.0198 26.6558C47.979 26.639 47.9434 26.6115 47.9166 26.5764C47.8899 26.5412 47.873 26.4996 47.8678 26.4557C47.8625 26.4118 47.869 26.3674 47.8866 26.3269C48.9962 21.8477 50.7403 17.5502 53.0661 13.5646C53.0992 13.5001 53.1483 13.4452 53.2088 13.4053C53.2693 13.3654 53.3391 13.3418 53.4114 13.3367C54.3057 13.2262 55.2103 13.2262 56.1047 13.3367C56.1798 13.3415 56.252 13.3674 56.3131 13.4113C56.3742 13.4553 56.4216 13.5156 56.45 13.5853C58.7666 17.559 60.5125 21.839 61.6364 26.2992C61.6592 26.3415 61.6696 26.3893 61.6665 26.4372C61.6633 26.4852 61.6468 26.5312 61.6187 26.5701C61.5906 26.6091 61.552 26.6393 61.5075 26.6573C61.463 26.6754 61.4144 26.6805 61.3671 26.6722ZM57.0577 21.838C56.432 19.9408 55.6633 18.0939 54.758 16.3132C53.8528 18.0939 53.084 19.9408 52.4583 21.838H57.0577Z" fill="#2D3955"/>
<path d="M76.7459 19.868C76.7459 23.839 73.9835 26.6704 69.5498 26.6704H63.9283C63.8876 26.6735 63.8467 26.6678 63.8085 26.6536C63.7702 26.6394 63.7354 26.6172 63.7066 26.5883C63.6777 26.5594 63.6554 26.5247 63.6413 26.4864C63.6271 26.4481 63.6214 26.4072 63.6245 26.3666V13.6802C63.6201 13.6393 63.625 13.5978 63.6387 13.559C63.6524 13.5201 63.6747 13.4849 63.7038 13.4557C63.733 13.4266 63.7682 13.4043 63.8071 13.3906C63.8459 13.3769 63.8874 13.372 63.9283 13.3764H69.5498C73.9973 13.3764 76.7459 16.0904 76.7459 19.868ZM69.5498 23.9494C71.8495 23.9494 73.5415 22.5683 73.5415 19.868C73.5415 17.4026 71.8495 16.0904 69.5498 16.0904H66.7874V23.9494H69.5498Z" fill="#2D3955"/>
<path d="M95.3578 18.107C95.3578 21.2561 92.8509 23.0033 89.322 23.0033H86.9463V26.3666C86.9494 26.4072 86.9437 26.4481 86.9295 26.4864C86.9153 26.5247 86.8931 26.5594 86.8642 26.5883C86.8353 26.6172 86.8006 26.6394 86.7623 26.6536C86.724 26.6678 86.6832 26.6735 86.6425 26.6704H84.1149C84.0742 26.6735 84.0333 26.6678 83.995 26.6536C83.9567 26.6394 83.922 26.6172 83.8931 26.5883C83.8642 26.5594 83.842 26.5247 83.8278 26.4864C83.8136 26.4481 83.8079 26.4072 83.811 26.3666V13.6802C83.8066 13.6393 83.8115 13.5978 83.8252 13.559C83.839 13.5201 83.8612 13.4849 83.8904 13.4557C83.9195 13.4266 83.9548 13.4043 83.9936 13.3906C84.0325 13.3769 84.0739 13.372 84.1149 13.3764H89.7363C93.286 13.3764 95.3578 15.0269 95.3578 18.107ZM89.3358 20.3445C91.4076 20.3445 92.2225 19.4882 92.2225 18.107C92.2225 16.7258 91.3731 16.0352 89.5292 16.0352H86.9463V20.3445H89.3358Z" fill="#2D3955"/>
<path d="M97.1265 20.0192C97.1265 15.9792 99.8889 13.1132 104.329 13.1132C108.77 13.1132 111.525 15.9999 111.525 20.0192C111.525 24.0385 108.763 26.9252 104.329 26.9252C99.8958 26.9252 97.1265 24.0661 97.1265 20.0192ZM108.314 20.0192C108.314 17.2568 106.622 15.8065 104.329 15.8065C102.037 15.8065 100.338 17.2499 100.338 20.0192C100.338 22.7885 102.03 24.2249 104.336 24.2249C106.643 24.2249 108.314 22.7954 108.314 20.0192Z" fill="#2D3955"/>
<path d="M125.593 26.2975C125.71 26.5116 125.593 26.6635 125.365 26.6635H122.727C122.651 26.6677 122.575 26.6479 122.511 26.6071C122.446 26.5662 122.396 26.5063 122.368 26.4356C121.675 25.0123 120.74 23.7201 119.605 22.6166H117.195V26.3666C117.198 26.4072 117.193 26.4481 117.178 26.4864C117.164 26.5247 117.142 26.5594 117.113 26.5883C117.084 26.6172 117.049 26.6394 117.011 26.6536C116.973 26.6678 116.932 26.6735 116.891 26.6704H114.364C114.323 26.6735 114.282 26.6678 114.244 26.6536C114.206 26.6394 114.171 26.6172 114.142 26.5883C114.113 26.5594 114.091 26.5247 114.077 26.4864C114.063 26.4481 114.057 26.4072 114.06 26.3666V13.6802C114.056 13.6393 114.06 13.5978 114.074 13.559C114.088 13.5201 114.11 13.4849 114.139 13.4557C114.168 13.4266 114.204 13.4043 114.243 13.3906C114.281 13.3769 114.323 13.372 114.364 13.3764H119.529C123.19 13.3764 125.282 14.9509 125.282 17.741C125.355 18.6376 125.108 19.531 124.586 20.2638C124.065 20.9966 123.301 21.5216 122.43 21.7464C123.754 23.0567 124.827 24.5994 125.593 26.2975ZM117.223 16.0352V19.9647H119.481C121.187 19.9647 122.119 19.2741 122.119 18.0103C122.119 16.7465 121.429 16.0352 119.357 16.0352H117.223Z" fill="#2D3955"/>
<path d="M138.735 13.6595C138.887 15.1028 138.473 16.0352 136.594 16.0352H133.949V26.3942C133.953 26.4351 133.949 26.4766 133.935 26.5154C133.921 26.5542 133.899 26.5895 133.87 26.6187C133.841 26.6478 133.805 26.67 133.766 26.6838C133.728 26.6975 133.686 26.7024 133.645 26.698H131.125C131.084 26.7024 131.042 26.6975 131.003 26.6838C130.964 26.67 130.929 26.6478 130.9 26.6187C130.871 26.5895 130.849 26.5542 130.835 26.5154C130.821 26.4766 130.816 26.4351 130.821 26.3942V16.0352H126.739C126.698 16.0395 126.657 16.0346 126.618 16.0209C126.579 16.0072 126.544 15.9849 126.515 15.9558C126.486 15.9267 126.463 15.8914 126.45 15.8525C126.436 15.8137 126.431 15.7723 126.435 15.7313V13.6595C126.431 13.6185 126.436 13.5771 126.45 13.5382C126.463 13.4994 126.486 13.4641 126.515 13.435C126.544 13.4059 126.579 13.3836 126.618 13.3699C126.657 13.3561 126.698 13.3513 126.739 13.3556H138.417C138.459 13.3503 138.502 13.3545 138.541 13.3677C138.581 13.3809 138.618 13.4028 138.648 13.4319C138.679 13.461 138.702 13.4966 138.717 13.5359C138.732 13.5753 138.738 13.6175 138.735 13.6595Z" fill="#2D3955"/>
<path d="M140.144 25.945C140.074 25.9185 140.016 25.8672 139.982 25.801C139.948 25.7348 139.939 25.6582 139.957 25.5859L140.316 23.0376C140.316 22.7959 140.503 22.7337 140.696 22.8718C141.93 23.6713 143.369 24.098 144.84 24.1011C146.573 24.1011 147.388 23.666 147.388 22.9478C147.388 22.2296 146.953 21.9395 146.041 21.6564L143.97 20.9658C141.939 20.3166 140.116 19.2738 140.116 16.8981C140.116 14.5225 142.112 13.0653 145.282 13.0653C146.833 13.0512 148.376 13.2843 149.853 13.7559C149.932 13.7784 149.998 13.8309 150.038 13.902C150.078 13.973 150.089 14.057 150.068 14.1357L149.929 14.8263C149.9 15.0365 149.828 15.2383 149.716 15.4188C149.605 15.5994 149.457 15.7547 149.282 15.875C149.108 15.9952 148.91 16.0776 148.701 16.1171C148.493 16.1565 148.278 16.152 148.072 16.1039C147.091 15.881 146.093 15.7401 145.088 15.6827C143.914 15.6827 143.231 16.0625 143.231 16.8222C143.231 17.5818 143.742 17.8857 145.302 18.3622L146.684 18.7766C149.301 19.5984 150.558 20.5998 150.558 22.7475C150.558 25.2337 148.769 26.8911 144.494 26.8911C142.994 26.8815 141.512 26.5593 140.144 25.945Z" fill="#2D3955"/>
<path d="M160.557 13.6802V23.9356H166.71C166.751 23.9313 166.793 23.9362 166.832 23.9499C166.87 23.9636 166.906 23.9859 166.935 24.015C166.964 24.0441 166.986 24.0794 167 24.1183C167.014 24.1571 167.019 24.1985 167.014 24.2395V26.3666C167.019 26.4075 167.014 26.4489 167 26.4878C166.986 26.5266 166.964 26.5619 166.935 26.5911C166.906 26.6202 166.87 26.6424 166.832 26.6562C166.793 26.6699 166.751 26.6748 166.71 26.6704H157.733C157.692 26.6748 157.65 26.6699 157.611 26.6562C157.572 26.6424 157.537 26.6202 157.508 26.5911C157.479 26.5619 157.457 26.5266 157.443 26.4878C157.429 26.4489 157.424 26.4075 157.429 26.3666V13.6802C157.424 13.6393 157.429 13.5978 157.443 13.559C157.457 13.5201 157.479 13.4849 157.508 13.4557C157.537 13.4266 157.572 13.4043 157.611 13.3906C157.65 13.3769 157.692 13.372 157.733 13.3764H160.274C160.313 13.3752 160.352 13.3824 160.389 13.3975C160.425 13.4127 160.458 13.4354 160.484 13.4642C160.511 13.4929 160.531 13.5271 160.544 13.5643C160.557 13.6016 160.561 13.6411 160.557 13.6802Z" fill="#2D3955"/>
<path d="M168.631 20.0192C168.631 15.9792 171.393 13.1132 175.827 13.1132C180.26 13.1132 183.023 15.9999 183.023 20.0192C183.023 24.0385 180.26 26.9252 175.827 26.9252C171.393 26.9252 168.631 24.0661 168.631 20.0192ZM179.818 20.0192C179.818 17.2568 178.126 15.8065 175.827 15.8065C173.527 15.8065 171.842 17.2499 171.842 20.0192C171.842 22.7885 173.527 24.2249 175.827 24.2249C178.126 24.2249 179.818 22.7954 179.818 20.0192Z" fill="#2D3955"/>
<path d="M192.367 21.4628V19.3219C192.362 19.281 192.367 19.2395 192.381 19.2007C192.395 19.1619 192.417 19.1266 192.446 19.0974C192.475 19.0683 192.511 19.0461 192.549 19.0323C192.588 19.0186 192.63 19.0137 192.671 19.0181H197.629C197.67 19.0137 197.712 19.0186 197.75 19.0323C197.789 19.0461 197.825 19.0683 197.854 19.0974C197.883 19.1266 197.905 19.1619 197.919 19.2007C197.933 19.2395 197.937 19.281 197.933 19.3219V24.8467C197.934 24.9189 197.919 24.9903 197.889 25.0559C197.859 25.1216 197.815 25.1799 197.76 25.2266C196.183 26.3894 194.271 27.0076 192.312 26.9876C187.899 26.9876 185.136 24.0664 185.136 20.0194C185.136 15.9725 188.099 13.1134 192.83 13.1134C194.123 13.0859 195.412 13.2773 196.642 13.6797C196.716 13.7008 196.78 13.7501 196.818 13.8172C196.857 13.8842 196.868 13.9638 196.849 14.0388L196.78 14.612C196.586 15.9932 195.923 16.2833 194.708 16.0899C194.023 15.9821 193.33 15.9267 192.636 15.9242C190.185 15.9242 188.327 17.3054 188.327 20.0678C188.327 22.8302 190.012 24.094 192.312 24.094C193.31 24.1132 194.297 23.8754 195.178 23.4034V21.7459H192.671C192.632 21.7499 192.592 21.7454 192.555 21.7329C192.518 21.7204 192.483 21.7 192.455 21.6732C192.426 21.6464 192.403 21.6138 192.388 21.5775C192.373 21.5412 192.366 21.5021 192.367 21.4628Z" fill="#2D3955"/>
<path d="M203.706 26.6716H201.178C201.138 26.6747 201.097 26.669 201.058 26.6548C201.02 26.6406 200.985 26.6183 200.956 26.5895C200.928 26.5606 200.905 26.5258 200.891 26.4876C200.877 26.4493 200.871 26.4084 200.874 26.3677V13.6607C200.871 13.62 200.875 13.579 200.888 13.5401C200.901 13.5013 200.921 13.4656 200.949 13.4351C200.976 13.4046 201.009 13.3801 201.046 13.3631C201.083 13.346 201.124 13.3369 201.164 13.3361C201.467 13.2979 201.771 13.2794 202.076 13.2808C203.347 13.2808 204.01 13.8333 204.01 15.3526V26.3677C204.014 26.4087 204.009 26.4501 203.995 26.489C203.982 26.5278 203.959 26.5631 203.93 26.5922C203.901 26.6213 203.866 26.6436 203.827 26.6573C203.788 26.6711 203.747 26.6759 203.706 26.6716Z" fill="#2D3955"/>
<path d="M206.614 25.9449C206.545 25.9173 206.487 25.8661 206.452 25.8005C206.417 25.7348 206.405 25.6588 206.42 25.5858L206.786 23.0375C206.786 22.7958 206.973 22.7336 207.166 22.8717C208.401 23.6712 209.839 24.0979 211.31 24.101C213.043 24.101 213.858 23.6659 213.858 22.9477C213.858 22.2295 213.423 21.9394 212.477 21.6563L210.405 20.9657C208.375 20.3165 206.552 19.2737 206.552 16.898C206.552 14.5224 208.541 13.0652 211.717 13.0652C213.268 13.0523 214.811 13.2854 216.289 13.7558C216.368 13.7784 216.434 13.8308 216.474 13.9019C216.514 13.9729 216.525 14.0569 216.503 14.1356L216.365 14.8262C216.336 15.0364 216.264 15.2382 216.152 15.4188C216.041 15.5993 215.893 15.7546 215.718 15.8749C215.543 15.9951 215.345 16.0775 215.137 16.117C214.928 16.1564 214.714 16.1519 214.507 16.1039C213.526 15.8809 212.528 15.74 211.524 15.6826C210.35 15.6826 209.666 16.0624 209.666 16.8221C209.666 17.5817 210.177 17.8856 211.738 18.3621L213.119 18.7765C215.737 19.5983 216.994 20.5997 216.994 22.7474C216.994 25.2336 215.205 26.891 210.93 26.891C209.441 26.8767 207.972 26.5545 206.614 25.9449Z" fill="#2D3955"/>
<path d="M230.501 13.6594C230.653 15.1027 230.239 16.035 228.36 16.035H225.715V26.394C225.72 26.435 225.715 26.4764 225.701 26.5153C225.687 26.5541 225.665 26.5894 225.636 26.6185C225.607 26.6477 225.572 26.6699 225.533 26.6837C225.494 26.6974 225.453 26.7023 225.412 26.6979H222.891C222.85 26.7023 222.808 26.6974 222.77 26.6837C222.731 26.6699 222.695 26.6477 222.666 26.6185C222.637 26.5894 222.615 26.5541 222.601 26.5153C222.588 26.4764 222.583 26.435 222.587 26.394V16.035H218.499C218.458 16.0381 218.417 16.0324 218.379 16.0182C218.341 16.0041 218.306 15.9818 218.277 15.9529C218.248 15.9241 218.226 15.8893 218.212 15.851C218.197 15.8128 218.192 15.7719 218.195 15.7312V13.6594C218.19 13.6184 218.195 13.577 218.209 13.5381C218.223 13.4993 218.245 13.464 218.274 13.4349C218.303 13.4057 218.339 13.3835 218.377 13.3698C218.416 13.356 218.458 13.3512 218.499 13.3555H230.177C230.219 13.3504 230.261 13.3546 230.302 13.3677C230.342 13.3809 230.379 13.4027 230.41 13.4317C230.441 13.4607 230.465 13.4961 230.481 13.5354C230.497 13.5747 230.504 13.617 230.501 13.6594Z" fill="#2D3955"/>
<path d="M235.177 26.6715H232.649C232.608 26.6746 232.567 26.6689 232.529 26.6547C232.491 26.6406 232.456 26.6183 232.427 26.5894C232.398 26.5606 232.376 26.5258 232.362 26.4875C232.348 26.4493 232.342 26.4084 232.345 26.3677V13.6606C232.341 13.6205 232.346 13.58 232.358 13.5417C232.371 13.5033 232.391 13.4679 232.417 13.4375C232.444 13.4072 232.476 13.3825 232.512 13.3651C232.549 13.3476 232.588 13.3377 232.628 13.336C232.931 13.2983 233.235 13.2799 233.54 13.2808C234.818 13.2808 235.481 13.8333 235.481 15.3526V26.3677C235.484 26.4084 235.478 26.4493 235.464 26.4875C235.45 26.5258 235.427 26.5606 235.398 26.5894C235.37 26.6183 235.335 26.6406 235.297 26.6547C235.258 26.6689 235.217 26.6746 235.177 26.6715Z" fill="#2D3955"/>
<path d="M238.043 19.8897C238.043 16.0155 240.853 13.0942 245.736 13.0942C247.029 13.0666 248.318 13.2581 249.548 13.6605C249.622 13.683 249.685 13.7323 249.724 13.7987C249.764 13.8651 249.777 13.9439 249.762 14.0196L249.686 14.5928C249.493 15.974 248.83 16.2641 247.614 16.0707C246.929 15.9635 246.236 15.9081 245.543 15.905C242.78 15.905 241.233 17.4795 241.233 19.8897C241.233 22.6521 242.773 24.0333 245.204 24.0333C246.684 24.052 248.133 23.6077 249.348 22.7626C249.555 22.6314 249.707 22.7281 249.728 22.956L249.935 25.5181C249.95 25.5834 249.944 25.652 249.916 25.7132C249.889 25.7744 249.842 25.8248 249.783 25.8565C248.379 26.6087 246.81 26.998 245.218 26.9891C240.722 26.9891 238.043 24.0886 238.043 19.8897Z" fill="#2D3955"/>
<path d="M252.38 25.9449C252.31 25.9184 252.252 25.8672 252.218 25.8009C252.184 25.7347 252.175 25.6581 252.193 25.5858L252.552 23.0375C252.594 22.7958 252.746 22.7337 252.932 22.8718C254.167 23.6701 255.605 24.0968 257.076 24.101C258.802 24.101 259.617 23.666 259.617 22.9477C259.617 22.2295 259.182 21.9395 258.27 21.6563L256.199 20.9657C254.168 20.3166 252.345 19.2737 252.345 16.8981C252.345 14.5224 254.341 13.0652 257.511 13.0652C259.064 13.0518 260.609 13.2849 262.089 13.7558C262.167 13.7798 262.231 13.8329 262.27 13.9038C262.309 13.9747 262.318 14.0579 262.297 14.1357L262.165 14.8263C262.135 15.0367 262.062 15.2386 261.95 15.4192C261.838 15.5998 261.689 15.7551 261.514 15.8752C261.339 15.9954 261.14 16.0777 260.931 16.1171C260.723 16.1565 260.508 16.152 260.301 16.1039C259.322 15.8815 258.326 15.7406 257.324 15.6826C256.143 15.6826 255.46 16.0625 255.46 16.8221C255.46 17.5818 255.971 17.8856 257.531 18.3622L258.878 18.7765C261.496 19.5983 262.752 20.5997 262.752 22.7475C262.752 25.2336 260.964 26.8911 256.696 26.8911C255.207 26.8749 253.738 26.5529 252.38 25.9449Z" fill="#2D3955"/>
</svg>