<svg width="235" height="44" viewBox="0 0 235 44" fill="none" xmlns="http://www.w3.org/2000/svg">
<path d="M17.61 11.2316C17.614 11.25 17.6239 11.2665 17.6383 11.2786C17.6526 11.2908 17.6706 11.2979 17.6894 11.2988C17.7089 11.2982 17.7278 11.2913 17.7431 11.2792C17.7585 11.2671 17.7696 11.2504 17.7749 11.2316C17.7749 11.2316 18.752 8.49545 18.9536 7.74424C18.955 7.37301 18.9367 7.00196 18.8986 6.63268C18.6941 4.42416 18.3266 2.23377 17.7993 0.0793974C17.7993 0.018323 17.7504 0 17.7077 0C17.6649 0 17.6405 6.55258e-07 17.6222 0.0793974C17.0887 2.2333 16.7151 4.4237 16.5045 6.63268C16.4665 7.00196 16.4481 7.37301 16.4495 7.74424C16.6511 8.49545 17.6283 11.2316 17.6283 11.2316" fill="#2D3955"/>
<path d="M15.282 15.3149C14.8044 15.797 14.4802 16.4098 14.3502 17.0759C14.2202 17.742 14.2902 18.4316 14.5514 19.058C14.8126 19.6844 15.2533 20.2195 15.8181 20.5959C16.3828 20.9722 17.0463 21.1731 17.725 21.1731C18.4037 21.1731 19.0672 20.9722 19.6319 20.5959C20.1966 20.2195 20.6374 19.6844 20.8986 19.058C21.1598 18.4316 21.2298 17.742 21.0998 17.0759C20.9698 16.4098 20.6456 15.797 20.168 15.3149C19.8487 14.9913 19.4683 14.7345 19.0489 14.5591C18.6296 14.3838 18.1795 14.2935 17.725 14.2935C17.2704 14.2935 16.8204 14.3838 16.401 14.5591C15.9817 14.7345 15.6013 14.9913 15.282 15.3149Z" fill="#2D3955"/>
<path d="M15.6789 8.89658L15.3552 7.98657C14.3167 8.23342 13.3248 8.64586 12.4175 9.20806L12.9122 10.0631C13.7698 9.51909 14.7136 9.12464 15.7033 8.89658" fill="#2D3955"/>
<path d="M22.9481 9.20806C22.0408 8.64586 21.0489 8.23342 20.0105 7.98657L19.7051 8.92101C20.6956 9.14631 21.6399 9.54095 22.4962 10.0875L22.9481 9.20806Z" fill="#2D3955"/>
<path d="M12.4363 26.2062C13.3436 26.7684 14.3355 27.1809 15.374 27.4277L15.6793 26.4994C14.6986 26.2704 13.7633 25.8781 12.9127 25.339L12.4363 26.2062Z" fill="#2D3955"/>
<path d="M19.7051 26.5141L20.0105 27.4424C21.0489 27.1955 22.0408 26.7831 22.9481 26.2209L22.4962 25.3536C21.6388 25.8996 20.6951 26.2961 19.7051 26.5263" fill="#2D3955"/>
<path d="M9.18695 22.9596L10.0542 22.5077C9.50826 21.6503 9.11176 20.7066 8.88158 19.7166L7.95325 20.0219C8.20009 21.0604 8.61253 22.0523 9.17474 22.9596" fill="#2D3955"/>
<path d="M7.95325 15.3835L8.88158 15.6889C9.10913 14.6904 9.50572 13.7382 10.0542 12.8734L9.18695 12.4459C8.62475 13.3532 8.21231 14.3451 7.96546 15.3835" fill="#2D3955"/>
<path d="M27.4303 20.0219L26.4959 19.7166C26.2706 20.7071 25.8759 21.6514 25.3293 22.5077L26.1966 22.9596C26.7588 22.0523 27.1712 21.0604 27.4181 20.0219" fill="#2D3955"/>
<path d="M25.3293 12.875C25.8759 13.7313 26.2706 14.6756 26.4959 15.6661L27.4303 15.3608C27.1835 14.3223 26.771 13.3304 26.2088 12.4231L25.3293 12.875Z" fill="#2D3955"/>
<path d="M17.7989 24.1438C17.7929 24.1254 17.7816 24.1092 17.7664 24.0972C17.7512 24.0852 17.7327 24.0781 17.7134 24.0766C17.6949 24.0784 17.6774 24.0858 17.6633 24.0978C17.6491 24.1098 17.6389 24.1259 17.634 24.1438C17.634 24.1438 16.6568 26.8799 16.4553 27.6311C16.4537 28.0024 16.4721 28.3734 16.5103 28.7427C16.7201 30.9518 17.0937 33.1422 17.6279 35.296C17.6279 35.357 17.6768 35.3754 17.7134 35.3754C17.7501 35.3754 17.7867 35.3754 17.805 35.296C18.3304 33.1456 18.6958 30.9593 18.8983 28.7549C18.9365 28.3856 18.9548 28.0146 18.9532 27.6433C18.7517 26.8921 17.7745 24.156 17.7745 24.156" fill="#2D3955"/>
<path d="M7.75207 18.9821C8.49718 18.7805 11.2394 17.8033 11.2394 17.8033C11.2567 17.7967 11.2716 17.7849 11.282 17.7697C11.2925 17.7544 11.2981 17.7363 11.2981 17.7178C11.2981 17.6993 11.2925 17.6812 11.282 17.6659C11.2716 17.6507 11.2567 17.639 11.2394 17.6323C11.2394 17.6323 8.49718 16.6612 7.75207 16.4597C7.37881 16.4582 7.00573 16.4765 6.63441 16.5146C4.42816 16.7148 2.23978 17.0782 0.0872296 17.6018C0.0200477 17.6018 0.00783318 17.6445 0.00172573 17.6873C-0.00438171 17.73 0.00172537 17.7606 0.0872296 17.7728C2.23827 18.3101 4.42693 18.6837 6.63441 18.8904C7.00552 18.9318 7.37867 18.9522 7.75207 18.9515" fill="#2D3955"/>
<path d="M35.2971 17.6009C33.1453 17.0671 30.9569 16.6935 28.7499 16.4833C28.3786 16.4452 28.0055 16.4268 27.6323 16.4283C26.8871 16.6299 24.1449 17.6009 24.1449 17.6009C24.1276 17.6076 24.1128 17.6193 24.1023 17.6346C24.0918 17.6498 24.0862 17.6679 24.0862 17.6864C24.0862 17.705 24.0918 17.723 24.1023 17.7383C24.1128 17.7536 24.1276 17.7653 24.1449 17.7719C24.1449 17.7719 26.8871 18.7491 27.6323 18.9507C28.0057 18.9514 28.3788 18.931 28.7499 18.8896C30.9577 18.6789 33.1464 18.3012 35.2971 17.7597C35.3643 17.7597 35.3765 17.717 35.3765 17.6742C35.3765 17.6315 35.3765 17.6009 35.2971 17.5887" fill="#2D3955"/>
<path d="M9.02266 10.7242C9.48683 11.3349 9.67616 11.4937 9.67616 11.4937C10.2869 11.8846 13.0658 13.1855 13.0658 13.1855C13.0823 13.1958 13.1013 13.2012 13.1208 13.2012C13.1402 13.2012 13.1592 13.1958 13.1757 13.1855C13.1862 13.1702 13.1919 13.1521 13.1919 13.1336C13.1919 13.115 13.1862 13.0969 13.1757 13.0816C13.1757 13.0816 11.8748 10.2783 11.484 9.6859C11.2402 9.45541 10.9832 9.23925 10.7144 9.03851C9.39686 7.93775 7.94115 7.01382 6.38425 6.29016C6.31707 6.29016 6.29875 6.29016 6.26821 6.29016C6.23767 6.29016 6.26821 6.33902 6.26821 6.4062C6.99357 7.96218 7.91737 9.41767 9.01656 10.7364" fill="#2D3955"/>
<path d="M26.3498 24.6562C25.8978 24.0698 25.739 23.8683 25.739 23.8683C25.1283 23.4774 22.3494 22.1826 22.3494 22.1826C22.3332 22.1706 22.3133 22.1647 22.2932 22.1659C22.2731 22.1671 22.2541 22.1754 22.2395 22.1893C22.2249 22.2032 22.2157 22.2217 22.2134 22.2417C22.2112 22.2618 22.2161 22.2819 22.2272 22.2987C22.2272 22.2987 23.4976 25.0898 23.9068 25.7005C23.9068 25.7005 24.0961 25.8899 24.6824 26.354C26.0021 27.4519 27.4574 28.3756 29.0126 29.1024C29.0798 29.1024 29.0981 29.1024 29.1286 29.1024C29.1592 29.1024 29.1286 29.0474 29.1286 28.9802C28.4039 27.4258 27.48 25.9723 26.3803 24.6562" fill="#2D3955"/>
<path d="M13.1761 22.2064C13.1602 22.1945 13.1409 22.1881 13.1211 22.1881C13.1013 22.1881 13.082 22.1945 13.0661 22.2064C13.0661 22.2064 10.2689 23.489 9.6704 23.8677C9.6704 23.8677 9.48717 24.057 9.02301 24.6433C7.92332 25.9594 6.99946 27.413 6.27466 28.9674C6.27466 29.0346 6.27466 29.059 6.27466 29.0895C6.27466 29.1201 6.32352 29.1201 6.3907 29.0895C7.94671 28.3617 9.40216 27.4359 10.7209 26.3351C10.9915 26.1385 11.2504 25.9264 11.4965 25.6999C11.8874 25.0891 13.1883 22.3042 13.1883 22.3042C13.1988 22.2889 13.2044 22.2708 13.2044 22.2522C13.2044 22.2337 13.1988 22.2156 13.1883 22.2003" fill="#2D3955"/>
<path d="M22.2081 13.1681C22.2246 13.1784 22.2437 13.1838 22.2631 13.1838C22.2825 13.1838 22.3016 13.1784 22.3181 13.1681C22.3181 13.1681 25.1275 11.8855 25.7382 11.4947C25.7382 11.4947 25.9276 11.3053 26.3917 10.7251C27.4909 9.40642 28.4147 7.95092 29.1401 6.39495C29.1401 6.32777 29.1401 6.30944 29.1401 6.27891C29.1401 6.24837 29.0912 6.24226 29.024 6.27891C27.4671 7.00257 26.0114 7.9265 24.6939 9.02726C24.4204 9.22732 24.1574 9.44137 23.906 9.66854C23.5212 10.2793 22.2204 13.0643 22.2204 13.0643C22.2098 13.0796 22.2042 13.0977 22.2042 13.1162C22.2042 13.1347 22.2098 13.1528 22.2204 13.1681" fill="#2D3955"/>
<path d="M54.2721 23.5881H51.9085C51.874 23.5915 51.8391 23.588 51.806 23.5778C51.7728 23.5676 51.742 23.551 51.7153 23.5288C51.6886 23.5067 51.6666 23.4795 51.6505 23.4488C51.6344 23.4181 51.6245 23.3845 51.6214 23.3499C51.4687 22.7392 51.316 22.1773 51.1511 21.5849H45.7094C45.5445 22.1956 45.3918 22.7636 45.2391 23.3499C45.2361 23.3845 45.2262 23.4181 45.2101 23.4488C45.194 23.4795 45.1719 23.5067 45.1452 23.5288C45.1186 23.551 45.0878 23.5676 45.0546 23.5778C45.0214 23.588 44.9866 23.5915 44.9521 23.5881H42.5885C42.5494 23.5948 42.5091 23.5908 42.4721 23.5764C42.4351 23.5621 42.4026 23.5379 42.3782 23.5066C42.3537 23.4753 42.3382 23.4379 42.3333 23.3985C42.3284 23.3591 42.3343 23.3191 42.3503 23.2828C43.3311 19.3204 44.8757 15.5194 46.937 11.9962C46.9648 11.9393 47.0071 11.8907 47.0596 11.8553C47.1121 11.8199 47.1731 11.799 47.2363 11.7947C48.0293 11.697 48.8313 11.697 49.6243 11.7947C49.6896 11.8 49.7522 11.8234 49.805 11.8622C49.8579 11.901 49.8989 11.9538 49.9236 12.0145C51.9749 15.5275 53.5191 19.3129 54.5102 23.2583C54.5304 23.2957 54.5396 23.338 54.5368 23.3804C54.5341 23.4227 54.5194 23.4635 54.4945 23.4979C54.4697 23.5323 54.4356 23.559 54.3963 23.575C54.3569 23.591 54.3139 23.5955 54.2721 23.5881ZM50.461 19.3129C49.913 17.6332 49.2329 15.9994 48.4272 14.427C47.6262 16.0008 46.9483 17.6344 46.3996 19.3129H50.461Z" fill="#2D3955"/>
<path d="M66.4999 20.1595C66.4999 22.2421 64.973 23.5858 61.901 23.5858H56.5448C56.5085 23.5896 56.4719 23.5853 56.4375 23.5732C56.4032 23.561 56.372 23.5413 56.3462 23.5156C56.3204 23.4898 56.3008 23.4586 56.2886 23.4243C56.2765 23.3899 56.2722 23.3533 56.276 23.317V12.0977C56.2722 12.0614 56.2765 12.0248 56.2886 11.9904C56.3008 11.9561 56.3204 11.9249 56.3462 11.8991C56.372 11.8734 56.4032 11.8537 56.4375 11.8415C56.4719 11.8294 56.5085 11.8251 56.5448 11.8289H62.0415C64.7959 11.8289 65.8342 13.0504 65.8342 14.5468C65.8361 15.1542 65.6457 15.7467 65.2903 16.2394C64.9348 16.732 64.4325 17.0994 63.8554 17.289C65.5105 17.6249 66.4999 18.7792 66.4999 20.1595ZM59.0427 13.9421V16.5378H61.278C62.6217 16.5378 63.208 16.1164 63.208 15.2613C63.208 14.4063 62.6705 13.9482 61.4979 13.9482L59.0427 13.9421ZM61.8338 21.4665C63.0919 21.4665 63.8004 20.9779 63.8004 20.0251C63.8004 19.0724 63.2446 18.6448 61.9682 18.6448H59.0427V21.4665H61.8338Z" fill="#2D3955"/>
<path d="M68.4362 18.4323V12.0806C68.4319 12.045 68.4351 12.0088 68.4457 11.9745C68.4563 11.9402 68.4739 11.9085 68.4975 11.8814C68.5211 11.8543 68.5502 11.8326 68.5827 11.8174C68.6153 11.8023 68.6507 11.7942 68.6866 11.7936C68.9539 11.7598 69.2232 11.7435 69.4927 11.7447C70.6165 11.7447 71.2028 12.2333 71.2028 13.5769V18.3102C71.2028 20.289 72.0945 21.3639 73.8596 21.3639C75.6246 21.3639 76.5102 20.3379 76.5102 18.3102V12.0989C76.5063 12.0627 76.5107 12.0261 76.5228 11.9917C76.5349 11.9574 76.5546 11.9262 76.5804 11.9004C76.6061 11.8746 76.6373 11.8549 76.6717 11.8428C76.7061 11.8307 76.7427 11.8264 76.7789 11.8302H78.9837C79.0195 11.8273 79.0554 11.8323 79.089 11.8449C79.1226 11.8575 79.153 11.8773 79.1781 11.903C79.2031 11.9286 79.2222 11.9595 79.234 11.9933C79.2458 12.0272 79.25 12.0633 79.2463 12.0989V18.4323C79.2463 22.0235 77.2492 23.8374 73.8412 23.8374C70.4333 23.8374 68.4362 22.0357 68.4362 18.4323Z" fill="#2D3955"/>
<path d="M97.4031 17.5699C97.4031 21.0817 94.9601 23.5858 91.0392 23.5858H86.0677C86.0317 23.5885 85.9956 23.5834 85.9617 23.5709C85.9279 23.5584 85.8971 23.5387 85.8716 23.5132C85.8461 23.4876 85.8264 23.4569 85.8138 23.423C85.8013 23.3892 85.7962 23.353 85.799 23.317V12.0977C85.7951 12.0614 85.7994 12.0248 85.8116 11.9904C85.8237 11.9561 85.8434 11.9249 85.8692 11.8991C85.8949 11.8734 85.9261 11.8537 85.9605 11.8415C85.9948 11.8294 86.0315 11.8251 86.0677 11.8289H91.0392C94.9662 11.8289 97.4031 14.2292 97.4031 17.5699ZM91.0392 21.1794C93.0729 21.1794 94.5632 19.9579 94.5632 17.5699C94.5632 15.3896 93.0729 14.2292 91.0392 14.2292H88.5962V21.1794H91.0392Z" fill="#2D3955"/>
<path d="M107.682 12.0989C107.678 12.0627 107.682 12.0261 107.695 11.9917C107.707 11.9574 107.726 11.9262 107.752 11.9004C107.778 11.8746 107.809 11.8549 107.844 11.8428C107.878 11.8307 107.915 11.8264 107.951 11.8302H110.186C110.222 11.8264 110.259 11.8307 110.293 11.8428C110.328 11.8549 110.359 11.8746 110.385 11.9004C110.41 11.9262 110.43 11.9574 110.442 11.9917C110.454 12.0261 110.459 12.0627 110.455 12.0989V23.3183C110.458 23.3543 110.452 23.3904 110.44 23.4243C110.427 23.4581 110.408 23.4889 110.382 23.5144C110.357 23.5399 110.326 23.5596 110.292 23.5722C110.258 23.5847 110.222 23.5898 110.186 23.587H107.951C107.915 23.5898 107.879 23.5847 107.845 23.5722C107.811 23.5596 107.78 23.5399 107.755 23.5144C107.729 23.4889 107.709 23.4581 107.697 23.4243C107.684 23.3904 107.679 23.3543 107.682 23.3183V18.8843H102.442V23.3183C102.446 23.3545 102.441 23.3912 102.429 23.4255C102.417 23.4599 102.397 23.4911 102.372 23.5168C102.346 23.5426 102.315 23.5623 102.28 23.5744C102.246 23.5866 102.209 23.5909 102.173 23.587H99.9439C99.9077 23.5909 99.871 23.5866 99.8367 23.5744C99.8023 23.5623 99.7711 23.5426 99.7454 23.5168C99.7196 23.4911 99.6999 23.4599 99.6878 23.4255C99.6756 23.3912 99.6713 23.3545 99.6752 23.3183V12.0806C99.6709 12.045 99.6741 12.0088 99.6847 11.9745C99.6953 11.9402 99.7129 11.9085 99.7366 11.8814C99.7602 11.8543 99.7892 11.8326 99.8217 11.8174C99.8543 11.8023 99.8897 11.7942 99.9256 11.7936C100.193 11.7598 100.462 11.7435 100.732 11.7447C101.856 11.7447 102.442 12.2333 102.442 13.5769V16.4474H107.682V12.0989Z" fill="#2D3955"/>
<path d="M124.142 23.5881H121.772C121.738 23.5915 121.703 23.5879 121.671 23.5777C121.638 23.5674 121.607 23.5507 121.581 23.5285C121.555 23.5063 121.534 23.479 121.518 23.4484C121.503 23.4177 121.493 23.3842 121.491 23.3499C121.339 22.7392 121.186 22.1773 121.021 21.5849H115.579C115.408 22.1956 115.262 22.7636 115.109 23.3499C115.106 23.3845 115.096 23.4181 115.08 23.4488C115.064 23.4795 115.042 23.5067 115.015 23.5288C114.988 23.551 114.958 23.5676 114.924 23.5778C114.891 23.588 114.856 23.5915 114.822 23.5881H112.464C112.426 23.5935 112.386 23.5885 112.35 23.5736C112.314 23.5588 112.283 23.5345 112.259 23.5034C112.235 23.4723 112.22 23.4355 112.216 23.3967C112.211 23.3579 112.217 23.3186 112.232 23.2828C113.214 19.3215 114.756 15.5209 116.813 11.9962C116.843 11.9395 116.886 11.8913 116.94 11.8561C116.993 11.8209 117.054 11.7997 117.118 11.7947C117.911 11.697 118.713 11.697 119.506 11.7947C119.572 11.8 119.634 11.8234 119.687 11.8622C119.74 11.901 119.781 11.9538 119.806 12.0145C121.85 15.5294 123.39 19.3144 124.38 23.2583C124.4 23.2957 124.409 23.338 124.407 23.3804C124.404 23.4227 124.389 23.4635 124.364 23.4979C124.339 23.5323 124.305 23.559 124.266 23.575C124.227 23.591 124.184 23.5955 124.142 23.5881ZM120.331 19.3129C119.777 17.6352 119.098 16.0018 118.297 14.427C117.496 16.0008 116.818 17.6344 116.269 19.3129H120.331Z" fill="#2D3955"/>
<path d="M136.37 20.1595C136.37 22.2421 134.843 23.5858 131.771 23.5858H126.414C126.378 23.5896 126.342 23.5853 126.307 23.5732C126.273 23.561 126.242 23.5413 126.216 23.5156C126.19 23.4898 126.17 23.4586 126.158 23.4243C126.146 23.3899 126.142 23.3533 126.146 23.317V12.0977C126.142 12.0614 126.146 12.0248 126.158 11.9904C126.17 11.9561 126.19 11.9249 126.216 11.8991C126.242 11.8734 126.273 11.8537 126.307 11.8415C126.342 11.8294 126.378 11.8251 126.414 11.8289H131.911C134.666 11.8289 135.71 13.0504 135.71 14.5468C135.711 15.1548 135.519 15.7474 135.162 16.2399C134.806 16.7324 134.303 17.0996 133.725 17.289C135.38 17.6249 136.37 18.7792 136.37 20.1595ZM128.912 13.9421V16.5378H131.148C132.491 16.5378 133.078 16.1164 133.078 15.2613C133.078 14.4063 132.54 13.9482 131.368 13.9482L128.912 13.9421ZM131.703 21.4665C132.962 21.4665 133.664 20.9779 133.664 20.0251C133.664 19.0724 133.114 18.6448 131.832 18.6448H128.906V21.4665H131.703Z" fill="#2D3955"/>
<path d="M140.888 23.587H138.653C138.617 23.5898 138.581 23.5847 138.547 23.5722C138.513 23.5596 138.482 23.5399 138.457 23.5144C138.431 23.4889 138.411 23.4581 138.399 23.4243C138.386 23.3904 138.381 23.3543 138.384 23.3183V12.0806C138.381 12.0446 138.385 12.0083 138.396 11.974C138.407 11.9397 138.426 11.9081 138.45 11.8811C138.474 11.8542 138.503 11.8325 138.536 11.8174C138.569 11.8024 138.604 11.7942 138.641 11.7936C138.908 11.7598 139.177 11.7435 139.447 11.7447C140.571 11.7447 141.157 12.2333 141.157 13.5769V23.3183C141.161 23.3545 141.156 23.3912 141.144 23.4255C141.132 23.4599 141.112 23.4911 141.087 23.5168C141.061 23.5426 141.03 23.5623 140.995 23.5744C140.961 23.5866 140.924 23.5909 140.888 23.587Z" fill="#2D3955"/>
<path d="M160.132 12.0978L160.383 23.3172C160.388 23.3536 160.384 23.3908 160.373 23.4257C160.361 23.4606 160.341 23.4924 160.315 23.5184C160.289 23.5444 160.257 23.5641 160.222 23.5758C160.188 23.5875 160.15 23.591 160.114 23.5859H157.885C157.848 23.591 157.811 23.5875 157.776 23.5758C157.741 23.5641 157.709 23.5444 157.683 23.5184C157.657 23.4924 157.638 23.4606 157.626 23.4257C157.614 23.3908 157.611 23.3536 157.616 23.3172L157.659 16.9654C156.802 18.5782 155.855 20.142 154.825 21.6498C154.791 21.7042 154.743 21.7486 154.686 21.7787C154.629 21.8087 154.565 21.8232 154.501 21.8208H153.695C153.632 21.8234 153.569 21.8089 153.513 21.7788C153.457 21.7487 153.41 21.7042 153.377 21.6498C152.345 20.1422 151.397 18.5783 150.537 16.9654L150.574 23.3172C150.578 23.3534 150.574 23.39 150.561 23.4244C150.549 23.4587 150.53 23.4899 150.504 23.5157C150.478 23.5415 150.447 23.5611 150.413 23.5733C150.378 23.5854 150.342 23.5897 150.305 23.5859H148.07C148.034 23.5897 147.997 23.5854 147.963 23.5733C147.928 23.5611 147.897 23.5415 147.871 23.5157C147.846 23.4899 147.826 23.4587 147.814 23.4244C147.802 23.39 147.797 23.3534 147.801 23.3172L148.058 12.0978C148.053 12.0619 148.056 12.0253 148.068 11.9909C148.079 11.9566 148.098 11.9252 148.123 11.8993C148.149 11.8734 148.18 11.8536 148.214 11.8414C148.248 11.8292 148.284 11.825 148.32 11.8291H150.33C150.397 11.8263 150.463 11.8441 150.52 11.8801C150.577 11.9161 150.621 11.9687 150.647 12.0306C151.741 14.3637 152.95 16.5135 154.104 18.4923C155.265 16.5135 156.474 14.3637 157.567 12.0306C157.592 11.9681 157.637 11.9151 157.694 11.879C157.751 11.8428 157.817 11.8254 157.885 11.8291H159.882C159.917 11.827 159.952 11.8326 159.985 11.8457C160.017 11.8587 160.046 11.8788 160.07 11.9044C160.094 11.9301 160.112 11.9608 160.123 11.9942C160.134 12.0276 160.137 12.063 160.132 12.0978Z" fill="#2D3955"/>
<path d="M174.077 23.5882H171.707C171.673 23.5916 171.638 23.5881 171.605 23.5779C171.572 23.5677 171.541 23.5511 171.514 23.5289C171.487 23.5068 171.465 23.4796 171.449 23.4489C171.433 23.4182 171.423 23.3846 171.42 23.35C171.274 22.7393 171.121 22.1774 170.95 21.585H165.508C165.343 22.1957 165.191 22.7637 165.044 23.35C165.036 23.4192 165.002 23.4826 164.949 23.527C164.895 23.5715 164.826 23.5934 164.757 23.5882H162.387C162.349 23.5929 162.309 23.5875 162.273 23.5726C162.237 23.5576 162.206 23.5336 162.182 23.5029C162.158 23.4721 162.142 23.4357 162.136 23.3972C162.131 23.3586 162.135 23.3192 162.149 23.2828C163.135 19.3223 164.68 15.522 166.736 11.9963C166.765 11.9393 166.809 11.8907 166.862 11.8554C166.916 11.8201 166.977 11.7992 167.041 11.7947C167.832 11.697 168.632 11.697 169.423 11.7947C169.489 11.799 169.553 11.8219 169.607 11.8608C169.661 11.8997 169.703 11.953 169.728 12.0146C171.775 15.5292 173.317 19.3142 174.309 23.2584C174.331 23.295 174.342 23.3373 174.341 23.3801C174.34 23.4229 174.326 23.4644 174.301 23.4994C174.276 23.5344 174.242 23.5615 174.202 23.5773C174.162 23.5931 174.119 23.5969 174.077 23.5882ZM170.266 19.313C169.713 17.6352 169.033 16.0019 168.232 14.427C167.432 16.0019 166.752 17.6352 166.198 19.313H170.266Z" fill="#2D3955"/>
<path d="M186.248 23.256C186.351 23.4453 186.248 23.5797 186.052 23.5797H183.713C183.646 23.5824 183.579 23.5646 183.523 23.5286C183.466 23.4926 183.421 23.4401 183.395 23.3781C182.785 22.1181 181.958 20.975 180.952 20.0007H178.821V23.317C178.824 23.353 178.819 23.3892 178.806 23.423C178.794 23.4569 178.774 23.4876 178.748 23.5132C178.723 23.5387 178.692 23.5584 178.658 23.5709C178.624 23.5834 178.588 23.5885 178.552 23.5858H176.317C176.281 23.5885 176.245 23.5834 176.211 23.5709C176.177 23.5584 176.146 23.5387 176.121 23.5132C176.095 23.4876 176.076 23.4569 176.063 23.423C176.05 23.3892 176.045 23.353 176.048 23.317V12.0977C176.044 12.0614 176.049 12.0248 176.061 11.9904C176.073 11.9561 176.093 11.9249 176.118 11.8991C176.144 11.8734 176.175 11.8537 176.21 11.8415C176.244 11.8294 176.281 11.8251 176.317 11.8289H180.867C184.11 11.8289 185.954 13.2214 185.954 15.6888C186.02 16.4812 185.803 17.2713 185.343 17.9194C184.883 18.5676 184.208 19.0322 183.438 19.2312C184.613 20.39 185.565 21.7541 186.248 23.256ZM178.845 14.1803V17.6554H180.867C182.382 17.6554 183.2 17.0447 183.2 15.927C183.2 14.8094 182.589 14.1803 180.757 14.1803H178.845Z" fill="#2D3955"/>
<path d="M190.584 23.587H188.355C188.319 23.5907 188.282 23.5863 188.247 23.5742C188.213 23.5621 188.181 23.5426 188.155 23.5169C188.129 23.4913 188.108 23.4602 188.096 23.4259C188.083 23.3916 188.077 23.3548 188.08 23.3183V12.0806C188.077 12.0446 188.081 12.0083 188.092 11.974C188.104 11.9397 188.122 11.9081 188.146 11.8811C188.17 11.8542 188.199 11.8325 188.232 11.8174C188.265 11.8024 188.301 11.7942 188.337 11.7936C188.604 11.7598 188.874 11.7435 189.143 11.7447C190.267 11.7447 190.853 12.2333 190.853 13.5769V23.3183C190.857 23.3545 190.853 23.3912 190.841 23.4255C190.828 23.4599 190.809 23.4911 190.783 23.5168C190.757 23.5426 190.726 23.5623 190.692 23.5744C190.657 23.5866 190.621 23.5909 190.584 23.587Z" fill="#2D3955"/>
<path d="M203.331 12.0815C203.465 13.3579 203.098 14.1824 201.437 14.1824H199.098V23.3436C199.102 23.3798 199.098 23.4165 199.085 23.4508C199.073 23.4852 199.054 23.5164 199.028 23.5422C199.002 23.5679 198.971 23.5876 198.937 23.5997C198.902 23.6119 198.866 23.6162 198.829 23.6123H196.6C196.564 23.6162 196.527 23.6119 196.493 23.5997C196.459 23.5876 196.427 23.5679 196.402 23.5422C196.376 23.5164 196.356 23.4852 196.344 23.4508C196.332 23.4165 196.328 23.3798 196.331 23.3436V14.1824H192.722C192.686 14.1863 192.649 14.182 192.615 14.1698C192.58 14.1577 192.549 14.138 192.523 14.1123C192.498 14.0865 192.478 14.0553 192.466 14.0209C192.454 13.9866 192.449 13.95 192.453 13.9137V12.0815C192.449 12.0453 192.454 12.0086 192.466 11.9743C192.478 11.9399 192.498 11.9087 192.523 11.883C192.549 11.8572 192.58 11.8375 192.615 11.8254C192.649 11.8132 192.686 11.8089 192.722 11.8128H203.05C203.087 11.8081 203.124 11.8117 203.159 11.8234C203.195 11.8351 203.227 11.8545 203.254 11.8802C203.281 11.906 203.302 11.9374 203.315 11.9722C203.328 12.007 203.334 12.0444 203.331 12.0815Z" fill="#2D3955"/>
<path d="M207.466 23.587H205.231C205.195 23.5897 205.159 23.5847 205.125 23.5721C205.091 23.5596 205.06 23.5399 205.035 23.5144C205.009 23.4889 204.99 23.4581 204.977 23.4243C204.965 23.3904 204.96 23.3543 204.962 23.3183V12.0806C204.959 12.0451 204.963 12.0093 204.974 11.9754C204.985 11.9415 205.002 11.9101 205.026 11.8833C205.049 11.8564 205.078 11.8346 205.11 11.8192C205.142 11.8037 205.177 11.795 205.213 11.7935C205.48 11.7601 205.749 11.7438 206.019 11.7447C207.149 11.7447 207.735 12.2333 207.735 13.5769V23.3183C207.738 23.3543 207.733 23.3904 207.72 23.4243C207.708 23.4581 207.688 23.4889 207.662 23.5144C207.637 23.5399 207.606 23.5596 207.572 23.5721C207.539 23.5847 207.502 23.5897 207.466 23.587Z" fill="#2D3955"/>
<path d="M222.764 12.0986L223.008 23.3179C223.013 23.3544 223.01 23.3916 222.998 23.4265C222.986 23.4614 222.966 23.4931 222.94 23.5192C222.914 23.5452 222.883 23.5649 222.848 23.5766C222.813 23.5883 222.776 23.5917 222.739 23.5867H220.51C220.473 23.5915 220.436 23.588 220.401 23.5763C220.366 23.5646 220.334 23.545 220.307 23.5191C220.281 23.4933 220.26 23.4617 220.248 23.4268C220.236 23.392 220.231 23.3547 220.235 23.3179L220.272 16.9662C219.413 18.5791 218.465 20.143 217.432 21.6506C217.4 21.7054 217.353 21.7503 217.297 21.7804C217.241 21.8106 217.178 21.8248 217.114 21.8216H216.29C216.226 21.8242 216.163 21.8096 216.108 21.7796C216.052 21.7495 216.005 21.7049 215.972 21.6506C214.939 20.143 213.991 18.5791 213.132 16.9662L213.169 23.3179C213.173 23.3542 213.168 23.3908 213.156 23.4252C213.144 23.4595 213.124 23.4907 213.099 23.5165C213.073 23.5422 213.042 23.5619 213.007 23.5741C212.973 23.5862 212.936 23.5905 212.9 23.5867H210.665C210.628 23.5917 210.591 23.5883 210.556 23.5766C210.521 23.5649 210.49 23.5452 210.464 23.5192C210.438 23.4931 210.418 23.4614 210.406 23.4265C210.394 23.3916 210.391 23.3544 210.396 23.3179L210.646 12.0986C210.643 12.0623 210.647 12.0257 210.659 11.9913C210.671 11.957 210.691 11.9258 210.717 11.9C210.742 11.8743 210.774 11.8546 210.808 11.8424C210.842 11.8303 210.879 11.826 210.915 11.8298H212.912C212.98 11.8267 213.048 11.8442 213.106 11.8802C213.163 11.9162 213.209 11.9689 213.236 12.0314C214.323 14.3644 215.532 16.5142 216.693 18.4931C217.853 16.5142 219.063 14.3644 220.15 12.0314C220.177 11.9689 220.222 11.9162 220.28 11.8802C220.338 11.8442 220.405 11.8267 220.473 11.8298H222.47C222.509 11.8218 222.548 11.8229 222.585 11.8331C222.623 11.8434 222.658 11.8624 222.686 11.8887C222.715 11.915 222.737 11.9478 222.75 11.9843C222.764 12.0208 222.768 12.06 222.764 12.0986Z" fill="#2D3955"/>
<path d="M228.506 21.3138H234.351C234.387 21.3111 234.423 21.3161 234.457 21.3287C234.491 21.3412 234.522 21.3609 234.547 21.3864C234.573 21.4119 234.592 21.4427 234.605 21.4765C234.617 21.5104 234.623 21.5465 234.62 21.5825V23.317C234.623 23.353 234.617 23.3892 234.605 23.423C234.592 23.4569 234.573 23.4876 234.547 23.5132C234.522 23.5387 234.491 23.5584 234.457 23.5709C234.423 23.5834 234.387 23.5885 234.351 23.5858H225.972C225.936 23.5885 225.899 23.5834 225.866 23.5709C225.832 23.5584 225.801 23.5387 225.776 23.5132C225.75 23.4876 225.73 23.4569 225.718 23.423C225.705 23.3892 225.7 23.353 225.703 23.317V12.0977C225.699 12.0614 225.703 12.0248 225.716 11.9904C225.728 11.9561 225.747 11.9249 225.773 11.8991C225.799 11.8734 225.83 11.8537 225.864 11.8415C225.899 11.8294 225.935 11.8251 225.972 11.8289H234.156C234.191 11.8261 234.227 11.8311 234.261 11.8437C234.294 11.8562 234.325 11.8761 234.35 11.9017C234.375 11.9274 234.394 11.9582 234.406 11.9921C234.418 12.0259 234.422 12.062 234.418 12.0977V13.8261C234.422 13.8617 234.418 13.8978 234.406 13.9317C234.394 13.9655 234.375 13.9964 234.35 14.022C234.325 14.0477 234.294 14.0675 234.261 14.0801C234.227 14.0927 234.191 14.0977 234.156 14.0948H228.506V16.4462H233.392C233.429 16.4426 233.466 16.447 233.501 16.4591C233.536 16.4711 233.568 16.4906 233.594 16.5161C233.621 16.5416 233.642 16.5726 233.655 16.6069C233.669 16.6412 233.675 16.678 233.673 16.7149V17.0997C233.74 18.3212 233.105 18.7975 231.743 18.7975H228.506V21.3138Z" fill="#2D3955"/>
<path d="M54.2721 43.743H51.9085C51.874 43.7463 51.8391 43.7428 51.806 43.7327C51.7728 43.7225 51.742 43.7058 51.7153 43.6837C51.6886 43.6615 51.6666 43.6343 51.6505 43.6036C51.6344 43.5729 51.6245 43.5393 51.6214 43.5048C51.4687 42.894 51.316 42.3322 51.1511 41.7397H45.7094C45.5445 42.3505 45.3918 42.9185 45.2391 43.5048C45.2361 43.5393 45.2262 43.5729 45.2101 43.6036C45.194 43.6343 45.1719 43.6615 45.1452 43.6837C45.1186 43.7058 45.0878 43.7225 45.0546 43.7327C45.0214 43.7428 44.9866 43.7463 44.9521 43.743H42.5885C42.5494 43.7496 42.5091 43.7456 42.4721 43.7313C42.4351 43.7169 42.4026 43.6928 42.3782 43.6615C42.3537 43.6301 42.3382 43.5928 42.3333 43.5534C42.3284 43.514 42.3343 43.4739 42.3503 43.4376C43.3311 39.4752 44.8757 35.6743 46.937 32.151C46.9648 32.0941 47.0071 32.0455 47.0596 32.0101C47.1121 31.9747 47.1731 31.9538 47.2363 31.9495C48.0293 31.8519 48.8313 31.8519 49.6243 31.9495C49.6896 31.9549 49.7522 31.9783 49.805 32.0171C49.8579 32.0559 49.8989 32.1086 49.9236 32.1694C51.9749 35.6823 53.5191 39.4677 54.5102 43.4132C54.5304 43.4505 54.5396 43.4928 54.5368 43.5352C54.5341 43.5776 54.5194 43.6183 54.4945 43.6527C54.4697 43.6872 54.4356 43.7139 54.3963 43.7299C54.3569 43.7458 54.3139 43.7504 54.2721 43.743ZM50.461 39.4678C49.913 37.788 49.2329 36.1543 48.4272 34.5818C47.6262 36.1557 46.9483 37.7892 46.3996 39.4678H50.461Z" fill="#2D3955"/>
<path d="M55.8551 37.7452C55.8551 34.319 58.3408 31.7355 62.6588 31.7355C63.8028 31.7111 64.9426 31.8805 66.0301 32.2363C66.096 32.2549 66.1521 32.2985 66.1863 32.3579C66.2205 32.4172 66.2302 32.4875 66.2133 32.5539L66.1523 33.0608C65.9812 34.2823 65.3949 34.5388 64.32 34.3678C63.7138 34.273 63.1013 34.224 62.4878 34.2212C60.0448 34.2212 58.6767 35.6137 58.6767 37.7452C58.6767 40.1882 60.0326 41.4097 62.1824 41.4097C63.491 41.425 64.7718 41.0322 65.8469 40.2859C66.0301 40.1699 66.1645 40.2554 66.1828 40.457L66.366 42.7228C66.3798 42.7805 66.3741 42.8412 66.3498 42.8953C66.3255 42.9495 66.2839 42.994 66.2317 43.0221C64.981 43.6827 63.5845 44.0187 62.1702 43.9993C58.2248 44.0237 55.8551 41.4586 55.8551 37.7452Z" fill="#2D3955"/>
<path d="M79.9179 43.743H77.5543C77.5198 43.7463 77.485 43.7428 77.4518 43.7327C77.4187 43.7225 77.3879 43.7058 77.3612 43.6837C77.3345 43.6615 77.3125 43.6343 77.2964 43.6036C77.2802 43.5729 77.2704 43.5393 77.2673 43.5048C77.1146 42.894 76.968 42.3322 76.797 41.7397H71.3553C71.1904 42.3505 71.0377 42.9185 70.885 43.5048C70.882 43.5393 70.8721 43.5729 70.856 43.6036C70.8399 43.6343 70.8178 43.6615 70.7911 43.6837C70.7644 43.7058 70.7336 43.7225 70.7005 43.7327C70.6673 43.7428 70.6325 43.7463 70.598 43.743H68.2344C68.1952 43.7497 68.155 43.7456 68.118 43.7313C68.0809 43.7169 68.0485 43.6928 68.024 43.6615C67.9996 43.6301 67.9841 43.5928 67.9792 43.5534C67.9743 43.514 67.9802 43.4739 67.9962 43.4376C68.9797 39.4761 70.5242 35.6755 72.5829 32.151C72.6111 32.0945 72.6536 32.0462 72.706 32.0109C72.7584 31.9756 72.8191 31.9544 72.8822 31.9495C73.6752 31.8519 74.4772 31.8519 75.2702 31.9495C75.3355 31.9549 75.3981 31.9783 75.4509 32.0171C75.5037 32.0559 75.5448 32.1086 75.5694 32.1694C77.6208 35.6823 79.165 39.4677 80.1561 43.4132C80.1791 43.4502 80.1906 43.4933 80.1891 43.5368C80.1876 43.5804 80.1731 43.6226 80.1476 43.6579C80.1221 43.6933 80.0866 43.7203 80.0457 43.7354C80.0048 43.7505 79.9603 43.7532 79.9179 43.743ZM76.1069 39.4678C75.5581 37.7892 74.8802 36.1557 74.0792 34.5818C73.2735 36.1543 72.5935 37.788 72.0454 39.4678H76.1069Z" fill="#2D3955"/>
<path d="M93.5319 37.7243C93.5319 41.2361 91.0889 43.7401 87.1679 43.7401H82.1965C82.1603 43.744 82.1236 43.7397 82.0893 43.7275C82.0549 43.7154 82.0237 43.6957 81.9979 43.6699C81.9722 43.6442 81.9525 43.613 81.9404 43.5786C81.9282 43.5443 81.9239 43.5076 81.9278 43.4714V32.252C81.9239 32.2158 81.9282 32.1792 81.9404 32.1448C81.9525 32.1105 81.9722 32.0793 81.9979 32.0535C82.0237 32.0277 82.0549 32.008 82.0893 31.9959C82.1236 31.9838 82.1603 31.9795 82.1965 31.9833H87.1679C91.0889 31.9833 93.5319 34.3835 93.5319 37.7243ZM87.1679 41.3338C89.1956 41.3338 90.6919 40.1123 90.6919 37.7243C90.6919 35.5439 89.1956 34.3835 87.1679 34.3835H84.725V41.3338H87.1679Z" fill="#2D3955"/>
<path d="M98.5632 41.4682H104.408C104.444 41.4654 104.48 41.4705 104.514 41.483C104.548 41.4955 104.579 41.5153 104.604 41.5408C104.63 41.5663 104.649 41.597 104.662 41.6309C104.674 41.6647 104.68 41.7009 104.677 41.7369V43.4714C104.68 43.5074 104.674 43.5435 104.662 43.5774C104.649 43.6112 104.63 43.642 104.604 43.6675C104.579 43.693 104.548 43.7127 104.514 43.7253C104.48 43.7378 104.444 43.7429 104.408 43.7401H96.0592C96.0232 43.7429 95.987 43.7378 95.9532 43.7253C95.9193 43.7127 95.8886 43.693 95.863 43.6675C95.8375 43.642 95.8178 43.6112 95.8053 43.5774C95.7927 43.5435 95.7877 43.5074 95.7904 43.4714V32.252C95.7866 32.2158 95.7909 32.1792 95.803 32.1448C95.8152 32.1105 95.8349 32.0793 95.8606 32.0535C95.8864 32.0277 95.9176 32.008 95.9519 31.9959C95.9863 31.9838 96.0229 31.9795 96.0592 31.9833H104.237C104.273 31.9795 104.31 31.9838 104.344 31.9959C104.379 32.008 104.41 32.0277 104.436 32.0535C104.461 32.0793 104.481 32.1105 104.493 32.1448C104.505 32.1792 104.51 32.2158 104.506 32.252V33.9804C104.51 34.0167 104.505 34.0533 104.493 34.0877C104.481 34.122 104.461 34.1532 104.436 34.179C104.41 34.2047 104.379 34.2244 104.344 34.2366C104.31 34.2487 104.273 34.253 104.237 34.2492H98.5632V36.6005H103.449C103.486 36.5971 103.523 36.6015 103.559 36.6135C103.594 36.6255 103.626 36.6449 103.653 36.6703C103.68 36.6957 103.702 36.7266 103.716 36.7609C103.73 36.7952 103.737 36.8321 103.736 36.8693V37.254C103.803 38.4755 103.162 38.9519 101.806 38.9519H98.5632V41.4682Z" fill="#2D3955"/>
<path d="M119.121 32.252L119.372 43.4714C119.377 43.5079 119.373 43.545 119.361 43.58C119.35 43.6149 119.33 43.6466 119.304 43.6726C119.278 43.6987 119.246 43.7183 119.211 43.73C119.176 43.7417 119.139 43.7452 119.103 43.7401H116.868C116.831 43.744 116.795 43.7397 116.76 43.7275C116.726 43.7154 116.695 43.6957 116.669 43.6699C116.643 43.6442 116.624 43.613 116.611 43.5786C116.599 43.5443 116.595 43.5076 116.599 43.4714L116.635 37.1197C115.776 38.7326 114.828 40.2964 113.795 41.8041C113.763 41.8584 113.716 41.9029 113.66 41.933C113.604 41.9631 113.541 41.9776 113.478 41.9751H112.672C112.608 41.9783 112.545 41.9641 112.489 41.9339C112.433 41.9038 112.386 41.8589 112.354 41.8041C111.321 40.2964 110.373 38.7326 109.514 37.1197L109.551 43.4714C109.555 43.5076 109.55 43.5443 109.538 43.5786C109.526 43.613 109.506 43.6442 109.481 43.6699C109.455 43.6957 109.424 43.7154 109.389 43.7275C109.355 43.7397 109.318 43.744 109.282 43.7401H107.047C107.01 43.7452 106.973 43.7417 106.938 43.73C106.903 43.7183 106.872 43.6987 106.846 43.6726C106.819 43.6466 106.8 43.6149 106.788 43.58C106.776 43.545 106.773 43.5079 106.778 43.4714L107.028 32.252C107.025 32.2158 107.029 32.1792 107.041 32.1448C107.053 32.1105 107.073 32.0793 107.099 32.0535C107.124 32.0277 107.156 32.008 107.19 31.9959C107.224 31.9838 107.261 31.9795 107.297 31.9833H109.294C109.362 31.9801 109.43 31.9977 109.488 32.0337C109.545 32.0697 109.591 32.1224 109.618 32.1848C110.705 34.5179 111.914 36.6677 113.075 38.6465C114.235 36.6677 115.444 34.5179 116.532 32.1848C116.559 32.1224 116.604 32.0697 116.662 32.0337C116.72 31.9977 116.787 31.9801 116.855 31.9833H118.852C118.889 31.9795 118.925 31.9838 118.96 31.9959C118.994 32.008 119.025 32.0277 119.051 32.0535C119.077 32.0793 119.096 32.1105 119.109 32.1448C119.121 32.1792 119.125 32.2158 119.121 32.252Z" fill="#2D3955"/>
<path d="M130.389 31.9826H132.991C133.192 31.9826 133.278 32.117 133.193 32.3002C131.825 35.2089 130.202 37.9905 128.343 40.6124V43.4707C128.346 43.5067 128.341 43.5429 128.328 43.5767C128.316 43.6106 128.296 43.6413 128.271 43.6668C128.245 43.6923 128.214 43.712 128.18 43.7246C128.147 43.7371 128.11 43.7422 128.074 43.7394H125.839C125.803 43.7422 125.767 43.7371 125.733 43.7246C125.699 43.712 125.669 43.6923 125.643 43.6668C125.618 43.6413 125.598 43.6106 125.585 43.5767C125.573 43.5429 125.568 43.5067 125.57 43.4707V40.6491C123.694 38.019 122.058 35.2247 120.684 32.3002C120.599 32.117 120.684 31.9826 120.886 31.9826H123.488C123.553 31.9769 123.619 31.9938 123.673 32.0305C123.727 32.0672 123.768 32.1214 123.787 32.1842C124.666 34.2773 125.719 36.2936 126.932 38.2122C128.142 36.2921 129.192 34.276 130.072 32.1842C130.091 32.118 130.134 32.0611 130.193 32.0241C130.251 31.9871 130.321 31.9724 130.389 31.9826Z" fill="#2D3955"/>
</svg>
