<svg xmlns:xlink="http://www.w3.org/1999/xlink" xmlns="http://www.w3.org/2000/svg" width="53" height="48" viewBox="0 0 53 48" fill="none">
<path fill-rule="evenodd" clip-rule="evenodd" d="M52.4009 27.0213C52.3011 27.16 52.1589 27.2462 52.0024 27.2631C46.9185 27.8071 41.912 29.6213 37.5236 32.5084C30.6348 37.04 26.5379 43.2507 24.3138 47.6622C24.2092 47.8711 24.0135 48 23.8043 48C23.7004 48 23.6022 47.9689 23.5104 47.9084C23.2293 47.7227 23.1326 47.3093 23.2955 46.9867C23.7164 46.1511 24.2275 45.2391 24.785 44.2996H2.57957C2.28728 44.824 1.99339 45.3458 1.72186 45.8844C1.61724 46.0933 1.42238 46.2222 1.21235 46.2222C1.10933 46.2222 1.0103 46.192 0.919258 46.1316C0.638147 45.9449 0.541515 45.5316 0.703633 45.2098C2.26412 42.1156 4.15922 39.248 6.33783 36.6871C6.3562 36.6649 6.38096 36.6551 6.40172 36.6364C5.18943 36.2693 4.08096 35.5102 3.23124 34.4178C2.00856 32.8453 1.42717 30.7422 1.63561 28.648L3.84217 6.55911C4.21592 2.81956 6.97113 0 10.251 0H25.1028C26.2935 0 27.4659 0.382222 28.4913 1.104C39.7956 9.07111 46.2253 11.2169 48.4646 11.7698C49.4788 12.0204 50.2143 13.0622 50.2143 14.2489V23.1182C50.2143 24.2373 49.5587 25.2373 48.6187 25.5511C36.5469 29.5804 32.1889 33.0436 30.6659 34.7493C29.4321 36.1316 27.8197 36.8916 26.1258 36.8916H8.04606C7.78252 36.8916 7.52138 36.8684 7.26263 36.832C7.38721 37.0862 7.36565 37.4107 7.17957 37.6284C6.86572 37.9982 6.58221 38.3982 6.28193 38.7813H28.679C30.8528 36.1662 33.5625 33.5582 36.9382 31.3378C41.4719 28.3547 46.6429 26.4809 51.893 25.9191C51.9114 25.9173 51.9305 25.9164 51.9489 25.9164C52.254 25.9164 52.5055 26.1796 52.5335 26.5289C52.5487 26.7076 52.5015 26.8827 52.4009 27.0213ZM8.04686 35.544H26.1274C27.5122 35.544 28.8323 34.9182 29.8442 33.784C31.8 31.592 36.5884 28.16 48.2905 24.256C48.7305 24.1102 49.038 23.6418 49.038 23.1191V14.2498C49.038 13.6862 48.701 13.2089 48.2186 13.0889C45.3628 12.384 38.9236 10.0391 27.8756 2.25333C27.0362 1.66222 26.0779 1.35022 25.1036 1.35022H10.251C7.56849 1.35022 5.31561 3.65511 5.01054 6.71289L2.80478 28.8018C2.63388 30.5138 3.10985 32.2338 4.10891 33.52C5.10877 34.8062 6.54388 35.544 8.04686 35.544ZM5.2094 40.1573C4.56971 41.0507 3.96037 41.9742 3.38297 42.9244H25.6331C26.2153 42.0213 26.8661 41.0924 27.5793 40.1573H5.2094ZM8.37829 25.2364C9.49235 25.2364 10.3988 26.2764 10.3988 27.5547C10.3988 28.8329 9.49235 29.8729 8.37829 29.8729C7.26422 29.8729 6.357 28.8329 6.357 27.5547C6.357 26.2764 7.26422 25.2364 8.37829 25.2364ZM22.3212 25.2364C23.4353 25.2364 24.3417 26.2764 24.3417 27.5547C24.3417 28.8329 23.4353 29.8729 22.3212 29.8729C21.2072 29.8729 20.3007 28.8329 20.3007 27.5547C20.3007 26.2764 21.2072 25.2364 22.3212 25.2364ZM22.6247 15.5662H9.52349C8.7752 15.5662 8.06763 15.1902 7.58367 14.5351C7.09971 13.88 6.89287 13.0178 7.01586 12.1698L7.91349 5.99111C8.11874 4.57956 9.1729 3.55378 10.4211 3.55378H21.9507C23.2309 3.55378 24.3154 4.65244 24.4743 6.10933L25.1475 12.288C25.2386 13.1173 25.0134 13.9529 24.531 14.5796C24.0486 15.2062 23.3538 15.5662 22.6247 15.5662ZM23.3075 6.27733C23.2229 5.49511 22.6399 4.90489 21.9523 4.90489H10.7246L10.4211 4.904C9.7511 4.904 9.18408 5.45422 9.07388 6.21333L8.17624 12.392C8.10915 12.8542 8.21777 13.3058 8.48131 13.6631C8.74645 14.0204 9.117 14.2178 9.52349 14.2178H22.6247C23.0224 14.2178 23.3866 14.0293 23.6493 13.6871C23.9121 13.3467 24.0303 12.9093 23.9815 12.456L23.3075 6.27733ZM30.499 7.19911C30.6995 7.19911 30.8959 7.24356 31.0828 7.33067L47.7099 15.0649C48.2977 15.3387 48.6778 15.9867 48.6778 16.7147V20.0987C48.6778 21.08 47.9814 21.8782 47.1269 21.8782H30.499C29.6437 21.8782 28.9481 21.08 28.9481 20.0987V8.97956C28.9481 7.99733 29.6437 7.19911 30.499 7.19911ZM43.6545 20.5298H47.1269C47.3337 20.5298 47.5022 20.336 47.5022 20.0987V16.7147C47.5022 16.5351 47.408 16.3778 47.2627 16.3138L43.6545 14.6347V20.5298ZM37.1323 20.5298H42.4558V14.0773L37.1323 11.6009V20.5298ZM30.1245 20.0987C30.1245 20.336 30.293 20.5298 30.4998 20.5298H35.9336V11.0436L30.606 8.56533L30.5693 8.55911C30.5485 8.55556 30.5286 8.55378 30.5078 8.55378C30.293 8.55378 30.1245 8.74133 30.1245 8.97956V20.0987Z" fill="white"/>
</svg>