<svg xmlns:xlink="http://www.w3.org/1999/xlink" xmlns="http://www.w3.org/2000/svg" width="46" height="48" viewBox="0 0 46 48" fill="none">
<path fill-rule="evenodd" clip-rule="evenodd" d="M44.7107 44.1108C43.557 44.1108 42.9608 43.6087 42.4344 43.1654C41.9483 42.7546 41.5638 42.4312 40.7224 42.4312C39.8811 42.4312 39.4965 42.7546 39.0093 43.1654C38.4834 43.6087 37.8866 44.1108 36.7329 44.1108C35.5785 44.1108 34.983 43.6087 34.4578 43.164C33.9705 42.7546 33.5866 42.4312 32.7465 42.4312C31.9058 42.4312 31.5218 42.7546 31.0352 43.1654C30.5093 43.6087 29.9126 44.1108 28.7594 44.1108C27.6063 44.1108 27.0102 43.6087 26.4843 43.1647C25.9983 42.7546 25.6137 42.4312 24.7736 42.4312C23.9342 42.4312 23.5502 42.7539 23.0623 43.1647C22.5371 43.6087 21.9422 44.1108 20.7885 44.1108C19.6347 44.1108 19.0392 43.6087 18.514 43.1647C18.028 42.7546 17.6434 42.4312 16.8039 42.4312C15.9632 42.4312 15.5786 42.7546 15.092 43.1654C14.5668 43.6087 13.9712 44.1108 12.8175 44.1108C11.6656 44.1108 11.0695 43.6087 10.5424 43.1647C10.0564 42.7546 9.6718 42.4312 8.8317 42.4312C7.99223 42.4312 7.60827 42.7539 7.12039 43.1647C6.59518 43.6087 6.00026 44.1108 4.84591 44.1108C3.69342 44.1108 3.09726 43.6087 2.57018 43.1647C2.08417 42.7546 1.70021 42.4312 0.860112 42.4312C0.596882 42.4312 0.382812 42.1853 0.382812 41.8826C0.382812 41.5799 0.596882 41.334 0.860112 41.334C2.0126 41.334 2.60876 41.8369 3.1346 42.2802C3.62061 42.6902 4.00457 43.0144 4.84591 43.0144C5.68601 43.0144 6.06996 42.6902 6.5566 42.2809C6.91504 41.9782 7.31082 41.6519 7.88831 41.4726C6.36991 35.5567 4.17259 26.9929 4.17259 26.9929C4.10538 26.7311 4.22548 26.4222 4.44017 26.3058L8.18452 24.2798V14.098C8.18327 13.8944 8.28284 13.6935 8.43655 13.5917L12.7161 10.3744V6.2871C12.7117 6.0419 12.8592 5.80364 13.0621 5.72675L22.628 0.0180087C22.6784 0.0124675 22.7145 0 22.7854 0C22.857 0 22.8925 0.0124675 22.9429 0.0180087L32.5088 5.72675C32.7116 5.80364 32.8591 6.0419 32.8548 6.2871V10.3744L37.1343 13.5917C37.288 13.6935 37.3876 13.8944 37.3863 14.098V24.2798L41.1307 26.3058C41.3453 26.4222 41.4655 26.7311 41.3982 26.9929C41.3982 26.9929 38.6801 37.0223 37.1492 42.9714C37.7093 42.8793 38.0503 42.6133 38.4455 42.2802C38.9713 41.8369 39.5675 41.334 40.7224 41.334C41.8762 41.334 42.4723 41.8369 42.9982 42.2802C43.4848 42.6902 43.8688 43.0144 44.7107 43.0144C44.9739 43.0144 45.188 43.2603 45.188 43.5622C45.188 43.8649 44.9739 44.1108 44.7107 44.1108ZM13.4709 11.2249L9.19139 14.4416V23.7195L22.3623 16.577V1.43377L13.7229 6.70338V10.7179C13.7242 10.9216 13.6246 11.1224 13.4709 11.2249ZM36.3794 14.4416L32.0999 11.2249C31.9462 11.1224 31.846 10.9216 31.8479 10.7179V6.70338L23.208 1.43307V16.577L36.3794 23.7195V14.4416ZM40.2968 27.137L22.7854 17.6429L5.27405 27.137L6.34377 31.3517L22.628 24.1399C22.7201 24.1046 22.8364 24.0984 22.9429 24.1399L39.2271 31.3517L40.2968 27.137ZM38.9277 32.4551L22.7854 25.2973L6.64309 32.4551L8.90825 41.3382C10.0085 41.361 10.5928 41.8473 11.1068 42.2802C11.5928 42.6902 11.9768 43.0144 12.8175 43.0144C13.657 43.0144 14.0416 42.6909 14.5288 42.2809C15.0546 41.8369 15.6508 41.334 16.8039 41.334C17.9564 41.334 18.5526 41.8369 19.079 42.2809C19.565 42.6909 19.9484 43.0144 20.7885 43.0144C21.6279 43.0144 22.0119 42.6909 22.4985 42.2809C23.0244 41.8369 23.6205 41.334 24.7736 41.334C25.9274 41.334 26.5229 41.8369 27.0488 42.2809C27.5348 42.6902 27.9193 43.0144 28.7594 43.0144C29.5995 43.0144 29.9835 42.6909 30.4708 42.2809C30.9966 41.8369 31.5927 41.334 32.7465 41.334C33.9015 41.334 34.4964 41.8369 35.0222 42.2809C35.3676 42.5718 35.6682 42.8135 36.11 42.9326L38.9277 32.4551ZM26.8129 10.0468C27.9193 10.0468 28.8273 11.0899 28.8273 12.3616C28.8273 13.6332 27.9193 14.6764 26.8129 14.6764C25.7071 14.6764 24.7992 13.6332 24.7992 12.3616C24.7992 11.0899 25.7071 10.0468 26.8129 10.0468ZM26.8129 13.519C27.3755 13.519 27.8204 13.0078 27.8204 12.3616C27.8204 11.7153 27.3755 11.2042 26.8129 11.2042C26.251 11.2042 25.806 11.7153 25.806 12.3616C25.806 13.0078 26.251 13.519 26.8129 13.519ZM18.7579 10.0468C19.8637 10.0468 20.7717 11.0899 20.7717 12.3616C20.7717 13.6332 19.8637 14.6764 18.7579 14.6764C17.6515 14.6764 16.7436 13.6332 16.7436 12.3616C16.7436 11.0899 17.6515 10.0468 18.7579 10.0468ZM18.7579 13.519C19.3199 13.519 19.7648 13.0078 19.7648 12.3616C19.7648 11.7153 19.3199 11.2042 18.7579 11.2042C18.1954 11.2042 17.7504 11.7153 17.7504 12.3616C17.7504 13.0078 18.1954 13.519 18.7579 13.519ZM0.860112 45.2232C2.0126 45.2232 2.60876 45.7254 3.1346 46.1687C3.62061 46.5787 4.00457 46.9035 4.84591 46.9035C5.68601 46.9035 6.06996 46.5794 6.5566 46.1694C7.08243 45.7261 7.67797 45.2232 8.8317 45.2232C9.98419 45.2232 10.581 45.7254 11.1068 46.1687C11.5928 46.5787 11.9768 46.9035 12.8175 46.9035C13.657 46.9035 14.0416 46.5801 14.5288 46.1694C15.0546 45.7261 15.6508 45.2232 16.8039 45.2232C17.9564 45.2232 18.5526 45.7261 19.079 46.17C19.565 46.5801 19.9484 46.9035 20.7885 46.9035C21.6279 46.9035 22.0119 46.5801 22.4985 46.1694C23.0244 45.7261 23.6205 45.2232 24.7736 45.2232C25.9274 45.2232 26.5229 45.7261 27.0488 46.1694C27.5348 46.5794 27.9193 46.9035 28.7594 46.9035C29.5995 46.9035 29.9835 46.5801 30.4708 46.1694C30.9966 45.7261 31.5927 45.2232 32.7465 45.2232C33.9015 45.2232 34.4964 45.7261 35.0222 46.17C35.5088 46.5801 35.8934 46.9035 36.7329 46.9035C37.5749 46.9035 37.9588 46.5787 38.4455 46.1687C38.9713 45.7254 39.5675 45.2232 40.7224 45.2232C41.8762 45.2232 42.4723 45.7254 42.9982 46.1687C43.4848 46.5787 43.8688 46.9035 44.7107 46.9035C44.9739 46.9035 45.188 47.1494 45.188 47.4507C45.188 47.7534 44.9739 48 44.7107 48C43.557 48 42.9608 47.4971 42.4344 47.0539C41.9483 46.6438 41.5638 46.3197 40.7224 46.3197C39.8811 46.3197 39.4965 46.6438 39.0093 47.0539C38.4834 47.4971 37.8866 48 36.7329 48C35.5785 48 34.983 47.4971 34.4578 47.0532C33.9705 46.6431 33.5866 46.3197 32.7465 46.3197C31.9058 46.3197 31.5218 46.6438 31.0352 47.0539C30.5093 47.4971 29.9126 48 28.7594 48C27.6063 48 27.0102 47.4971 26.4843 47.0532C25.9983 46.6438 25.6137 46.3197 24.7736 46.3197C23.9342 46.3197 23.5502 46.6431 23.0623 47.0532C22.5371 47.4971 21.9422 48 20.7885 48C19.6347 48 19.0392 47.4971 18.514 47.0532C18.028 46.6438 17.6434 46.3197 16.8039 46.3197C15.9632 46.3197 15.5786 46.6438 15.092 47.0539C14.5668 47.4971 13.9712 48 12.8175 48C11.6656 48 11.0695 47.4971 10.5424 47.0532C10.0564 46.6438 9.6718 46.3197 8.8317 46.3197C7.99223 46.3197 7.60827 46.6431 7.12039 47.0532C6.59518 47.4971 6.00026 48 4.84591 48C3.69342 48 3.09726 47.4971 2.57018 47.0532C2.08417 46.6438 1.70021 46.3197 0.860112 46.3197C0.596882 46.3197 0.382812 46.0738 0.382812 45.7711C0.382812 45.4691 0.596882 45.2232 0.860112 45.2232Z" fill="white"/>
</svg>