<svg xmlns:xlink="http://www.w3.org/1999/xlink" xmlns="http://www.w3.org/2000/svg" width="41" height="48" viewBox="0 0 41 48" fill="none">
<g clip-path="url(#clip0_2734:15379)">
<path fill-rule="evenodd" clip-rule="evenodd" d="M40.4072 13.4223H27.5447C27.2435 13.4223 26.9989 13.1507 26.9989 12.8167V0.603636C26.9989 0.269609 27.2435 -0.00195312 27.5447 -0.00195312C27.8454 -0.00195312 28.09 0.269609 28.09 0.603636V12.2124H40.4072C40.7079 12.2124 40.9525 12.484 40.9525 12.818C40.9525 13.1514 40.7079 13.4223 40.4072 13.4223ZM20.8296 47.9987C20.5284 47.9987 20.2838 47.7271 20.2838 47.3931V46.848C20.2838 46.514 20.5284 46.2424 20.8296 46.2424C21.1303 46.2424 21.3749 46.514 21.3749 46.848V47.3931C21.3749 47.7271 21.1303 47.9987 20.8296 47.9987ZM20.8296 43.1487C20.5284 43.1487 20.2838 42.8765 20.2838 42.5431V38.8958C20.2838 38.5618 20.5284 38.2902 20.8296 38.2902C21.1303 38.2902 21.3749 38.5618 21.3749 38.8958V42.5431C21.3749 42.8765 21.1303 43.1487 20.8296 43.1487ZM20.8296 34.4844C20.5284 34.4844 20.2838 34.2128 20.2838 33.8788V30.2321C20.2838 29.8981 20.5284 29.6265 20.8296 29.6265C21.1303 29.6265 21.3749 29.8981 21.3749 30.2321V33.8788C21.3749 34.2128 21.1303 34.4844 20.8296 34.4844ZM20.8296 24.455C20.5284 24.455 20.2838 24.1835 20.2838 23.8494V20.2021C20.2838 19.8687 20.5284 19.5972 20.8296 19.5972C21.1303 19.5972 21.3749 19.8687 21.3749 20.2021V23.8494C21.3749 24.1835 21.1303 24.455 20.8296 24.455ZM20.8296 14.4263C20.5284 14.4263 20.2838 14.1548 20.2838 13.8207V10.174C20.2838 9.84002 20.5284 9.56846 20.8296 9.56846C21.1303 9.56846 21.3749 9.84002 21.3749 10.174V13.8207C21.3749 14.1548 21.1303 14.4263 20.8296 14.4263ZM20.8296 4.85657C20.5284 4.85657 20.2838 4.58435 20.2838 4.25098V0.603636C20.2838 0.269609 20.5284 -0.00195312 20.8296 -0.00195312C21.1303 -0.00195312 21.3749 0.269609 21.3749 0.603636V4.25098C21.3749 4.58435 21.1303 4.85657 20.8296 4.85657ZM14.189 47.9987C13.8883 47.9987 13.6437 47.7271 13.6437 47.3931V37.3164H1.32652C1.02582 37.3164 0.78125 37.0448 0.78125 36.7108C0.78125 36.3768 1.02582 36.1052 1.32652 36.1052H14.189C14.4903 36.1052 14.7348 36.3768 14.7348 36.7108V47.3931C14.7348 47.7271 14.4903 47.9987 14.189 47.9987ZM14.189 27.2075H1.32652C1.02582 27.2075 0.78125 26.9366 0.78125 26.6032C0.78125 26.2692 1.02582 25.9976 1.32652 25.9976H13.6437V0.603636C13.6437 0.269609 13.8883 -0.00195312 14.189 -0.00195312C14.4903 -0.00195312 14.7348 0.269609 14.7348 0.603636V26.6019C14.7348 26.9359 14.4903 27.2075 14.189 27.2075ZM27.5447 22.32H40.4072C40.7079 22.32 40.9525 22.5916 40.9525 22.9256C40.9525 23.2596 40.7079 23.5312 40.4072 23.5312H28.09V47.3931C28.09 47.7271 27.8454 47.9987 27.5447 47.9987C27.2435 47.9987 26.9989 47.7271 26.9989 47.3931V22.9256C26.9989 22.5916 27.2435 22.32 27.5447 22.32Z" fill="white"/>
</g>
<defs>
<clipPath id="clip0_2734:15379">
<rect width="40.1712" height="48" fill="white" transform="translate(0.78125)"/>
</clipPath>
</defs>
</svg>