<svg xmlns:xlink="http://www.w3.org/1999/xlink" xmlns="http://www.w3.org/2000/svg" width="41" height="48" viewBox="0 0 41 48" fill="none">
<path fill-rule="evenodd" clip-rule="evenodd" d="M39.5886 48H0.692349C0.524304 48 0.369846 47.919 0.257578 47.771C0.148171 47.627 0.10026 47.435 0.137444 47.2926L0.14245 47.2706L9.57439 0.501246L9.57725 0.482361C9.62159 0.188852 9.83325 0 10.1157 0H30.1652C30.3869 0 30.6357 0.246295 30.7151 0.541377L40.122 47.0258C40.1285 47.1022 40.1399 47.1714 40.1506 47.2344C40.1578 47.2769 40.1685 47.3406 40.1685 47.3642C40.1685 47.727 39.9189 48 39.5886 48ZM29.7047 1.27082H20.7204V6.13298C20.7204 6.49495 20.4708 6.76879 20.1405 6.76879C19.8101 6.76879 19.5612 6.49495 19.5612 6.13298V1.27082H10.5769L1.4582 46.7284H19.5612V41.867C19.5612 41.5043 19.8101 41.2312 20.1405 41.2312C20.4708 41.2312 20.7204 41.5043 20.7204 41.867V46.7284H38.8227L29.7047 1.27082ZM20.1405 37.5809C19.8101 37.5809 19.5612 37.3078 19.5612 36.945V31.4479C19.5612 31.0851 19.8101 30.8121 20.1405 30.8121C20.4708 30.8121 20.7204 31.0851 20.7204 31.4479V36.945C20.7204 37.3078 20.4708 37.5809 20.1405 37.5809ZM20.1405 27.1617C19.8101 27.1617 19.5612 26.8887 19.5612 26.5259V21.0287C19.5612 20.666 19.8101 20.3929 20.1405 20.3929C20.4708 20.3929 20.7204 20.666 20.7204 21.0287V26.5259C20.7204 26.8887 20.4708 27.1617 20.1405 27.1617ZM20.1405 17.003C19.8101 17.003 19.5612 16.73 19.5612 16.3672V10.87C19.5612 10.5081 19.8101 10.2342 20.1405 10.2342C20.4708 10.2342 20.7204 10.5081 20.7204 10.87V16.3672C20.7204 16.73 20.4708 17.003 20.1405 17.003Z" fill="white"/>
</svg>