<svg xmlns:xlink="http://www.w3.org/1999/xlink" xmlns="http://www.w3.org/2000/svg" width="72" height="41" viewBox="0 0 72 41" fill="none">
<path fill-rule="evenodd" clip-rule="evenodd" d="M0.140069 2.45523C0.223418 2.34438 3.36316 -0.923724 9.50096 1.23668C15.362 3.29789 49.2766 25.4561 50.7586 26.4297L51.9688 27.5832L68.2435 21.302C68.3718 21.252 68.5202 21.2629 68.6352 21.3346L71.4774 23.0324C71.5974 23.104 71.6758 23.2257 71.6908 23.3633C71.7049 23.5 71.6541 23.6366 71.5533 23.7317L62.0057 35.7414L63.6026 37.27C63.741 37.385 63.7943 37.5709 63.7401 37.7409L62.2524 40.1355C62.1782 40.3689 61.9273 40.4981 61.6931 40.4247L43.4506 35.0671L47.8939 39.7563C48.0331 39.9021 48.0539 40.1239 47.9456 40.2931C47.8372 40.4631 47.628 40.5398 47.4346 40.4798L42.9763 39.0878C42.9113 39.0678 42.853 39.032 42.8046 38.987L30.0164 26.9831C29.9406 26.9781 29.8672 26.9614 29.7997 26.9181C18.8135 19.8534 5.46522 11.2344 4.26917 10.2942C2.30047 8.74973 -0.532555 4.00969 0.0867262 2.54692C0.100896 2.51524 0.119232 2.48441 0.140069 2.45523ZM68.361 22.203L52.7456 28.2308L61.3197 35.1688L70.5147 23.4899L68.361 22.203ZM34.2597 26.468L22.4175 18.4507L43.4189 38.1618L46.0769 39.1295L34.2597 26.468ZM4.82177 9.60322C5.67526 10.2733 13.2192 15.1934 26.7 23.8717L17.7375 15.2751C17.57 15.1167 17.5525 14.8567 17.6975 14.6767C17.8442 14.4975 18.1059 14.4583 18.2968 14.5891L34.804 25.7654C34.8306 25.7837 34.8556 25.8029 34.8765 25.827L42.2045 33.7527L61.5381 39.4512L62.8008 37.7576L61.0522 36.1006C61.0522 36.0998 61.0497 36.0998 61.0488 36.0989L51.5962 28.4284C51.5946 28.4267 51.5929 28.4225 51.5912 28.4209L50.226 27.1356C49.8743 26.9056 14.962 4.0947 9.20174 2.06933C4.18248 0.307337 1.16109 2.6611 0.890208 2.94282C0.656832 3.83966 2.87891 8.07794 4.82177 9.60322ZM39.2006 24.1717C38.7589 24.871 38.9731 25.7887 39.6782 26.2238C40.3825 26.6572 41.3093 26.4455 41.7503 25.7462C42.1895 25.0469 41.977 24.1284 41.271 23.6942C40.5675 23.2591 39.6399 23.4724 39.2006 24.1717ZM35.3624 21.8046C34.9223 22.5039 35.1365 23.4208 35.8408 23.8559C36.5443 24.2918 37.4736 24.0759 37.912 23.3783C38.353 22.679 38.1388 21.7605 37.4345 21.3254C36.7293 20.892 35.8017 21.107 35.3624 21.8046ZM31.5242 19.4367C31.0841 20.1352 31.2992 21.052 32.0018 21.4879C32.7052 21.9238 33.6354 21.7088 34.0738 21.0095C34.5148 20.311 34.3005 19.3925 33.5962 18.9558C32.8919 18.524 31.9659 18.7374 31.5242 19.4367ZM27.6868 17.0671C27.2467 17.7664 27.4601 18.6857 28.1644 19.1208C28.8695 19.5534 29.7972 19.34 30.2365 18.6407C30.6765 17.9423 30.4623 17.0246 29.7589 16.5887C29.0554 16.1553 28.1286 16.3686 27.6868 17.0671ZM23.8503 14.6992C23.411 15.3985 23.6236 16.3186 24.3279 16.7512C25.0322 17.1855 25.959 16.9729 26.3999 16.2719C26.8417 15.5743 26.6258 14.655 25.9232 14.2216C25.218 13.7873 24.2895 14.0015 23.8503 14.6992ZM20.0137 12.3329C19.5728 13.0305 19.7879 13.9507 20.4897 14.3849C21.1948 14.8175 22.1216 14.6041 22.5625 13.9048C23.0026 13.2072 22.7893 12.2879 22.085 11.8536C21.3807 11.4194 20.453 11.6336 20.0137 12.3329ZM16.1747 9.96329C15.7329 10.6617 15.9488 11.5819 16.6531 12.0145C17.3557 12.4512 18.2843 12.237 18.7235 11.5369C19.1652 10.8376 18.9494 9.91828 18.2476 9.48486C17.5424 9.05062 16.6148 9.26482 16.1747 9.96329ZM12.3382 7.59618C11.8972 8.29464 12.1123 9.21315 12.8149 9.64739C13.52 10.0816 14.446 9.86827 14.887 9.16897C15.3262 8.46968 15.1137 7.55201 14.4077 7.11693C13.7067 6.68351 12.7782 6.89605 12.3382 7.59618Z" fill="white"/>
</svg>