<svg width="272" height="40" viewBox="0 0 272 40" fill="none" xmlns="http://www.w3.org/2000/svg">
<path d="M20.795 12.7001C20.795 12.7258 20.8052 12.7504 20.8234 12.7685C20.8415 12.7866 20.8661 12.7968 20.8917 12.7968C20.9174 12.7968 20.942 12.7866 20.9601 12.7685C20.9782 12.7504 20.9884 12.7258 20.9884 12.7001C20.9884 12.7001 22.0934 9.60625 22.3213 8.75681C22.322 8.33688 22.2989 7.91725 22.2522 7.49992C22.0135 5.00123 21.5864 2.52414 20.9746 0.0897788C20.9746 0.0207187 20.9263 0 20.8779 0C20.8296 0 20.7951 7.40934e-07 20.7812 0.0897788C20.178 2.52531 19.7556 5.00211 19.5174 7.49992C19.4744 7.91748 19.4537 8.33704 19.4553 8.75681C19.6832 9.60625 20.7812 12.7001 20.7812 12.7001" fill="#2D3955"/>
<path d="M18.1651 17.319C17.6251 17.8642 17.2585 18.557 17.1114 19.3102C16.9644 20.0634 17.0436 20.8433 17.339 21.5516C17.6343 22.2598 18.1327 22.8649 18.7713 23.2905C19.4099 23.7161 20.1601 23.9432 20.9275 23.9432C21.6949 23.9432 22.4452 23.7161 23.0837 23.2905C23.7223 22.8649 24.2207 22.2598 24.5161 21.5516C24.8114 20.8433 24.8906 20.0634 24.7436 19.3102C24.5966 18.557 24.2299 17.8642 23.6899 17.319C23.3284 16.954 22.8981 16.6642 22.424 16.4665C21.9499 16.2688 21.4412 16.167 20.9275 16.167C20.4138 16.167 19.9052 16.2688 19.431 16.4665C18.9569 16.6642 18.5266 16.954 18.1651 17.319Z" fill="#2D3955"/>
<path d="M18.62 10.0609L18.2747 9.03192C17.0983 9.31103 15.9745 9.77737 14.946 10.4131L15.4502 11.38C16.42 10.7648 17.4871 10.3188 18.6062 10.0609" fill="#2D3955"/>
<path d="M26.8384 10.4131C25.8106 9.77619 24.6865 9.30976 23.5097 9.03192L23.1644 10.0885C24.2867 10.3433 25.3566 10.7895 26.3274 11.4076L26.8384 10.4131Z" fill="#2D3955"/>
<path d="M14.946 29.6323C15.975 30.2668 17.0987 30.7331 18.2747 31.0135L18.62 29.9637C17.4967 29.7092 16.4248 29.2655 15.4502 28.6516L14.946 29.6323Z" fill="#2D3955"/>
<path d="M23.1644 29.9802L23.5097 31.0299C24.6865 30.7521 25.8106 30.2857 26.8384 29.6487L26.3274 28.6681C25.3555 29.2854 24.286 29.7337 23.1644 29.994" fill="#2D3955"/>
<path d="M11.3072 25.9606L12.2879 25.4496C11.6706 24.4801 11.2222 23.413 10.9619 22.2935L9.91223 22.6388C10.1881 23.8141 10.6547 24.9362 11.2934 25.9606" fill="#2D3955"/>
<path d="M9.88391 17.3955L10.9336 17.7408C11.1909 16.6117 11.6394 15.535 12.2596 14.5571L11.3065 14.0737C10.6678 15.098 10.2012 16.2202 9.92535 17.3955" fill="#2D3955"/>
<path d="M31.9081 22.6388L30.8515 22.2935C30.5942 23.4139 30.1456 24.4816 29.5255 25.4496L30.5131 25.9606C31.1488 24.9347 31.6152 23.813 31.8943 22.6388" fill="#2D3955"/>
<path d="M29.5255 14.5578C30.1456 15.5258 30.5942 16.5934 30.8515 17.7138L31.9081 17.3685C31.629 16.1943 31.1626 15.0727 30.5269 14.0468L29.5255 14.5578Z" fill="#2D3955"/>
<path d="M20.9746 27.2999C20.9746 27.2743 20.9644 27.2497 20.9463 27.2316C20.9282 27.2134 20.9036 27.2032 20.8779 27.2032C20.8523 27.2032 20.8277 27.2134 20.8096 27.2316C20.7914 27.2497 20.7813 27.2743 20.7813 27.2999C20.7813 27.2999 19.6832 30.3938 19.4553 31.2433C19.4535 31.663 19.4743 32.0826 19.5175 32.5002C19.7548 34.9981 20.1772 37.4749 20.7813 39.9103C20.7813 39.9794 20.8296 40.0001 20.8779 40.0001C20.9263 40.0001 20.9608 40.0001 20.9815 39.9103C21.5892 37.48 22.0139 35.0077 22.2522 32.514C22.2991 32.0967 22.3222 31.677 22.3213 31.2571C22.0934 30.4076 20.9884 27.3137 20.9884 27.3137" fill="#2D3955"/>
<path d="M9.64939 21.4634C10.4988 21.2355 13.5927 20.1306 13.5927 20.1306C13.6184 20.1306 13.643 20.1204 13.6611 20.1022C13.6792 20.0841 13.6894 20.0595 13.6894 20.0339C13.6894 20.0082 13.6792 19.9836 13.6611 19.9655C13.643 19.9474 13.6184 19.9372 13.5927 19.9372C13.5927 19.9372 10.4988 18.8391 9.64939 18.6112C9.22962 18.6096 8.81006 18.6304 8.3925 18.6734C5.89469 18.9115 3.41789 19.3339 0.982357 19.9372C0.913297 19.9372 0.892578 19.9855 0.892578 20.0339C0.892578 20.0822 0.892579 20.1167 0.982357 20.1306C3.41707 20.7377 5.89416 21.1602 8.3925 21.3944C8.80982 21.4411 9.22946 21.4641 9.64939 21.4634Z" fill="#2D3955"/>
<path d="M40.8025 19.902C38.3716 19.2986 35.8994 18.8762 33.4062 18.6382C32.9886 18.595 32.569 18.5743 32.1493 18.576C31.2998 18.8039 28.2059 19.902 28.2059 19.902C28.1803 19.902 28.1557 19.9122 28.1376 19.9303C28.1194 19.9484 28.1093 19.973 28.1093 19.9987C28.1093 20.0243 28.1194 20.0489 28.1376 20.067C28.1557 20.0852 28.1803 20.0954 28.2059 20.0954C28.2059 20.0954 31.2998 21.2003 32.1493 21.4282C32.5692 21.4291 32.9888 21.406 33.4062 21.3592C35.9 21.1186 38.3724 20.6915 40.8025 20.0815C40.8715 20.0815 40.8923 20.0263 40.8923 19.9779C40.8923 19.9296 40.8923 19.8951 40.8025 19.8813" fill="#2D3955"/>
<path d="M11.0928 12.1266C11.6107 12.8172 11.8248 12.9968 11.8248 12.9968C12.5154 13.4388 15.6645 14.9098 15.6645 14.9098C15.6839 14.919 15.7056 14.922 15.7267 14.9184C15.7478 14.9148 15.7673 14.9047 15.7824 14.8895C15.7976 14.8744 15.8077 14.8549 15.8113 14.8338C15.8149 14.8127 15.8119 14.791 15.8027 14.7716C15.8027 14.7716 14.3317 11.6018 13.8897 10.9319C13.8897 10.9319 13.6756 10.7178 13.0195 10.1999C11.5284 8.95696 9.88261 7.91237 8.12319 7.09216C8.04722 7.09216 8.0196 7.09216 7.99197 7.09216C7.96435 7.09216 7.95054 7.14741 7.99197 7.22337C8.81218 8.98279 9.85676 10.6286 11.0997 12.1197" fill="#2D3955"/>
<path d="M30.6986 27.8808C30.1738 27.2178 29.9528 26.9899 29.9528 26.9899C29.2622 26.5479 26.113 25.0839 26.113 25.0839C26.0947 25.0738 26.0736 25.07 26.0529 25.073C26.0322 25.076 26.0131 25.0856 25.9983 25.1003C25.9835 25.1151 25.9739 25.1343 25.971 25.155C25.968 25.1757 25.9718 25.1968 25.9818 25.2151C25.9818 25.2151 27.4528 28.3711 27.881 29.0617C27.881 29.0617 28.0951 29.2758 28.758 29.8007C30.2486 31.0409 31.8918 32.0853 33.6475 32.9084C33.7234 32.9084 33.7511 32.9084 33.7856 32.9084C33.8201 32.9084 33.8201 32.8462 33.7856 32.7703C32.9625 31.0145 31.9181 29.3714 30.6779 27.8808" fill="#2D3955"/>
<path d="M15.7816 25.1102C15.7653 25.0961 15.7445 25.0884 15.7229 25.0884C15.7014 25.0884 15.6805 25.0961 15.6642 25.1102C15.6642 25.1102 12.4944 26.5605 11.8245 26.9887C11.5656 27.2683 11.3213 27.561 11.0924 27.8657C9.84897 29.3539 8.80431 30.9975 7.98474 32.7552C7.98474 32.8311 7.98474 32.8588 7.98474 32.8933C7.98474 32.9278 8.03999 32.9278 8.11595 32.8933C9.87438 32.0684 11.5199 31.0217 13.0123 29.7787C13.7029 29.2607 13.8825 29.0467 13.8825 29.0467C14.3245 28.3561 15.7954 25.2069 15.7954 25.2069C15.8073 25.1896 15.8137 25.1692 15.8137 25.1482C15.8137 25.1273 15.8073 25.1068 15.7954 25.0895" fill="#2D3955"/>
<path d="M26.0033 14.8891C26.0206 14.901 26.0411 14.9074 26.062 14.9074C26.083 14.9074 26.1035 14.901 26.1207 14.8891C26.1207 14.8891 29.263 13.4389 29.9536 12.9969C29.9536 12.9969 30.1677 12.7828 30.6925 12.1267C31.9322 10.6333 32.9765 8.98789 33.8002 7.23038C33.8002 7.15441 33.8002 7.13369 33.8002 7.09916C33.8002 7.06463 33.7381 7.05773 33.6621 7.09916C31.9044 7.91873 30.2608 8.96339 28.7726 10.2069C28.4634 10.4331 28.1661 10.6751 27.8818 10.932C27.4398 11.6226 25.9757 14.7717 25.9757 14.7717C25.9616 14.788 25.9539 14.8089 25.9539 14.8304C25.9539 14.852 25.9616 14.8728 25.9757 14.8891" fill="#2D3955"/>
<path d="M59.6485 13.6802V15.6346C59.6529 15.6756 59.648 15.717 59.6343 15.7559C59.6206 15.7947 59.5983 15.83 59.5692 15.8591C59.54 15.8883 59.5048 15.9105 59.4659 15.9242C59.4271 15.938 59.3856 15.9428 59.3447 15.9385H52.9635V19.1083H58.4883C58.5302 19.1044 58.5724 19.1094 58.6121 19.123C58.6519 19.1366 58.6883 19.1585 58.719 19.1872C58.7497 19.2159 58.7739 19.2508 58.7901 19.2896C58.8063 19.3284 58.8141 19.3702 58.8129 19.4122V19.8542C58.8889 21.2354 58.1637 21.7672 56.6237 21.7672H52.9635V26.3666C52.9666 26.4072 52.9609 26.4481 52.9467 26.4864C52.9326 26.5247 52.9103 26.5594 52.8814 26.5883C52.8526 26.6172 52.8178 26.6394 52.7795 26.6536C52.7413 26.6678 52.7004 26.6735 52.6597 26.6704H50.1321C50.0911 26.6748 50.0497 26.6699 50.0108 26.6562C49.972 26.6424 49.9367 26.6202 49.9076 26.5911C49.8784 26.5619 49.8562 26.5266 49.8425 26.4878C49.8287 26.4489 49.8239 26.4075 49.8282 26.3666V13.6802C49.8239 13.6393 49.8287 13.5978 49.8425 13.559C49.8562 13.5201 49.8784 13.4849 49.9076 13.4557C49.9367 13.4266 49.972 13.4043 50.0108 13.3906C50.0497 13.3769 50.0911 13.372 50.1321 13.3764H59.3447C59.3856 13.372 59.4271 13.3769 59.4659 13.3906C59.5048 13.4043 59.54 13.4266 59.5692 13.4557C59.5983 13.4849 59.6206 13.5201 59.6343 13.559C59.648 13.5978 59.6529 13.6393 59.6485 13.6802Z" fill="#2D3955"/>
<path d="M61.8246 20.8429V13.6606C61.8208 13.6205 61.8252 13.58 61.8375 13.5417C61.8499 13.5033 61.8699 13.4679 61.8964 13.4375C61.9229 13.4072 61.9553 13.3825 61.9916 13.3651C62.028 13.3476 62.0674 13.3377 62.1077 13.336C62.4101 13.2983 62.7146 13.2799 63.0193 13.2808C64.29 13.2808 64.9599 13.8333 64.9599 15.3526V20.7047C64.9599 22.9423 65.9613 24.1578 67.9571 24.1578C69.9529 24.1578 70.9612 22.9975 70.9612 20.7047V13.6813C70.9569 13.6404 70.9617 13.5989 70.9755 13.5601C70.9892 13.5213 71.0114 13.486 71.0406 13.4568C71.0697 13.4277 71.105 13.4055 71.1438 13.3917C71.1827 13.378 71.2241 13.3731 71.2651 13.3775H73.7512C73.7922 13.3731 73.8336 13.378 73.8725 13.3917C73.9113 13.4055 73.9466 13.4277 73.9757 13.4568C74.0049 13.486 74.0271 13.5213 74.0408 13.5601C74.0546 13.5989 74.0594 13.6404 74.0551 13.6813V20.8429C74.0551 24.9174 71.7968 26.9892 67.9364 26.9892C64.0759 26.9892 61.8246 24.9174 61.8246 20.8429Z" fill="#2D3955"/>
<path d="M85.8913 13.6809V20.8769C85.8913 25.0205 83.709 26.9542 79.8899 26.9542C78.5405 26.9682 77.1982 26.7558 75.919 26.3258C75.8454 26.3033 75.7831 26.2537 75.7446 26.187C75.7062 26.1204 75.6945 26.0416 75.7118 25.9667L76.0571 23.6324C76.0916 23.4045 76.2229 23.3424 76.4369 23.4184C77.4409 23.8111 78.5081 24.0171 79.5861 24.0261C81.5612 24.0261 82.7559 22.9626 82.7559 20.6905V16.2223H81.1468C79.6068 16.2223 78.9231 15.656 78.9576 14.1505V13.7154C78.9533 13.6744 78.9582 13.633 78.9719 13.5942C78.9856 13.5553 79.0079 13.52 79.037 13.4909C79.0661 13.4618 79.1014 13.4395 79.1403 13.4258C79.1791 13.4121 79.2205 13.4072 79.2615 13.4116H85.5667C85.6062 13.4045 85.6468 13.4062 85.6856 13.4165C85.7244 13.4267 85.7605 13.4453 85.7914 13.4709C85.8223 13.4966 85.8473 13.5286 85.8645 13.5649C85.8817 13.6012 85.8909 13.6407 85.8913 13.6809Z" fill="#2D3955"/>
<path d="M101.264 26.6721H98.5914C98.5524 26.6759 98.513 26.6719 98.4755 26.6604C98.438 26.6489 98.4032 26.6301 98.373 26.605C98.3428 26.58 98.3179 26.5492 98.2997 26.5145C98.2815 26.4798 98.2703 26.4418 98.2669 26.4027C98.0942 25.7121 97.9285 25.0768 97.7351 24.4069H91.5819C91.3954 25.0975 91.2227 25.7398 91.0501 26.4027C91.0466 26.4418 91.0355 26.4798 91.0172 26.5145C90.999 26.5492 90.9741 26.58 90.9439 26.605C90.9137 26.6301 90.8789 26.6489 90.8414 26.6604C90.8039 26.6719 90.7645 26.6759 90.7255 26.6721H88.0529C88.0086 26.6796 87.9631 26.675 87.9212 26.6588C87.8794 26.6426 87.8427 26.6153 87.815 26.5799C87.7874 26.5445 87.7699 26.5022 87.7644 26.4577C87.7588 26.4131 87.7654 26.3679 87.7836 26.3268C88.8925 21.8463 90.6391 17.5484 92.97 13.5645C93.0019 13.5005 93.0499 13.4459 93.1092 13.406C93.1685 13.3661 93.2371 13.3421 93.3084 13.3366C94.2051 13.2262 95.1119 13.2262 96.0086 13.3366C96.0827 13.3419 96.1538 13.368 96.2137 13.412C96.2736 13.456 96.3198 13.516 96.347 13.5852C98.6666 17.5575 100.413 21.8378 101.533 26.2991C101.559 26.341 101.572 26.3897 101.571 26.439C101.569 26.4883 101.553 26.5359 101.524 26.5759C101.495 26.6159 101.455 26.6464 101.409 26.6635C101.362 26.6806 101.312 26.6836 101.264 26.6721ZM96.9547 21.8379C96.3342 19.9398 95.5677 18.0927 94.6619 16.3131C93.7509 18.0911 92.9819 19.9385 92.3622 21.8379H96.9547Z" fill="#2D3955"/>
<path d="M106.362 26.6715H103.848C103.807 26.6759 103.765 26.671 103.727 26.6573C103.688 26.6436 103.653 26.6213 103.623 26.5922C103.594 26.563 103.572 26.5278 103.558 26.4889C103.545 26.4501 103.54 26.4086 103.544 26.3677V13.6606C103.54 13.6205 103.545 13.58 103.557 13.5417C103.569 13.5033 103.589 13.4679 103.616 13.4375C103.642 13.4072 103.675 13.3825 103.711 13.3651C103.747 13.3476 103.787 13.3377 103.827 13.336C104.13 13.2983 104.434 13.2799 104.739 13.2808C106.009 13.2808 106.679 13.8333 106.679 15.3526V26.3677C106.683 26.4096 106.677 26.4519 106.662 26.4912C106.647 26.5306 106.623 26.5661 106.593 26.5952C106.562 26.6243 106.526 26.6463 106.486 26.6595C106.446 26.6727 106.403 26.6768 106.362 26.6715Z" fill="#2D3955"/>
<path d="M121.208 26.2975C121.319 26.5116 121.208 26.6635 120.98 26.6635H118.349C118.272 26.6671 118.196 26.6472 118.131 26.6065C118.065 26.5658 118.014 26.5062 117.983 26.4356C117.293 25.0106 116.358 23.718 115.221 22.6166H112.824V26.3666C112.829 26.4075 112.824 26.4489 112.81 26.4878C112.796 26.5266 112.774 26.5619 112.745 26.5911C112.716 26.6202 112.681 26.6424 112.642 26.6562C112.603 26.6699 112.562 26.6748 112.521 26.6704H110C109.959 26.6748 109.917 26.6699 109.879 26.6562C109.84 26.6424 109.804 26.6202 109.775 26.5911C109.746 26.5619 109.724 26.5266 109.71 26.4878C109.697 26.4489 109.692 26.4075 109.696 26.3666V13.6802C109.692 13.6393 109.697 13.5978 109.71 13.559C109.724 13.5201 109.746 13.4849 109.775 13.4557C109.804 13.4266 109.84 13.4043 109.879 13.3906C109.917 13.3769 109.959 13.372 110 13.3764H115.103C118.77 13.3764 120.856 14.9509 120.856 17.741C120.93 18.6369 120.685 19.5303 120.165 20.2632C119.644 20.9961 118.881 21.5215 118.011 21.7464C119.346 23.0553 120.43 24.5978 121.208 26.2975ZM112.824 16.0352V19.9647H115.083C116.795 19.9647 117.728 19.2741 117.728 18.0103C117.728 16.7465 117.037 16.0352 114.931 16.0352H112.824Z" fill="#2D3955"/>
<path d="M135.718 26.6722H133.039C133 26.676 132.96 26.672 132.923 26.6605C132.885 26.649 132.85 26.6302 132.82 26.6051C132.79 26.5801 132.765 26.5493 132.747 26.5146C132.729 26.4799 132.718 26.4419 132.714 26.4028C132.548 25.7122 132.376 25.0769 132.182 24.407H126.036C125.843 25.0976 125.67 25.7399 125.504 26.4028C125.501 26.4419 125.49 26.4799 125.471 26.5146C125.453 26.5493 125.428 26.5801 125.398 26.6051C125.368 26.6302 125.333 26.649 125.296 26.6605C125.258 26.672 125.219 26.676 125.18 26.6722H122.493C122.449 26.6783 122.405 26.6726 122.364 26.6558C122.323 26.639 122.288 26.6115 122.261 26.5764C122.234 26.5412 122.217 26.4996 122.212 26.4557C122.207 26.4118 122.213 26.3674 122.231 26.3269C123.34 21.8477 125.085 17.5502 127.41 13.5646C127.443 13.5001 127.493 13.4452 127.553 13.4053C127.614 13.3654 127.683 13.3418 127.756 13.3367C128.65 13.2262 129.555 13.2262 130.449 13.3367C130.524 13.3415 130.596 13.3674 130.657 13.4113C130.718 13.4553 130.766 13.5156 130.794 13.5853C133.111 17.559 134.857 21.839 135.981 26.2992C136.006 26.3406 136.018 26.3884 136.017 26.4368C136.015 26.4852 136 26.5321 135.972 26.5717C135.944 26.6114 135.905 26.642 135.86 26.6598C135.815 26.6776 135.766 26.6819 135.718 26.6722ZM131.409 21.838C130.783 19.9408 130.014 18.0939 129.109 16.3132C128.204 18.0939 127.435 19.9408 126.809 21.838H131.409Z" fill="#2D3955"/>
<path d="M147.038 13.6814C147.034 13.6404 147.039 13.599 147.052 13.5601C147.066 13.5213 147.088 13.486 147.117 13.4569C147.147 13.4278 147.182 13.4055 147.221 13.3918C147.259 13.378 147.301 13.3732 147.342 13.3775H149.869C149.91 13.3732 149.952 13.378 149.991 13.3918C150.03 13.4055 150.065 13.4278 150.094 13.4569C150.123 13.486 150.145 13.5213 150.159 13.5601C150.173 13.599 150.178 13.6404 150.173 13.6814V26.3677C150.176 26.4084 150.171 26.4493 150.157 26.4876C150.142 26.5258 150.12 26.5606 150.091 26.5895C150.062 26.6183 150.028 26.6406 149.989 26.6548C149.951 26.669 149.91 26.6747 149.869 26.6716H147.356C147.315 26.6759 147.273 26.6711 147.234 26.6573C147.196 26.6436 147.16 26.6213 147.131 26.5922C147.102 26.5631 147.08 26.5278 147.066 26.489C147.052 26.4501 147.047 26.4087 147.052 26.3677V21.3539H141.14V26.3677C141.145 26.4087 141.14 26.4501 141.126 26.489C141.112 26.5278 141.09 26.5631 141.061 26.5922C141.032 26.6213 140.997 26.6436 140.958 26.6573C140.919 26.6711 140.877 26.6759 140.836 26.6716H138.309C138.268 26.6747 138.227 26.669 138.189 26.6548C138.151 26.6406 138.116 26.6183 138.087 26.5895C138.058 26.5606 138.036 26.5258 138.022 26.4876C138.008 26.4493 138.002 26.4084 138.005 26.3677V13.6607C138.001 13.62 138.006 13.579 138.019 13.5401C138.031 13.5013 138.052 13.4656 138.079 13.4351C138.106 13.4046 138.14 13.3801 138.177 13.3631C138.214 13.346 138.254 13.3369 138.295 13.3361C138.597 13.2979 138.902 13.2794 139.207 13.2808C140.477 13.2808 141.14 13.8333 141.14 15.3526V18.5985H147.066L147.038 13.6814Z" fill="#2D3955"/>
<path d="M168.763 13.6599C168.915 15.1033 168.501 16.0356 166.616 16.0356H163.929V26.3946C163.934 26.4356 163.929 26.477 163.915 26.5159C163.901 26.5547 163.879 26.59 163.85 26.6191C163.821 26.6482 163.786 26.6705 163.747 26.6842C163.708 26.698 163.666 26.7028 163.625 26.6985H161.098C161.057 26.7016 161.016 26.6959 160.978 26.6817C160.94 26.6675 160.905 26.6452 160.876 26.6164C160.847 26.5875 160.825 26.5528 160.811 26.5145C160.797 26.4762 160.791 26.4353 160.794 26.3946V16.0356H156.713C156.672 16.0387 156.631 16.033 156.593 16.0188C156.554 16.0046 156.52 15.9824 156.491 15.9535C156.462 15.9246 156.44 15.8899 156.425 15.8516C156.411 15.8133 156.406 15.7724 156.409 15.7317V13.6599C156.404 13.619 156.409 13.5776 156.423 13.5387C156.437 13.4999 156.459 13.4646 156.488 13.4354C156.517 13.4063 156.552 13.3841 156.591 13.3703C156.63 13.3566 156.672 13.3517 156.713 13.3561H168.418C168.462 13.3475 168.507 13.3491 168.55 13.3607C168.593 13.3723 168.632 13.3936 168.666 13.4229C168.699 13.4523 168.725 13.489 168.742 13.5301C168.759 13.5711 168.766 13.6156 168.763 13.6599Z" fill="#2D3955"/>
<path d="M173.723 24.1014H180.332C180.372 24.0981 180.413 24.1038 180.451 24.118C180.489 24.1322 180.523 24.1547 180.552 24.1837C180.58 24.2127 180.602 24.2476 180.615 24.2858C180.628 24.3241 180.633 24.3649 180.629 24.4052V26.3666C180.633 26.4069 180.628 26.4477 180.615 26.486C180.602 26.5243 180.58 26.5591 180.552 26.5881C180.523 26.6171 180.489 26.6396 180.451 26.6538C180.413 26.668 180.372 26.6737 180.332 26.6704H170.891C170.85 26.6748 170.809 26.6699 170.77 26.6562C170.731 26.6424 170.696 26.6202 170.667 26.5911C170.638 26.5619 170.615 26.5266 170.602 26.4878C170.588 26.4489 170.583 26.4075 170.587 26.3666V13.6802C170.583 13.6393 170.588 13.5978 170.602 13.559C170.615 13.5201 170.638 13.4849 170.667 13.4557C170.696 13.4266 170.731 13.4043 170.77 13.3906C170.809 13.3769 170.85 13.372 170.891 13.3764H180.138C180.179 13.372 180.221 13.3769 180.26 13.3906C180.299 13.4043 180.334 13.4266 180.363 13.4557C180.392 13.4849 180.414 13.5201 180.428 13.559C180.442 13.5978 180.447 13.6393 180.442 13.6802V15.6346C180.447 15.6756 180.442 15.717 180.428 15.7559C180.414 15.7947 180.392 15.83 180.363 15.8591C180.334 15.8883 180.299 15.9105 180.26 15.9242C180.221 15.938 180.179 15.9428 180.138 15.9385H173.723V18.5973H179.248C179.289 18.5934 179.332 18.5984 179.371 18.612C179.411 18.6256 179.448 18.6475 179.478 18.6762C179.509 18.7049 179.533 18.7398 179.549 18.7786C179.566 18.8174 179.573 18.8592 179.572 18.9012V19.3362C179.648 20.7174 178.923 21.2561 177.383 21.2561H173.723V24.1014Z" fill="#2D3955"/>
<path d="M194.516 26.2975C194.627 26.5116 194.516 26.6635 194.289 26.6635H191.65C191.574 26.6671 191.497 26.6472 191.432 26.6065C191.367 26.5658 191.315 26.5062 191.284 26.4356C190.597 25.0094 189.661 23.7164 188.522 22.6166H186.112V26.3666C186.116 26.4075 186.111 26.4489 186.098 26.4878C186.084 26.5266 186.062 26.5619 186.032 26.5911C186.003 26.6202 185.968 26.6424 185.929 26.6562C185.89 26.6699 185.849 26.6748 185.808 26.6704H183.28C183.24 26.6735 183.199 26.6678 183.161 26.6536C183.122 26.6394 183.087 26.6172 183.059 26.5883C183.03 26.5594 183.007 26.5247 182.993 26.4864C182.979 26.4481 182.973 26.4072 182.977 26.3666V13.6802C182.972 13.6393 182.977 13.5978 182.991 13.559C183.005 13.5201 183.027 13.4849 183.056 13.4557C183.085 13.4266 183.12 13.4043 183.159 13.3906C183.198 13.3769 183.239 13.372 183.28 13.3764H188.391C192.058 13.3764 194.144 14.9509 194.144 17.741C194.218 18.6369 193.973 19.5303 193.452 20.2632C192.932 20.9961 192.169 21.5215 191.298 21.7464C192.641 23.0536 193.732 24.5962 194.516 26.2975ZM186.139 16.0352V19.9647H188.398C190.11 19.9647 191.043 19.2741 191.043 18.0103C191.043 16.7465 190.352 16.0352 188.246 16.0352H186.139Z" fill="#2D3955"/>
<path d="M210.546 13.6812L210.829 26.3676C210.833 26.4085 210.828 26.45 210.815 26.4888C210.801 26.5277 210.779 26.5629 210.749 26.5921C210.72 26.6212 210.685 26.6435 210.646 26.6572C210.607 26.6709 210.566 26.6758 210.525 26.6714H207.997C207.956 26.6758 207.915 26.6709 207.876 26.6572C207.837 26.6435 207.802 26.6212 207.773 26.5921C207.744 26.5629 207.721 26.5277 207.708 26.4888C207.694 26.45 207.689 26.4085 207.693 26.3676L207.735 19.1853C206.763 21.0091 205.691 22.7775 204.524 24.4822C204.487 24.5437 204.434 24.594 204.371 24.6281C204.307 24.6621 204.236 24.6785 204.165 24.6756H203.253C203.181 24.6792 203.11 24.6631 203.046 24.6291C202.983 24.595 202.93 24.5442 202.894 24.4822C201.726 22.7775 200.654 21.0091 199.683 19.1853L199.717 26.3676C199.723 26.4088 199.719 26.4508 199.706 26.4903C199.692 26.5298 199.67 26.5657 199.641 26.5951C199.611 26.6246 199.575 26.6468 199.536 26.66C199.496 26.6733 199.454 26.6772 199.413 26.6714H196.892C196.851 26.6772 196.809 26.6733 196.77 26.66C196.73 26.6468 196.694 26.6246 196.665 26.5951C196.635 26.5657 196.613 26.5298 196.6 26.4903C196.587 26.4508 196.583 26.4088 196.589 26.3676L196.872 13.6812C196.866 13.64 196.87 13.598 196.883 13.5585C196.896 13.519 196.919 13.4832 196.948 13.4537C196.978 13.4243 197.013 13.402 197.053 13.3888C197.092 13.3756 197.134 13.3716 197.176 13.3774H199.434C199.51 13.3732 199.586 13.393 199.65 13.4338C199.714 13.4747 199.764 13.5346 199.793 13.6053C201.029 16.2434 202.397 18.6743 203.709 20.9118C205.021 18.6743 206.381 16.2434 207.618 13.6053C207.647 13.5352 207.697 13.4759 207.761 13.4351C207.826 13.3944 207.901 13.3742 207.977 13.3774H210.242C210.283 13.373 210.324 13.3779 210.363 13.3916C210.402 13.4054 210.437 13.4276 210.466 13.4567C210.495 13.4859 210.518 13.5212 210.531 13.56C210.545 13.5989 210.55 13.6403 210.546 13.6812Z" fill="#2D3955"/>
<path d="M216.699 26.6715H214.171C214.13 26.6746 214.09 26.6689 214.051 26.6547C214.013 26.6406 213.978 26.6183 213.949 26.5894C213.921 26.5606 213.898 26.5258 213.884 26.4875C213.87 26.4493 213.864 26.4084 213.867 26.3677V13.6606C213.863 13.6205 213.868 13.58 213.88 13.5417C213.893 13.5033 213.913 13.4679 213.939 13.4375C213.966 13.4072 213.998 13.3825 214.034 13.3651C214.071 13.3476 214.11 13.3377 214.15 13.336C214.453 13.2983 214.757 13.2799 215.062 13.2808C216.34 13.2808 217.003 13.8333 217.003 15.3526V26.3677C217.006 26.4084 217 26.4493 216.986 26.4875C216.972 26.5258 216.949 26.5606 216.921 26.5894C216.892 26.6183 216.857 26.6406 216.819 26.6547C216.78 26.6689 216.739 26.6746 216.699 26.6715Z" fill="#2D3955"/>
<path d="M229.06 13.6812C229.055 13.64 229.059 13.598 229.072 13.5585C229.085 13.519 229.107 13.4832 229.137 13.4537C229.166 13.4243 229.202 13.402 229.241 13.3888C229.281 13.3756 229.323 13.3716 229.364 13.3774H231.74C231.781 13.373 231.822 13.3779 231.861 13.3916C231.9 13.4054 231.935 13.4276 231.964 13.4567C231.993 13.4859 232.016 13.5212 232.029 13.56C232.043 13.5989 232.048 13.6403 232.044 13.6812V26.3676C232.046 26.4086 232.039 26.4496 232.025 26.4881C232.01 26.5266 231.988 26.5617 231.96 26.5914C231.931 26.6211 231.897 26.6447 231.859 26.6609C231.822 26.677 231.781 26.6853 231.74 26.6853H231.284C229.537 26.7819 228.321 26.3469 227.389 24.8621L222.873 17.742L223.024 26.3469C223.029 26.3878 223.024 26.4293 223.01 26.4681C222.997 26.5069 222.974 26.5422 222.945 26.5714C222.916 26.6005 222.881 26.6227 222.842 26.6365C222.803 26.6502 222.762 26.6551 222.721 26.6507H220.345C220.304 26.6551 220.263 26.6502 220.224 26.6365C220.185 26.6227 220.15 26.6005 220.12 26.5714C220.091 26.5422 220.069 26.5069 220.055 26.4681C220.042 26.4293 220.037 26.3878 220.041 26.3469V13.6812C220.037 13.6403 220.042 13.5989 220.055 13.56C220.069 13.5212 220.091 13.4859 220.12 13.4567C220.15 13.4276 220.185 13.4054 220.224 13.3916C220.263 13.3779 220.304 13.373 220.345 13.3774H223.107C223.18 13.3766 223.252 13.3954 223.315 13.4319C223.378 13.4683 223.431 13.5211 223.466 13.5846L229.295 22.7212L229.06 13.6812Z" fill="#2D3955"/>
<path d="M247.492 26.6722H244.813C244.774 26.676 244.734 26.672 244.697 26.6605C244.659 26.649 244.625 26.6302 244.594 26.6051C244.564 26.5801 244.539 26.5493 244.521 26.5146C244.503 26.4799 244.492 26.4419 244.488 26.4028C244.322 25.7122 244.15 25.0769 243.963 24.407H237.824C237.637 25.0976 237.465 25.7399 237.299 26.4028C237.296 26.4419 237.284 26.4799 237.266 26.5146C237.248 26.5493 237.223 26.5801 237.193 26.6051C237.163 26.6302 237.128 26.649 237.09 26.6605C237.053 26.672 237.013 26.676 236.974 26.6722H234.302C234.258 26.6783 234.213 26.6726 234.173 26.6558C234.132 26.639 234.096 26.6115 234.069 26.5764C234.043 26.5412 234.026 26.4996 234.021 26.4557C234.015 26.4118 234.022 26.3674 234.039 26.3269C235.145 21.8484 236.884 17.5509 239.205 13.5646C239.238 13.5001 239.287 13.4452 239.348 13.4053C239.408 13.3654 239.478 13.3418 239.55 13.3367C240.445 13.2262 241.349 13.2262 242.244 13.3367C242.319 13.3415 242.391 13.3674 242.452 13.4113C242.513 13.4553 242.561 13.5156 242.589 13.5853C244.908 17.5586 246.656 21.8386 247.782 26.2992C247.812 26.3427 247.826 26.3943 247.825 26.4466C247.823 26.499 247.805 26.5494 247.772 26.5907C247.74 26.6321 247.696 26.6622 247.646 26.6768C247.595 26.6915 247.542 26.6898 247.492 26.6722ZM243.183 21.838C242.557 19.9408 241.788 18.0939 240.883 16.3132C239.978 18.0939 239.209 19.9408 238.584 21.838H243.183Z" fill="#2D3955"/>
<path d="M252.914 13.6802V23.9356H259.067C259.108 23.9313 259.15 23.9362 259.188 23.9499C259.227 23.9636 259.263 23.9859 259.292 24.015C259.321 24.0441 259.343 24.0794 259.357 24.1183C259.37 24.1571 259.375 24.1985 259.371 24.2395V26.3666C259.374 26.4072 259.368 26.4481 259.354 26.4864C259.34 26.5247 259.318 26.5594 259.289 26.5883C259.26 26.6172 259.225 26.6394 259.187 26.6536C259.149 26.6678 259.108 26.6735 259.067 26.6704H250.089C250.049 26.6735 250.008 26.6678 249.969 26.6536C249.931 26.6394 249.896 26.6172 249.868 26.5883C249.839 26.5594 249.816 26.5247 249.802 26.4864C249.788 26.4481 249.782 26.4072 249.785 26.3666V13.6802C249.781 13.6393 249.786 13.5978 249.8 13.559C249.813 13.5201 249.836 13.4849 249.865 13.4557C249.894 13.4266 249.929 13.4043 249.968 13.3906C250.007 13.3769 250.048 13.372 250.089 13.3764H252.617C252.657 13.3731 252.698 13.3788 252.736 13.393C252.774 13.4072 252.808 13.4296 252.837 13.4586C252.865 13.4876 252.887 13.5225 252.9 13.5608C252.913 13.5991 252.918 13.6399 252.914 13.6802Z" fill="#2D3955"/>
<path d="M261.021 25.9449C260.952 25.9184 260.894 25.8672 260.86 25.8009C260.825 25.7347 260.816 25.6581 260.835 25.5858L261.194 23.0375C261.235 22.7958 261.387 22.7337 261.574 22.8718C262.808 23.6708 264.247 24.0976 265.717 24.101C267.444 24.101 268.259 23.666 268.259 22.9477C268.259 22.2295 267.824 21.9395 266.878 21.6563L264.806 20.9657C262.775 20.3166 260.952 19.2737 260.952 16.8981C260.952 14.5224 262.948 13.0652 266.118 13.0652C267.671 13.0518 269.217 13.2849 270.697 13.7558C270.774 13.7798 270.838 13.8329 270.877 13.9038C270.916 13.9747 270.925 14.0579 270.904 14.1357L270.773 14.8263C270.743 15.0367 270.669 15.2386 270.557 15.4192C270.445 15.5998 270.297 15.7551 270.121 15.8752C269.946 15.9954 269.748 16.0777 269.539 16.1171C269.33 16.1565 269.115 16.152 268.908 16.1039C267.927 15.881 266.929 15.7401 265.925 15.6826C264.751 15.6826 264.067 16.0625 264.067 16.8221C264.067 17.5818 264.578 17.8856 266.139 18.3622L267.52 18.7765C270.137 19.5983 271.394 20.5997 271.394 22.7475C271.394 25.2336 269.605 26.8911 265.338 26.8911C263.849 26.8757 262.38 26.5536 261.021 25.9449Z" fill="#2D3955"/>
</svg>
