<svg xmlns:xlink="http://www.w3.org/1999/xlink" xmlns="http://www.w3.org/2000/svg" width="511" height="315" viewBox="0 0 511 315" fill="none">
<path d="M316 -0.500032C316 25.1734 321.057 50.5954 330.882 74.3146C340.706 98.0337 355.107 119.585 373.261 137.739C391.414 155.893 412.966 170.294 436.685 180.118C460.405 189.943 485.827 195 511.5 195L511.5 125.011C495.018 125.011 478.697 121.765 463.469 115.457C448.241 109.15 434.405 99.9044 422.75 88.2497C411.096 76.5949 401.85 62.7587 395.543 47.531C389.235 32.3033 385.989 15.9823 385.989 -0.500014L316 -0.500032Z" fill="white"/>
<path d="M444 -0.500006C444 17.4021 451.112 34.571 463.77 47.2297C476.429 59.8884 493.598 67 511.5 67L511.5 -0.500003L444 -0.500006Z" fill="white"/>
</svg>