<svg width="166" height="28" viewBox="0 0 166 28" fill="none" xmlns="http://www.w3.org/2000/svg">
<path d="M41.8837 17.5131H43.6659L46.5718 22.0075L49.439 17.5131H51.2213V27.0057H49.5552V20.1865L46.5718 24.681H46.4944L43.511 20.2253V27.0057H41.8837V17.5131Z" fill="#2D3955"/>
<path d="M95.7008 22.1233C95.7008 19.4499 97.7543 17.1639 100.583 17.1639C102.249 17.1639 103.256 17.6289 104.225 18.4425L103.179 19.7211C102.442 19.1012 101.745 18.7137 100.505 18.7137C98.7617 18.7137 97.4056 20.2635 97.4056 22.0846C97.4056 24.0218 98.6842 25.4942 100.621 25.4942C101.513 25.4942 102.326 25.2229 102.907 24.758V22.9757H100.466V21.5421H104.612V25.5329C103.682 26.3466 102.326 27.0052 100.66 27.0052C97.6768 27.0052 95.7008 24.8742 95.7008 22.1233Z" fill="#2D3955"/>
<path d="M70.8653 25.9981C70.0516 26.5793 69.083 26.8892 67.9594 26.8892C65.0535 26.8892 63 24.6807 63 22.0073V21.9686C63 19.2951 65.0535 17.0479 67.9981 17.0479C70.904 17.0479 72.9575 19.2564 72.9575 21.9298V21.9686C72.9575 23.0534 72.6088 24.0608 71.9889 24.8745L73.0738 25.8044L71.9889 27.0055L70.8653 25.9981ZM69.6254 24.8745L67.9981 23.4796L69.083 22.2398L70.7103 23.7509C71.0203 23.2472 71.214 22.6272 71.214 21.9686V21.9298C71.214 20.0701 69.8579 18.559 67.9981 18.559C66.0996 18.559 64.7823 20.0701 64.7823 21.9298V21.9686C64.7823 23.8283 66.1384 25.3394 67.9981 25.3394C68.6181 25.3394 69.1992 25.1844 69.6254 24.8745Z" fill="#2D3955"/>
<path d="M124.644 17.4737H131.695V18.9847H126.31V21.4644H131.114V22.9367H126.31V25.4939H131.773V27.005H124.644V17.4737Z" fill="#2D3955"/>
<path d="M151.107 17.4354H152.657L156.841 27.0054H155.059L154.09 24.7195H149.596L148.627 27.0054H146.922L151.107 17.4354ZM153.509 23.2084L151.882 19.4114L150.254 23.2084H153.509Z" fill="#2D3955"/>
<path d="M56.9947 17.4354H58.5445L62.729 27.0054H60.9467L59.9781 24.7195H55.4836L54.515 27.0054H52.8102L56.9947 17.4354ZM59.3969 23.2084L57.7696 19.4114L56.1423 23.2084H59.3969Z" fill="#2D3955"/>
<path d="M110.269 17.4354H111.819L116.004 27.0054H114.221L113.253 24.7195H108.758L107.79 27.0054H106.085L110.269 17.4354ZM112.633 23.2084L111.005 19.4114L109.378 23.2084H112.633Z" fill="#2D3955"/>
<path d="M85.6662 17.4354H87.216L91.4005 27.0054H89.6182L88.6496 24.7195H84.1551L83.1865 27.0054H81.4817L85.6662 17.4354ZM88.0296 23.2084L86.4023 19.4114L84.775 23.2084H88.0296Z" fill="#2D3955"/>
<path d="M77.0644 19.0235H74.0422V17.4737H81.7913V19.0235H78.7692V27.005H77.0644V19.0235Z" fill="#2D3955"/>
<path d="M118.367 19.0235H115.345V17.4737H123.055V19.0235H120.033V27.005H118.367V19.0235Z" fill="#2D3955"/>
<path d="M159.786 23.2864L156.027 17.5908H158.003L160.638 21.7753L163.311 17.5908H165.21L161.452 23.2476V27.0059H159.786V23.2864Z" fill="#2D3955"/>
<path d="M136.616 27.0059H138.088L140.413 20.1867L142.738 27.0059H144.171L147.503 17.4358H145.76L143.474 24.4875L141.149 17.3971H139.716L137.391 24.4875L135.144 17.4358H133.323L136.616 27.0059Z" fill="#2D3955"/>
<path d="M0 2.94418V13.2892H27.3929V13.2504C20.1088 6.85746 10.5 2.94418 0 2.94418Z" fill="#2D3955"/>
<path d="M34.832 27.1992V16.8542H7.40039V16.8929C14.7232 23.3247 24.3321 27.1992 34.832 27.1992Z" fill="#2D3955"/>
<path d="M149.596 0H148.085V10.4612H149.596V0Z" fill="#2D3955"/>
<path d="M112.477 0H110.966V10.4612H112.477V0Z" fill="#2D3955"/>
<path d="M163.079 3.79749V9.10559H156.957V3.83624H156.841C156.454 3.75875 156.105 3.72 155.756 3.68125C155.407 3.64251 155.02 3.64251 154.594 3.64251C154.051 3.64251 153.548 3.75875 153.083 3.91373C152.657 4.10745 152.269 4.37867 151.959 4.68863C151.649 5.03734 151.417 5.42479 151.262 5.85099C151.107 6.27719 151.029 6.74213 151.029 7.20707C151.029 7.63327 151.107 8.02072 151.223 8.40818C151.339 8.79563 151.533 9.14434 151.804 9.4543C152.075 9.76426 152.424 9.99673 152.85 10.1905C153.276 10.3842 153.78 10.4617 154.4 10.4617H155.407C155.33 11.779 154.516 12.4377 152.889 12.4377C152.579 12.4377 152.23 12.3989 151.92 12.3602C151.61 12.3214 151.262 12.244 150.952 12.1665L150.797 12.1277L150.913 13.7938H151.029C151.262 13.8325 151.533 13.8713 151.882 13.91C152.23 13.9488 152.657 13.9487 152.889 13.9487C153.625 13.9487 154.168 13.8325 154.71 13.6C155.252 13.3676 155.679 13.0964 155.989 12.7476C156.299 12.3989 156.531 12.0115 156.686 11.5853C156.802 11.1978 156.88 10.8104 156.919 10.4617H164.59V3.79749H163.079ZM155.446 9.10559H154.594C153.974 9.10559 153.47 8.91187 153.16 8.56316C152.811 8.21445 152.657 7.63327 152.657 6.89711C152.657 6.5484 152.734 6.23844 152.85 6.00597C152.966 5.73475 153.121 5.54103 153.276 5.38605C153.431 5.23107 153.664 5.07608 153.858 4.99859C154.09 4.9211 154.284 4.88236 154.478 4.88236C154.516 4.88236 154.594 4.88236 154.71 4.88236H155.02C155.136 4.88236 155.214 4.88236 155.33 4.9211C155.369 4.9211 155.446 4.9211 155.485 4.95985V9.10559H155.446Z" fill="#2D3955"/>
<path d="M122.667 9.10491V3.79681H122.551C122.164 3.71932 121.815 3.68057 121.466 3.64183C121.118 3.60308 120.73 3.60308 120.343 3.60308C119.839 3.60308 119.374 3.68057 118.909 3.8743C118.483 4.02928 118.096 4.3005 117.786 4.61046C117.476 4.92042 117.204 5.30787 117.049 5.73407C116.856 6.16027 116.778 6.66396 116.778 7.20639C116.778 7.67133 116.856 8.13628 117.011 8.52373C117.166 8.91118 117.359 9.25989 117.669 9.56985C117.941 9.84107 118.328 10.0735 118.715 10.2285C119.142 10.3835 119.607 10.461 120.149 10.461H123.365H145.915V3.79681H144.404V9.10491H122.667ZM121.195 9.10491H120.343C119.684 9.10491 119.219 8.91118 118.87 8.56247C118.522 8.17502 118.367 7.63259 118.367 6.89643C118.367 6.58647 118.405 6.31525 118.522 6.08278C118.638 5.85031 118.754 5.61783 118.909 5.42411C119.064 5.23038 119.258 5.11415 119.49 4.99791C119.723 4.88167 119.955 4.84293 120.188 4.84293C120.227 4.84293 120.304 4.84293 120.42 4.84293H120.73C120.846 4.84293 120.924 4.84293 121.04 4.88167C121.079 4.88167 121.156 4.88167 121.195 4.92042V9.10491Z" fill="#2D3955"/>
<path d="M106.976 9.10514H101.513C101.823 8.60145 101.978 8.02027 101.978 7.40035V7.3616C101.978 5.50183 100.467 4.02951 98.5293 4.02951C96.6308 4.02951 95.1197 5.46308 95.081 7.32285V7.3616H95.1197L95.081 7.40035V7.43909V7.47784C95.081 7.7878 95.0422 8.05901 94.9647 8.25274C94.8872 8.48521 94.8098 8.67894 94.6935 8.79517C94.5773 8.91141 94.461 9.02765 94.3061 9.06639C94.1511 9.10514 93.9961 9.14388 93.8411 9.14388H90.0441H88.7655C88.9592 8.87267 89.1142 8.60145 89.2304 8.29149C89.4242 7.82654 89.5017 7.32285 89.5017 6.78042C89.5017 6.31548 89.4242 5.88928 89.3079 5.46308C89.1917 5.03688 88.998 4.68818 88.7267 4.37821C88.4555 4.06825 88.1456 3.79704 87.7194 3.64205C87.3319 3.44833 86.867 3.37084 86.3245 3.37084C85.7821 3.37084 85.2784 3.48707 84.8522 3.6808C84.426 3.87453 84.0773 4.14574 83.7674 4.49445C83.4961 4.84316 83.2637 5.19187 83.1087 5.61806C82.9537 6.04426 82.8762 6.47046 82.8762 6.89666C82.8762 7.47784 82.9537 7.98152 83.1087 8.36898C83.2249 8.67894 83.3799 8.91141 83.5349 9.14388H79.9316V6.9354C79.9316 5.85053 79.6604 4.99814 79.1954 4.45571C78.6917 3.91327 77.9943 3.60331 77.1419 3.60331C76.677 3.60331 76.212 3.71955 75.7471 3.95202C75.3209 4.18449 74.8947 4.49445 74.5072 4.8819C74.1198 5.26936 73.7711 5.65681 73.4611 6.12175C73.3061 6.35422 73.1512 6.58669 73.0349 6.81917C73.0349 6.74168 73.0349 6.66419 73.0737 6.58669C73.1124 6.35422 73.1124 6.08301 73.1512 5.7343C73.1512 5.42434 73.1899 5.07563 73.1899 4.72692V0H71.6788V9.10514H49.4778H48.3542C47.9667 9.10514 47.5793 9.02765 47.2306 8.91141C46.9206 8.79517 46.6494 8.64019 46.4169 8.48521C46.8819 8.09776 47.2693 7.71031 47.5018 7.24536C47.7343 6.78042 47.8892 6.31548 47.8892 5.88928C47.8892 5.54057 47.8117 5.19187 47.6955 4.8819C47.5793 4.57194 47.3855 4.30072 47.1143 4.06825C46.8431 3.83578 46.5332 3.64205 46.1844 3.52582C45.797 3.40958 45.3708 3.33209 44.8671 3.33209C44.2859 3.33209 43.666 3.44833 43.0461 3.6808C42.4262 3.91327 41.845 4.22323 41.3025 4.57194L41.2638 4.61069L41.0701 6.04426L41.1476 6.08301C41.4963 6.23799 41.8062 6.43171 42.0774 6.54795C42.3487 6.70293 42.5811 6.85791 42.7749 7.05164C43.0073 7.24536 43.2011 7.43909 43.4335 7.67156C43.6273 7.86529 43.8597 8.13651 44.0922 8.40772C43.7822 8.5627 43.4335 8.75643 43.0848 8.95016C42.6974 9.18263 42.3487 9.45384 42 9.72506C41.69 9.99628 41.4188 10.3062 41.1863 10.6162C40.9538 10.9262 40.8763 11.2749 40.8763 11.6236C40.8763 12.011 40.9538 12.321 41.0701 12.631C41.2251 12.9409 41.4188 13.1734 41.7287 13.3671C42.0387 13.5608 42.4649 13.7158 42.9686 13.7933C43.4723 13.8708 44.0922 13.9483 44.8671 13.9483C45.2546 13.9483 45.6033 13.9483 45.9907 13.9095C46.3782 13.8708 46.7269 13.8321 47.0756 13.7546H47.1531L47.2693 12.4372L47.1531 12.476C46.9981 12.5147 46.8044 12.5147 46.6106 12.5535C46.4169 12.5922 46.2232 12.5922 45.9907 12.5922C45.797 12.5922 45.6033 12.631 45.4095 12.631C45.2158 12.631 45.0221 12.631 44.8671 12.631C44.0535 12.631 43.4723 12.5535 43.0461 12.3597C42.6586 12.2048 42.4649 11.9335 42.4649 11.5461C42.4649 11.3911 42.5424 11.1974 42.6586 11.0424C42.7749 10.8487 42.9686 10.6549 43.2398 10.4612C43.4723 10.2675 43.7822 10.0738 44.1309 9.88004C44.4409 9.68632 44.8284 9.53133 45.1771 9.33761C45.642 9.68632 46.1457 9.95753 46.6106 10.1513C47.1143 10.3062 47.6955 10.4225 48.3542 10.4225H49.5553H80.0866H92.3301H93.8411H93.8799C94.4223 10.3837 94.8485 10.2675 95.1585 10.035C95.4297 9.8413 95.6234 9.60883 95.7784 9.29886C96.3983 10.19 97.4444 10.7324 98.6068 10.7324C99.1492 10.7324 99.6529 10.6162 100.079 10.4225H108.487V0H106.976V9.10514ZM46.0295 6.9354C45.8357 7.24536 45.6033 7.51658 45.332 7.74905C44.9059 7.16787 44.4409 6.66419 43.976 6.23799C43.5498 5.88928 43.0848 5.61806 42.6199 5.46308C42.9298 5.26936 43.2398 5.11437 43.511 4.95939C43.8597 4.80441 44.2859 4.72692 44.7121 4.72692C45.2158 4.72692 45.6033 4.84316 45.9132 5.07563C46.1844 5.3081 46.3394 5.61806 46.3394 6.00552C46.3394 6.31548 46.2232 6.62544 46.0295 6.9354ZM78.4205 9.10514H73.2286C73.4611 8.52396 73.6936 7.94278 74.0035 7.47784C74.3135 6.9354 74.6622 6.47046 75.0109 6.12175C75.3596 5.7343 75.7083 5.46308 76.057 5.26936C76.4058 5.07563 76.7157 4.95939 76.9869 4.95939C77.2581 4.95939 77.4906 4.99814 77.6456 5.11437C77.8393 5.23061 77.9943 5.34685 78.0718 5.54057C78.188 5.7343 78.2655 5.92803 78.343 6.19924C78.3818 6.47046 78.4205 6.74168 78.4205 7.09038V9.10514ZM87.4869 8.52396C87.2544 8.83392 86.9445 9.06639 86.5183 9.10514L86.2083 9.14388L85.8596 9.10514C85.7046 9.06639 85.5884 9.02765 85.4334 8.95016C85.2397 8.83392 85.0459 8.64019 84.9297 8.40772C84.7747 8.17525 84.6972 7.94278 84.6198 7.67156C84.5423 7.40034 84.5035 7.12913 84.5035 6.85791C84.5035 6.54795 84.5423 6.27673 84.6198 6.00552C84.6972 5.7343 84.7747 5.50183 84.9297 5.3081C85.0847 5.11437 85.2397 4.95939 85.4721 4.84316C85.6659 4.72692 85.9371 4.64943 86.2083 4.64943C86.5183 4.64943 86.7895 4.72692 86.9832 4.84316C87.2157 4.95939 87.3707 5.11437 87.5256 5.34685C87.6806 5.54057 87.7581 5.77304 87.8356 6.04426C87.9131 6.31548 87.9518 6.5867 87.9518 6.85791C87.9131 7.51658 87.7969 8.09776 87.4869 8.52396ZM96.6308 7.40035C96.6308 6.19924 97.4444 5.38559 98.5293 5.38559C99.6142 5.38559 100.467 6.27673 100.467 7.40035V7.43909C100.467 8.60145 99.6529 9.45384 98.568 9.45384C97.4832 9.45384 96.6308 8.5627 96.6308 7.40035Z" fill="#2D3955"/>
<path d="M162.963 11.4681C162.73 11.4681 162.536 11.5456 162.381 11.7006C162.226 11.8556 162.149 12.0493 162.149 12.2818C162.149 12.5143 162.226 12.708 162.381 12.863C162.536 13.018 162.73 13.0954 162.963 13.0954C163.195 13.0954 163.389 13.018 163.544 12.863C163.699 12.708 163.737 12.5143 163.737 12.2818C163.737 12.0493 163.66 11.8556 163.544 11.7006C163.35 11.5456 163.156 11.4681 162.963 11.4681Z" fill="#2D3955"/>
<path d="M144.016 11.4681C143.784 11.4681 143.59 11.5456 143.435 11.7006C143.28 11.8556 143.203 12.0493 143.203 12.2818C143.203 12.5143 143.28 12.708 143.435 12.863C143.59 13.018 143.784 13.0954 144.016 13.0954C144.249 13.0954 144.442 13.018 144.597 12.863C144.752 12.708 144.791 12.5143 144.791 12.2818C144.791 12.0493 144.714 11.8556 144.597 11.7006C144.442 11.5456 144.249 11.4681 144.016 11.4681Z" fill="#2D3955"/>
<path d="M120.847 2.71263C121.118 2.71263 121.312 2.63514 121.467 2.44141C121.621 2.28643 121.699 2.05396 121.699 1.82148C121.699 1.58901 121.621 1.39529 121.467 1.20156C121.312 1.04658 121.118 0.930344 120.847 0.930344C120.614 0.930344 120.382 1.00783 120.227 1.16282C120.072 1.3178 119.955 1.55027 119.955 1.78274C119.955 2.01521 120.033 2.20894 120.227 2.40266C120.382 2.63514 120.575 2.71263 120.847 2.71263Z" fill="#2D3955"/>
<path d="M118.716 2.71263C118.987 2.71263 119.258 2.59639 119.413 2.36392C119.529 2.24768 119.568 2.0927 119.568 1.89898C119.568 1.62776 119.491 1.39529 119.336 1.20156C119.181 1.04658 118.948 0.930344 118.716 0.930344C118.483 0.930344 118.251 1.00783 118.096 1.20156C117.941 1.35654 117.863 1.58901 117.863 1.82148C117.863 2.05396 117.941 2.24768 118.096 2.44141C118.29 2.63514 118.483 2.71263 118.716 2.71263Z" fill="#2D3955"/>
<path d="M87.2542 2.7892C87.5254 2.7892 87.7191 2.71171 87.8741 2.51799C88.0291 2.363 88.1066 2.13053 88.1066 1.89806C88.1066 1.66559 88.0291 1.47186 87.8741 1.27814C87.7191 1.12316 87.5254 1.00692 87.2542 1.00692C87.0217 1.00692 86.7892 1.08441 86.6343 1.23939C86.4793 1.39437 86.363 1.62684 86.363 1.85932C86.363 2.09179 86.4405 2.28551 86.6343 2.47924C86.7892 2.71171 87.0217 2.7892 87.2542 2.7892Z" fill="#2D3955"/>
<path d="M85.1622 2.7892C85.4334 2.7892 85.7046 2.67297 85.8596 2.44049C85.9759 2.32426 86.0146 2.16928 86.0146 1.97555C86.0146 1.70433 85.9371 1.47186 85.7821 1.27814C85.6271 1.12316 85.3947 1.00692 85.1622 1.00692C84.9297 1.00692 84.6973 1.08441 84.5423 1.27814C84.3873 1.43312 84.3098 1.66559 84.3098 1.89806C84.3098 2.13053 84.3873 2.32426 84.5423 2.51799C84.6973 2.71171 84.891 2.7892 85.1622 2.7892Z" fill="#2D3955"/>
</svg>
