<svg width="182" height="45" viewBox="0 0 182 45" fill="none" xmlns="http://www.w3.org/2000/svg">
<path d="M111.774 5.78752C112.125 5.37245 112.317 4.92546 112.317 4.44654C112.317 2.49893 109.22 0.902527 105.42 0.902527C103.664 0.902527 102.1 1.22181 100.855 1.76458C99.418 2.40314 98.4921 3.36099 98.4921 4.41461C98.4921 4.89353 98.6836 5.34052 99.0029 5.75559V5.78752C99.6734 6.58572 100.919 7.25621 102.451 7.63934C103.249 7.89477 104.207 7.99055 105.389 7.99055C106.538 7.99055 108.198 7.79898 108.869 7.51163C110.146 7.09657 111.199 6.52186 111.774 5.78752ZM111.71 5.69173H110.88C110.88 5.6598 110.88 5.6598 110.88 5.62788C111.136 5.24474 111.263 4.8616 111.231 4.44654H112.157C112.157 4.89353 111.998 5.3086 111.71 5.69173ZM109.156 6.905H108.645C109.028 6.61764 109.316 6.29836 109.539 6.01101C109.571 6.01101 109.571 6.01101 109.603 6.01101C109.699 6.01101 109.763 5.91523 109.89 5.91523C109.922 5.91523 109.954 5.97908 109.986 5.97908C110.05 6.04294 110.082 6.17065 110.146 6.20258C109.858 6.458 109.539 6.6815 109.156 6.905ZM111.487 2.94592H110.657C110.401 2.62664 110.05 2.30736 109.699 2.05194C109.763 2.08386 109.795 2.11579 109.858 2.14772C109.89 2.17965 109.954 2.17965 109.986 2.17965V2.11579C109.922 2.05194 109.827 2.05194 109.763 1.95615C109.731 1.92422 109.763 1.8923 109.795 1.86037C110.465 2.14772 111.04 2.53086 111.487 2.94592ZM110.88 5.37245C110.88 5.24474 110.88 5.11703 110.848 4.98932C110.784 5.02124 110.752 5.0851 110.721 5.14896C110.657 5.34052 110.625 5.21281 110.593 5.18088C110.529 5.14896 110.561 5.05317 110.497 5.02124C110.465 4.98931 110.433 5.05317 110.401 5.05317C110.305 5.11703 110.21 5.14896 110.114 5.21281C110.082 5.21281 110.082 5.24474 110.082 5.24474C110.018 5.27667 109.986 5.27667 109.954 5.3086C110.05 5.05317 110.114 4.82967 110.114 4.60618C110.146 4.54232 110.146 4.47847 110.146 4.41461H110.305C110.305 4.44654 110.305 4.44654 110.305 4.44654L110.337 4.41461H111.136C111.136 4.76582 111.04 5.05317 110.88 5.37245ZM100.855 4.41461H101.876C101.876 4.79775 101.94 5.21281 102.164 5.6598H101.206C100.951 5.21281 100.855 4.76582 100.855 4.41461ZM103.984 1.28566C104.079 1.28566 104.175 1.28566 104.271 1.28566C104.303 1.28566 104.271 1.34952 104.239 1.34952C104.207 1.34952 104.207 1.38145 104.175 1.41338C104.111 1.41338 104.048 1.47723 103.984 1.54109C103.92 1.47723 103.856 1.4453 103.792 1.41338C103.888 1.38145 103.952 1.34952 103.984 1.28566ZM109.922 4.0634C109.922 4.0634 109.922 4.03147 109.922 4.0634C109.89 4.0634 109.858 3.99955 109.858 4.03147V4.0634C109.922 4.12726 109.922 4.09533 109.922 4.0634C109.922 4.09533 109.922 4.12726 109.922 4.12726C109.922 4.12726 109.89 4.12726 109.858 4.12726C109.795 4.15919 109.795 4.22304 109.795 4.25497C109.763 4.25497 109.763 4.2869 109.731 4.25497C109.731 4.25497 109.731 4.25497 109.731 4.2869H109.348C109.316 4.19111 109.284 4.12726 109.284 4.03147C109.348 4.0634 109.443 4.0634 109.507 4.0634C109.507 3.93569 109.539 3.83991 109.475 3.74412C109.443 3.71219 109.38 3.68027 109.348 3.61641C109.316 3.58448 109.316 3.55255 109.348 3.52063C109.411 3.4887 109.507 3.52063 109.571 3.52063C109.603 3.52063 109.635 3.42484 109.635 3.39291C109.635 3.39291 109.635 3.36099 109.667 3.32906C109.827 3.58448 109.89 3.80798 109.922 4.0634ZM109.635 5.50016C109.571 5.53209 109.507 5.53209 109.507 5.59595C109.507 5.62788 109.507 5.6598 109.507 5.69173H108.645C108.869 5.24474 108.933 4.82968 108.964 4.44654H109.188V4.47847C109.252 4.60618 109.284 4.60618 109.316 4.67003C109.348 4.70196 109.38 4.73389 109.443 4.73389C109.411 4.70196 109.475 4.67003 109.443 4.63811C109.411 4.57425 109.411 4.51039 109.348 4.44654H109.635L109.603 4.47847C109.603 4.47847 109.571 4.51039 109.603 4.51039C109.667 4.54232 109.763 4.57425 109.827 4.63811C109.89 4.67003 109.922 4.60618 109.954 4.60618C109.986 4.60618 109.954 4.70196 109.986 4.70196C109.954 4.92546 109.89 5.18088 109.795 5.43631C109.699 5.46824 109.667 5.50016 109.635 5.50016ZM102.387 5.78752H102.834C102.834 5.85137 102.802 5.91523 102.834 5.97908C102.93 6.13872 103.058 6.26644 103.122 6.42608C103.154 6.52186 103.185 6.58572 103.249 6.6815C103.281 6.77728 103.377 6.74536 103.473 6.77728C103.473 6.71343 103.441 6.64957 103.441 6.58572C103.441 6.58572 103.409 6.55379 103.409 6.52186C103.377 6.36222 103.345 6.20258 103.441 6.07487C103.537 6.33029 103.664 6.58572 103.824 6.87307H103.281C102.866 6.55379 102.579 6.17065 102.387 5.78752ZM102.068 3.80798C102.164 3.83991 102.228 3.90376 102.291 3.96762C102.323 3.99955 102.323 3.99955 102.323 4.03147C102.323 4.0634 102.323 4.09533 102.355 4.12726C102.355 4.15919 102.387 4.15919 102.419 4.15919C102.451 4.19111 102.387 4.25497 102.387 4.2869H102.036C102.036 4.22304 102.036 4.15919 102.036 4.09533C102.036 3.99955 102.036 3.90376 102.068 3.80798ZM103.058 2.65857C103.09 2.59471 103.185 2.56278 103.217 2.53086C103.249 2.49893 103.217 2.467 103.249 2.467C103.281 2.43507 103.249 2.49893 103.281 2.53086C103.313 2.56278 103.377 2.56278 103.409 2.53086C103.345 2.65857 103.313 2.78628 103.249 2.94592H102.802C102.802 2.88206 102.834 2.85014 102.898 2.85014C102.93 2.85014 102.898 2.75435 102.93 2.72242C102.93 2.65857 103.026 2.72242 103.058 2.65857ZM101.908 3.32906C101.94 3.29713 101.94 3.20135 101.972 3.20135C102.036 3.16942 102.1 3.16942 102.164 3.16942C102.132 3.2652 102.1 3.36099 102.068 3.42484C102.004 3.45677 101.972 3.42484 101.94 3.4887C101.908 3.39291 101.908 3.36099 101.908 3.32906ZM102.291 3.10556C102.291 3.16942 102.355 3.20135 102.387 3.23327C102.419 3.29713 102.483 3.2652 102.515 3.23327V3.20135C102.579 3.16942 102.547 3.10556 102.579 3.07363H103.185C103.122 3.32906 103.058 3.61641 103.026 3.96762C103.026 3.96762 102.994 3.96762 102.994 3.93569C102.898 3.87183 102.77 3.87183 102.675 3.93569C102.643 3.96762 102.611 3.96762 102.579 3.96762C102.547 3.96762 102.579 3.90376 102.547 3.90376C102.483 3.87183 102.451 3.93569 102.419 3.96762C102.323 3.99955 102.26 3.90376 102.26 3.80798C102.26 3.77605 102.26 3.74412 102.26 3.71219H102.291C102.26 3.68027 102.292 3.61641 102.26 3.61641C102.228 3.61641 102.196 3.64834 102.164 3.58448C102.132 3.52063 102.228 3.42484 102.164 3.36099C102.164 3.36099 102.164 3.36099 102.132 3.36099C102.228 3.2652 102.26 3.16942 102.291 3.10556ZM108.964 4.31883C108.964 4.19111 108.964 4.09533 108.964 3.99955C108.964 3.90376 108.933 3.83991 108.933 3.74412C108.964 3.74412 108.996 3.77605 108.996 3.80798C109.06 3.93569 109.092 4.0634 109.124 4.22304H109.188C109.22 4.2869 109.252 4.31883 109.316 4.35075L108.964 4.31883ZM106.729 7.19235C106.698 7.19235 106.634 7.19235 106.602 7.22428C106.442 7.25621 106.314 7.25621 106.187 7.22428C106.219 7.16042 106.251 7.09657 106.251 7.03271H106.825C106.793 7.06464 106.761 7.12849 106.729 7.19235ZM104.111 7.19235C104.079 7.12849 104.016 7.06464 103.984 7.00078H104.59C104.622 7.09657 104.654 7.22428 104.718 7.32006C104.654 7.35199 104.558 7.38392 104.463 7.38392C104.335 7.35199 104.207 7.28813 104.111 7.19235ZM104.207 4.41461C104.207 4.82967 104.239 5.24474 104.271 5.6598H103.664C103.696 5.59595 103.728 5.53209 103.76 5.46824C103.76 5.43631 103.792 5.46824 103.792 5.43631C103.856 5.46824 103.92 5.40438 103.92 5.34052C103.92 5.27667 103.92 5.21281 103.92 5.14896C103.952 5.0851 103.984 5.02124 104.016 4.92546C104.016 4.89353 104.079 4.82967 104.079 4.79775C104.143 4.60618 103.856 4.60618 103.76 4.51039C103.728 4.47847 103.728 4.44654 103.696 4.41461H104.207ZM106.538 2.91399C106.57 2.91399 106.602 2.91399 106.602 2.91399V2.94592H106.538C106.538 2.91399 106.538 2.91399 106.538 2.91399ZM106.634 3.07363C106.602 3.07363 106.602 3.07363 106.634 3.07363C106.602 3.07363 106.634 3.07363 106.634 3.07363ZM105.548 5.78752H105.899C105.899 5.81944 105.899 5.85137 105.931 5.8833C105.963 5.94716 105.995 5.97908 106.059 6.01101C106.123 6.04294 106.187 6.04294 106.251 6.04294C106.251 6.01101 106.283 6.01101 106.251 6.01101C106.283 6.01101 106.283 5.97908 106.314 5.97908C106.346 5.97908 106.346 5.94716 106.378 5.94716C106.314 6.26644 106.251 6.58572 106.155 6.87307H105.548V5.78752ZM105.293 6.905H104.686C104.59 6.55379 104.495 6.20258 104.431 5.81944H105.293V6.905ZM105.548 4.15919C105.58 4.12726 105.676 4.15919 105.676 4.22304C105.676 4.25497 105.676 4.25497 105.676 4.2869H105.548V4.15919ZM105.708 4.41461C105.74 4.51039 105.772 4.63811 105.836 4.73389C105.899 4.82967 105.867 4.95739 105.836 5.05317C105.804 5.14896 105.772 5.21281 105.772 5.27667C105.804 5.37245 105.867 5.40438 105.867 5.50016C105.867 5.56402 105.867 5.59595 105.867 5.6598H105.516V4.41461H105.708ZM105.293 5.6598H104.399C104.335 5.24474 104.335 4.82967 104.335 4.41461H105.293V5.6598ZM103.601 5.8833C103.601 5.85137 103.632 5.85137 103.664 5.85137C103.664 5.85137 103.664 5.81944 103.664 5.78752H104.303C104.367 6.17065 104.431 6.55379 104.526 6.87307H103.888C103.728 6.55379 103.569 6.26644 103.473 5.97908C103.537 5.97908 103.569 5.94716 103.601 5.8833ZM104.846 7.25621C104.846 7.25621 104.814 7.25621 104.814 7.28813C104.782 7.19235 104.75 7.12849 104.718 7.03271H105.293V7.19235C105.229 7.19235 105.165 7.16042 105.101 7.19235C105.005 7.22428 104.942 7.22428 104.846 7.25621ZM105.548 7.03271H106.123C106.091 7.09657 106.091 7.12849 106.059 7.19235C105.995 7.16042 105.931 7.12849 105.867 7.09657C105.836 7.06464 105.74 7.06464 105.676 7.09657C105.644 7.12849 105.58 7.12849 105.548 7.16042V7.03271ZM106.282 6.905C106.378 6.58572 106.474 6.23451 106.506 5.85137L106.538 5.81944C106.538 5.81944 106.538 5.81944 106.57 5.78752H107.368C107.24 6.13872 107.081 6.48993 106.889 6.87307L106.282 6.905ZM107.113 5.69173C107.113 5.6598 107.145 5.6598 107.145 5.62788C107.145 5.53209 107.24 5.46824 107.272 5.34052C107.272 5.3086 107.272 5.3086 107.336 5.3086C107.304 5.24474 107.336 5.18088 107.336 5.0851C107.336 5.05317 107.304 5.0851 107.304 5.0851C107.272 5.18088 107.208 5.21281 107.113 5.18088C107.145 5.24474 107.113 5.27667 107.049 5.34052C107.049 5.34052 107.049 5.37245 107.049 5.40438C106.953 5.50016 106.985 5.62788 107.081 5.69173H106.729C106.729 5.6598 106.729 5.62788 106.729 5.59595C106.761 5.56402 106.761 5.50016 106.793 5.46824C106.857 5.40438 106.921 5.37245 106.953 5.27667C106.985 5.18088 106.985 5.05317 106.985 4.95739C106.985 4.92546 106.985 4.89353 106.953 4.8616C106.921 4.79775 106.953 4.73389 106.953 4.67003C106.985 4.67003 107.017 4.63811 107.017 4.63811C107.081 4.57425 107.145 4.51039 107.208 4.44654H107.719C107.687 4.82968 107.623 5.24474 107.496 5.69173H107.113ZM107.208 4.31883C107.24 4.2869 107.272 4.22304 107.304 4.19111C107.304 4.15919 107.304 4.12726 107.336 4.12726C107.4 4.09533 107.432 3.99955 107.432 3.96762C107.432 3.90376 107.336 3.93569 107.272 3.90376C107.208 3.87183 107.145 3.83991 107.113 3.80798C106.985 3.74412 106.889 3.64834 106.825 3.52063C106.793 3.42484 106.729 3.36099 106.698 3.29713C106.698 3.2652 106.666 3.23327 106.634 3.23327H106.666C106.761 3.36099 106.857 3.52063 107.049 3.58448C107.081 3.58448 107.081 3.61641 107.081 3.64834C107.081 3.71219 107.049 3.80798 107.145 3.83991C107.24 3.87183 107.336 3.90376 107.432 3.83991C107.464 3.83991 107.496 3.77605 107.496 3.77605C107.56 3.74412 107.592 3.71219 107.623 3.68027C107.655 3.90376 107.655 4.12726 107.655 4.35075L107.208 4.31883ZM107.719 3.39291C107.783 3.39291 107.815 3.42484 107.879 3.42484H107.911C107.943 3.45677 108.007 3.45677 108.007 3.4887C108.102 3.68027 108.166 3.87183 108.262 4.0634C108.262 4.0634 108.294 4.0634 108.326 4.0634C108.326 4.03147 108.326 4.03147 108.358 3.99955C108.39 3.90376 108.422 3.80798 108.486 3.71219C108.517 3.68027 108.549 3.64834 108.581 3.64834C108.581 3.61641 108.613 3.58448 108.645 3.58448C108.677 3.55255 108.709 3.61641 108.741 3.64834C108.773 3.74412 108.773 3.87183 108.805 3.96762C108.805 4.0634 108.805 4.19111 108.805 4.2869H107.783C107.783 3.96762 107.783 3.64834 107.719 3.39291ZM106.027 2.72242C106.059 2.75435 106.059 2.78628 106.091 2.78628C106.123 2.78628 106.155 2.81821 106.187 2.81821C106.219 2.81821 106.187 2.78628 106.219 2.78628H106.251C106.251 2.78628 106.283 2.78628 106.251 2.75435C106.283 2.75435 106.283 2.75435 106.314 2.75435C106.346 2.78628 106.346 2.78628 106.378 2.78628C106.41 2.81821 106.41 2.81821 106.442 2.85014C106.442 2.88206 106.442 2.91399 106.442 2.94592H105.963V2.91399C105.931 2.88206 105.931 2.88206 105.899 2.85014C105.867 2.81821 105.836 2.75435 105.804 2.75435C105.772 2.75435 105.708 2.72242 105.676 2.75435C105.644 2.78628 105.612 2.81821 105.58 2.81821V2.65857H105.612C105.676 2.62664 105.74 2.56278 105.804 2.59471C105.836 2.62664 105.899 2.65857 105.931 2.72242C105.899 2.75435 105.963 2.6905 106.027 2.72242ZM104.686 3.77605C104.718 3.83991 104.782 3.87183 104.782 3.93569C104.814 3.99955 104.782 4.0634 104.814 4.09533C104.91 4.22304 105.069 4.25497 105.229 4.2869H105.261H104.303C104.303 3.87183 104.335 3.42484 104.399 3.0417H104.942L104.91 3.07363C104.814 3.20135 104.814 3.39291 104.75 3.55255C104.718 3.64834 104.654 3.71219 104.686 3.77605ZM104.207 4.2869H103.569C103.473 4.25497 103.409 4.15919 103.313 4.09533C103.281 4.0634 103.249 4.03147 103.185 3.99955C103.154 3.99955 103.154 3.96762 103.122 3.96762C103.154 3.61641 103.217 3.29713 103.281 3.00978H104.239C104.239 3.45677 104.239 3.87183 104.207 4.2869ZM102.26 4.41461C102.228 4.47847 102.228 4.54232 102.26 4.60618C102.292 4.63811 102.291 4.70196 102.323 4.73389C102.323 4.70196 102.355 4.70196 102.355 4.67003C102.355 4.70196 102.355 4.76582 102.387 4.79775C102.419 4.95739 102.515 5.0851 102.611 5.21281C102.643 5.24474 102.707 5.21281 102.738 5.24474C102.834 5.3086 102.802 5.43631 102.866 5.56402C102.866 5.59595 102.898 5.62788 102.898 5.6598H102.355C102.164 5.24474 102.068 4.82967 102.068 4.41461H102.26ZM103.824 7.00078C103.856 7.06464 103.888 7.09657 103.92 7.16042C103.856 7.16042 103.76 7.19235 103.696 7.22428L103.664 7.25621C103.569 7.19235 103.473 7.09657 103.377 7.00078H103.824ZM107.145 7.28813C107.113 7.28813 107.113 7.28813 107.113 7.28813C107.049 7.28813 106.985 7.28813 106.921 7.25621C106.921 7.25621 106.889 7.25621 106.889 7.22428C106.921 7.16042 106.953 7.09657 107.017 7.03271H107.464C107.336 7.09657 107.24 7.19235 107.145 7.28813ZM107.049 6.905C107.272 6.52186 107.4 6.17065 107.528 5.81944H108.422C108.23 6.20258 107.943 6.55379 107.56 6.905H107.049ZM107.56 5.69173C107.687 5.24474 107.751 4.82968 107.783 4.44654H108.837C108.805 4.8616 108.709 5.27667 108.517 5.69173H107.56ZM105.931 1.8923C105.963 1.92422 105.963 1.92422 105.963 1.95615C105.867 1.95615 105.804 2.02001 105.74 2.05194V2.08386H105.708C105.708 2.08386 105.708 2.08386 105.676 2.08386H105.644C105.612 2.08386 105.58 2.11579 105.548 2.11579V2.14772V1.92422H105.58C105.548 1.8923 105.612 1.92422 105.58 1.8923H105.612C105.644 1.98808 105.644 2.02001 105.644 2.05194C105.676 2.05194 105.676 2.05194 105.708 2.05194L105.74 2.02001C105.74 2.02001 105.74 2.02001 105.772 1.98808C105.772 1.95615 105.772 1.8923 105.804 1.86037L105.931 1.8923ZM105.293 2.08386C105.293 2.05194 105.261 2.02001 105.261 2.02001C105.261 1.98808 105.229 2.02001 105.229 2.02001C105.197 2.08386 105.229 2.14772 105.229 2.21158C105.229 2.21158 105.261 2.27543 105.293 2.27543V2.37122C105.229 2.43507 105.133 2.467 105.101 2.53086C105.069 2.59471 105.069 2.6905 105.101 2.75435C105.101 2.78628 105.165 2.78628 105.165 2.85014C105.229 2.85014 105.261 2.88206 105.325 2.85014C105.261 2.85014 105.197 2.85014 105.133 2.91399L105.101 2.94592H104.463C104.526 2.56278 104.59 2.17965 104.654 1.8923H105.325L105.293 2.08386ZM104.303 2.94592H103.345C103.409 2.78628 103.441 2.62664 103.505 2.49893C103.537 2.43507 103.569 2.40314 103.569 2.33929C103.632 2.33929 103.696 2.37122 103.76 2.30736C103.76 2.30736 103.856 2.33929 103.728 2.14772H103.76C103.76 2.11579 103.728 2.08386 103.76 2.08386C103.76 2.08386 103.792 2.11579 103.792 2.05194C103.792 2.02001 103.824 2.02001 103.824 1.98808C103.856 1.98808 103.824 1.95615 103.824 1.92422C103.824 1.8923 103.856 1.92422 103.856 1.92422C103.888 1.8923 103.888 1.8923 103.888 1.86037H104.463C104.431 2.17965 104.367 2.53086 104.303 2.94592ZM104.495 1.76458C104.526 1.73266 104.526 1.70073 104.558 1.6688C104.558 1.70073 104.526 1.73266 104.526 1.76458H104.495ZM103.984 1.76458L104.016 1.73266C104.048 1.73266 104.079 1.70073 104.079 1.6688C104.111 1.63687 104.175 1.60494 104.207 1.57302C104.207 1.60494 104.175 1.63687 104.207 1.6688C104.239 1.70073 104.239 1.73266 104.239 1.79651L103.984 1.76458ZM101.27 3.0417C101.27 3.07363 101.27 3.07363 101.27 3.10556C101.27 3.13749 101.27 3.16942 101.302 3.20135C101.366 3.2652 101.366 3.36099 101.429 3.42484C101.429 3.39291 101.429 3.39291 101.461 3.36099C101.461 3.39291 101.461 3.45677 101.493 3.4887C101.621 3.58448 101.717 3.71219 101.876 3.74412C101.908 3.74412 101.94 3.77605 101.94 3.77605H101.972C101.94 3.87183 101.94 3.99955 101.908 4.09533C101.908 4.15919 101.908 4.22304 101.908 4.2869H100.887C100.887 3.83991 101.046 3.42484 101.27 3.0417ZM102.228 5.78752C102.419 6.13872 102.675 6.52186 103.058 6.87307H102.387C101.876 6.48993 101.525 6.13872 101.302 5.78752H102.228ZM103.185 7.00078C103.281 7.09657 103.377 7.19235 103.505 7.28813C103.473 7.32006 103.473 7.32006 103.473 7.38392C103.345 7.38392 103.249 7.35199 103.154 7.38392C102.93 7.25621 102.738 7.16042 102.579 7.03271L103.185 7.00078ZM107.879 7.25621C107.783 7.22428 107.687 7.22428 107.623 7.28813C107.56 7.32006 107.528 7.28813 107.464 7.25621C107.432 7.22428 107.4 7.22428 107.368 7.22428C107.432 7.16042 107.528 7.09657 107.592 7.03271H108.23C108.134 7.09657 108.039 7.19235 107.879 7.25621ZM107.751 6.905C108.134 6.52186 108.39 6.17065 108.581 5.81944H109.443C109.411 5.85137 109.411 5.8833 109.411 5.91523C109.411 5.94716 109.38 5.97908 109.411 5.97908C109.188 6.26644 108.869 6.58572 108.454 6.87307L107.751 6.905ZM110.082 4.31883C110.082 4.31883 110.082 4.2869 110.082 4.31883C110.082 4.15919 110.05 4.03147 110.018 3.87183C109.954 3.61641 109.858 3.36099 109.731 3.13749V3.10556H110.561C110.88 3.4887 111.04 3.90376 111.104 4.31883V4.35075L110.082 4.31883ZM109.635 2.94592C109.603 2.91399 109.571 2.85014 109.539 2.81821C109.571 2.81821 109.603 2.81821 109.635 2.85014C109.667 2.88206 109.699 2.88206 109.731 2.91399C109.763 2.91399 109.763 2.94592 109.795 2.94592H109.827C109.827 2.81821 109.699 2.81821 109.667 2.72242C109.635 2.6905 109.667 2.65857 109.667 2.65857H109.699V2.62664C109.699 2.53086 109.699 2.53086 109.699 2.49893C109.763 2.49893 109.795 2.467 109.763 2.43507C109.731 2.37122 109.699 2.30736 109.635 2.27543C109.571 2.21158 109.475 2.14772 109.411 2.11579C109.38 2.11579 109.348 2.11579 109.348 2.11579C109.316 2.11579 109.316 2.08386 109.316 2.05194C109.348 2.02001 109.348 2.02001 109.38 2.02001C109.507 2.11579 109.635 2.21158 109.795 2.30736C110.05 2.53086 110.274 2.75435 110.465 2.97785L109.635 2.94592ZM108.262 1.41338C108.198 1.4453 108.102 1.4453 108.007 1.41338C107.847 1.34952 107.719 1.25374 107.56 1.22181C107.687 1.25374 107.815 1.25374 107.943 1.28566V1.31759C108.039 1.34952 108.134 1.38145 108.262 1.41338ZM107.496 1.28566C107.464 1.28566 107.464 1.25374 107.432 1.25374C107.4 1.25374 107.368 1.25374 107.368 1.25374C107.336 1.22181 107.272 1.18988 107.24 1.15795C107.336 1.15795 107.432 1.18988 107.528 1.18988L107.496 1.28566ZM107.176 1.31759C107.145 1.34952 107.113 1.34952 107.049 1.38145V1.41338C107.017 1.4453 106.985 1.4453 106.953 1.47723C106.857 1.31759 106.729 1.18988 106.634 1.12602C106.698 1.12602 106.793 1.12602 106.857 1.15795C106.985 1.18988 107.081 1.25374 107.176 1.31759ZM106.825 1.50916C106.793 1.50916 106.729 1.50916 106.698 1.54109C106.634 1.57302 106.57 1.60494 106.506 1.63687C106.474 1.63687 106.41 1.63687 106.41 1.70073C106.346 1.6688 106.314 1.60494 106.251 1.57302C106.187 1.38145 106.091 1.18988 106.027 1.0941C106.155 1.0941 106.314 1.0941 106.442 1.12602C106.506 1.12602 106.666 1.28566 106.825 1.50916ZM106.091 1.47723C106.059 1.47723 106.027 1.4453 106.027 1.4453C106.027 1.4453 106.027 1.47723 106.027 1.4453C105.963 1.4453 105.899 1.47723 105.867 1.50916C105.836 1.54109 105.74 1.57302 105.74 1.60494C105.708 1.6688 105.676 1.73266 105.644 1.76458H105.612V1.06217C105.708 1.06217 105.804 1.06217 105.899 1.06217C105.931 1.12602 105.995 1.28566 106.091 1.47723ZM105.293 1.76458H104.654C104.654 1.70073 104.686 1.6688 104.686 1.60494C104.75 1.57302 104.782 1.57302 104.846 1.54109C104.878 1.54109 104.846 1.50916 104.878 1.50916C104.973 1.4453 105.069 1.41338 105.165 1.31759C105.197 1.28566 105.229 1.31759 105.229 1.31759C105.197 1.28566 105.133 1.25374 105.101 1.22181C105.069 1.22181 105.069 1.15795 105.037 1.12602C105.005 1.12602 104.973 1.12602 104.942 1.12602C104.973 1.0941 104.973 1.06217 105.005 1.06217C105.101 1.06217 105.229 1.06217 105.325 1.06217L105.293 1.76458ZM104.75 1.15795C104.686 1.15795 104.622 1.15795 104.59 1.15795C104.495 1.18988 104.431 1.15795 104.335 1.0941H104.303C104.271 1.0941 104.271 1.12602 104.239 1.12602C104.175 1.15795 104.111 1.18988 104.048 1.25374C104.048 1.25374 104.016 1.25374 103.984 1.28566L103.952 1.18988C103.792 1.25374 103.601 1.38145 103.409 1.50916C103.377 1.47723 103.377 1.47723 103.345 1.47723V1.50916C103.313 1.50916 103.281 1.50916 103.281 1.50916C103.281 1.47723 103.249 1.47723 103.249 1.4453C103.249 1.41338 103.217 1.41338 103.185 1.38145C103.249 1.34952 103.313 1.31759 103.377 1.31759L103.345 1.18988C103.824 1.12602 104.303 1.06217 104.814 1.03024C104.782 1.0941 104.782 1.12602 104.75 1.15795ZM103.026 1.31759C103.026 1.28566 102.994 1.25374 102.994 1.25374C103.122 1.22181 103.217 1.22181 103.345 1.18988C103.217 1.25374 103.122 1.28566 103.026 1.31759ZM102.834 1.34952C102.834 1.38145 102.834 1.41338 102.834 1.41338C102.802 1.41338 102.802 1.4453 102.77 1.4453L102.738 1.41338C102.707 1.41338 102.707 1.38145 102.707 1.38145H102.738V1.31759V1.28566C102.802 1.28566 102.834 1.25374 102.898 1.25374C102.898 1.28566 102.866 1.31759 102.834 1.34952ZM101.174 1.79651C101.142 1.8923 101.046 1.8923 100.982 1.8923C100.982 1.95615 101.014 1.98808 101.046 2.05194C101.046 2.05194 101.046 2.05194 101.078 2.05194C100.727 2.30736 100.408 2.59471 100.12 2.94592H99.3541C99.7692 2.53086 100.376 2.14772 101.11 1.82844C101.11 1.82844 101.142 1.79651 101.174 1.79651ZM101.429 1.92422L101.461 1.95615C101.493 1.8923 101.557 1.8923 101.621 1.86037C101.685 1.82844 101.717 1.86037 101.749 1.8923C101.813 1.95615 101.685 2.02001 101.621 2.05194C101.621 2.08386 101.653 2.11579 101.621 2.11579C101.621 2.14772 101.589 2.11579 101.589 2.14772C101.557 2.17965 101.557 2.2435 101.557 2.30736C101.525 2.37122 101.429 2.40314 101.398 2.43507C101.366 2.467 101.302 2.49893 101.27 2.53086C101.238 2.62664 101.27 2.72242 101.27 2.81821C101.238 2.85014 101.238 2.88206 101.206 2.91399H100.28C100.599 2.53086 101.014 2.17965 101.429 1.92422ZM101.142 3.0417C100.919 3.42484 100.791 3.83991 100.759 4.25497H99.6734C99.6734 4.22304 99.6734 4.19111 99.6734 4.12726C99.7373 3.71219 99.9288 3.32906 100.184 3.00978L101.142 3.0417ZM100.727 4.41461C100.727 4.79775 100.791 5.21281 101.046 5.6598H100.12C99.8011 5.24474 99.6415 4.82967 99.6415 4.41461H100.727ZM101.142 5.78752C101.366 6.13872 101.685 6.52186 102.164 6.87307H101.653C101.046 6.52186 100.567 6.17065 100.216 5.75559L101.142 5.78752ZM102.323 7.00078C102.515 7.12849 102.707 7.25621 102.93 7.38392C102.866 7.38392 102.834 7.35199 102.77 7.35199C102.738 7.35199 102.738 7.38392 102.738 7.38392C102.419 7.25621 102.132 7.12849 101.876 6.96885L102.323 7.00078ZM102.515 7.44777V7.4797C101.972 7.35199 101.493 7.19235 101.046 7.00078H101.653C101.94 7.16042 102.228 7.32006 102.515 7.44777ZM108.326 7.19235C108.294 7.19235 108.262 7.19235 108.23 7.19235C108.326 7.12849 108.39 7.09657 108.454 7.03271H108.901C108.741 7.12849 108.581 7.19235 108.422 7.28813C108.39 7.22428 108.358 7.19235 108.326 7.19235ZM112.157 4.31883H111.231C111.231 4.2869 111.231 4.2869 111.231 4.25497C111.167 3.83991 110.976 3.42484 110.721 3.07363H111.551V3.0417C111.902 3.42484 112.125 3.87183 112.157 4.31883ZM99.2583 2.97785V3.0417H100.025C99.7692 3.39291 99.6096 3.74412 99.5457 4.15919C99.5457 4.19111 99.5457 4.25497 99.5457 4.2869H98.6517C98.6836 3.80798 98.9071 3.39291 99.2583 2.97785ZM98.6198 4.41461H99.5138C99.5138 4.8616 99.6734 5.27667 99.9608 5.6598H99.0987C98.8113 5.27667 98.6198 4.8616 98.6198 4.41461ZM99.1945 5.78752H100.057C100.408 6.20258 100.887 6.58572 101.398 6.87307H100.727C100.088 6.58572 99.5776 6.20258 99.1945 5.78752ZM108.773 7.25621C108.709 7.28813 108.645 7.32006 108.549 7.32006C108.773 7.22428 108.996 7.09657 109.188 7.00078H109.763C109.475 7.12849 109.156 7.22428 108.805 7.32006L108.773 7.25621ZM111.295 6.1068C111.295 6.07487 111.295 6.07487 111.295 6.1068C111.263 6.07487 111.263 6.1068 111.295 6.1068C111.295 6.1068 111.263 6.1068 111.295 6.1068C111.263 6.13872 111.263 6.1068 111.263 6.1068V6.13872C110.944 6.42608 110.529 6.6815 110.05 6.905H109.411C109.667 6.74536 109.922 6.58572 110.114 6.42608C110.146 6.42608 110.178 6.42608 110.178 6.39415C110.337 6.26644 110.465 6.13872 110.593 6.01101C110.625 5.97908 110.689 5.94716 110.721 5.91523C110.752 5.8833 110.784 5.85137 110.816 5.81944H111.583C111.519 5.91523 111.423 6.01101 111.295 6.1068Z" fill="#243A76"/>
<path d="M105.069 1.6369C105.037 1.6369 105.005 1.6369 105.005 1.6369C104.973 1.66883 104.973 1.66883 104.973 1.73269C105.037 1.70076 105.037 1.73269 105.101 1.70076C105.101 1.66883 105.101 1.66883 105.069 1.6369C105.069 1.66883 105.101 1.6369 105.069 1.6369Z" fill="#243A76"/>
<path d="M105.165 2.24351C105.165 2.21158 105.133 2.08387 105.133 2.05194C105.069 2.05194 105.037 2.08387 105.069 2.14773C105.101 2.17965 105.133 2.24351 105.165 2.24351Z" fill="#243A76"/>
<path d="M108.549 4.22302C108.517 4.25495 108.549 4.25495 108.549 4.22302V4.22302Z" fill="#243A76"/>
<path d="M108.486 4.22306C108.517 4.22306 108.549 4.22306 108.549 4.22306C108.581 4.19113 108.613 4.19113 108.581 4.15921C108.549 4.12728 108.486 4.09535 108.454 4.03149V4.06342H108.486C108.422 4.09535 108.486 4.15921 108.486 4.22306Z" fill="#243A76"/>
<path d="M102.323 3.39288C102.355 3.39288 102.419 3.39288 102.451 3.39288C102.483 3.39288 102.483 3.42481 102.483 3.45673C102.515 3.45673 102.515 3.45673 102.547 3.45673C102.579 3.48866 102.611 3.52059 102.643 3.55252C102.675 3.55252 102.707 3.55252 102.707 3.52059C102.675 3.42481 102.579 3.36095 102.515 3.2971C102.451 3.26517 102.387 3.26517 102.323 3.32902C102.291 3.36095 102.323 3.39288 102.323 3.39288Z" fill="#243A76"/>
<path d="M109.922 2.62665C109.89 2.65858 109.986 2.6905 109.922 2.62665V2.62665Z" fill="#243A76"/>
<path d="M109.89 2.53086C109.858 2.49893 109.858 2.56279 109.858 2.59471C109.89 2.62664 109.922 2.65857 109.954 2.65857C109.954 2.59471 109.922 2.56279 109.89 2.53086Z" fill="#243A76"/>
<path d="M110.082 2.88204H110.114C110.114 2.85011 110.114 2.81818 110.114 2.78625L110.082 2.81818C110.082 2.85011 110.05 2.88204 110.082 2.88204Z" fill="#243A76"/>
<path d="M110.082 2.72243C110.114 2.75436 110.114 2.75436 110.114 2.78629C110.178 2.72243 110.21 2.65858 110.082 2.72243Z" fill="#243A76"/>
<path d="M110.05 2.78626C110.05 2.75433 110.05 2.75433 110.05 2.75433C109.986 2.88205 110.018 2.88205 110.082 2.85012C110.082 2.81819 110.082 2.81819 110.05 2.78626C110.05 2.81819 110.082 2.81819 110.05 2.78626Z" fill="#243A76"/>
<path d="M110.146 4.03151C110.146 3.99958 110.146 3.99958 110.146 3.96765C110.114 3.93572 110.146 3.99958 110.114 3.96765C110.082 4.09536 110.146 4.06344 110.146 4.03151C110.146 4.03151 110.114 4.03151 110.146 4.03151Z" fill="#243A76"/>
<path d="M110.178 4.12729C110.146 4.15922 110.114 4.15922 110.114 4.19114C110.146 4.22307 110.178 4.19114 110.21 4.19114C110.242 4.15922 110.21 4.12729 110.178 4.12729C110.178 4.09536 110.21 4.12729 110.178 4.12729Z" fill="#243A76"/>
<path d="M109.667 4.76584C109.635 4.76584 109.571 4.73391 109.539 4.76584V4.79777C109.635 4.82969 109.635 4.86162 109.699 4.82969C109.731 4.79777 109.763 4.79777 109.763 4.79777V4.76584C109.731 4.79777 109.699 4.76584 109.667 4.76584Z" fill="#243A76"/>
<path d="M110.114 4.92548C110.114 4.92548 110.082 4.92548 110.114 4.92548C110.05 4.98933 110.082 4.9574 110.114 4.92548Z" fill="#243A76"/>
<path d="M110.21 4.82971C110.242 4.82971 110.146 4.89357 110.114 4.9255C110.114 4.95742 110.146 4.98935 110.146 4.95742C110.178 4.9255 110.242 4.89357 110.21 4.82971Z" fill="#243A76"/>
<path d="M110.369 4.67005L110.401 4.63812C110.401 4.63812 110.401 4.67005 110.369 4.67005Z" fill="#243A76"/>
<path d="M110.529 4.67002C110.561 4.67002 110.593 4.67002 110.625 4.67002C110.689 4.70194 110.625 4.7658 110.689 4.79773C110.72 4.82966 110.784 4.82966 110.816 4.82966C110.88 4.82966 110.88 4.92544 110.944 4.92544C110.976 4.92544 110.976 4.86158 110.944 4.82966H110.912C110.912 4.79773 110.912 4.73387 110.912 4.73387C110.88 4.67002 110.816 4.60616 110.752 4.57423C110.689 4.5423 110.657 4.51038 110.593 4.51038C110.561 4.51038 110.529 4.5423 110.497 4.57423C110.497 4.63809 110.497 4.63809 110.529 4.67002Z" fill="#243A76"/>
<path d="M110.657 6.42605C110.625 6.42605 110.593 6.45798 110.593 6.48991C110.689 6.48991 110.784 6.39412 110.912 6.3622C110.944 6.3622 110.944 6.33027 110.944 6.29834C110.88 6.3622 110.784 6.39412 110.657 6.42605Z" fill="#243A76"/>
<path d="M3.12298 14.7912L8.07183 20.7617L13.0207 14.7912H15.6388V29.8932H12.7333V19.2931H12.6375L8.29532 24.625H7.88026L3.50612 19.2931H3.41033V29.8932H0.504883V14.7912H3.12298Z" fill="#243A76"/>
<path d="M21.9925 14.7912V29.8932H19.087V14.7912H21.9925Z" fill="#243A76"/>
<path d="M33.295 14.5996C34.1571 14.5996 34.9872 14.6954 35.8173 14.887C36.6475 15.0785 37.5414 15.3978 38.4674 15.8767V18.6225C37.5414 18.0798 36.6794 17.6966 35.8812 17.4731C35.083 17.2496 34.2528 17.1219 33.4227 17.1219C32.3372 17.1219 31.3793 17.3454 30.5173 17.7924C29.6552 18.2394 28.9847 18.846 28.5058 19.6762C28.0269 20.4744 27.7715 21.3684 27.7715 22.3581C27.7715 23.3798 27.995 24.2738 28.4739 25.072C28.9528 25.8702 29.6233 26.4768 30.4853 26.9238C31.3474 27.3708 32.3372 27.5624 33.3908 27.5624C34.2209 27.5624 35.0191 27.4347 35.7535 27.2112C36.4878 26.9877 37.4457 26.5407 38.5951 25.9341V28.6799C37.6053 29.1907 36.7113 29.5419 35.8812 29.7654C35.0511 29.9889 34.0932 30.0847 33.0077 30.0847C31.4113 30.0847 30.0064 29.7654 28.7293 29.1269C27.4841 28.4883 26.4943 27.5943 25.76 26.3811C25.0576 25.1997 24.6744 23.8907 24.6744 22.4539C24.6744 20.9214 25.0576 19.5804 25.7919 18.3671C26.622 17.1858 27.6437 16.2279 28.9209 15.5894C30.2299 14.9189 31.6986 14.5996 33.295 14.5996Z" fill="#243A76"/>
<path d="M49.1633 14.5996C50.0253 14.5996 50.8555 14.6954 51.6856 14.887C52.5157 15.0785 53.4097 15.3978 54.3356 15.8767V18.6225C53.4097 18.0798 52.5477 17.6966 51.7495 17.4731C50.9513 17.2496 50.1211 17.1219 49.291 17.1219C48.2054 17.1219 47.2476 17.3454 46.3855 17.7924C45.5235 18.2394 44.853 18.846 44.3741 19.6762C43.8952 20.4744 43.6397 21.3684 43.6397 22.3581C43.6397 23.3798 43.8632 24.2738 44.3422 25.072C44.8211 25.8702 45.4916 26.4768 46.3536 26.9238C47.2157 27.3708 48.2054 27.5624 49.2591 27.5624C50.0892 27.5624 50.8874 27.4347 51.6217 27.2112C52.388 26.9877 53.3139 26.5407 54.4633 25.9341V28.6799C53.4736 29.1907 52.5796 29.5419 51.7495 29.7654C50.9193 29.9889 49.9615 30.0847 48.8759 30.0847C47.2795 30.0847 45.8747 29.7654 44.5976 29.1269C43.3524 28.4883 42.3626 27.5943 41.6283 26.3811C40.9259 25.1997 40.5427 23.8907 40.5427 22.4539C40.5427 20.9214 40.9259 19.5804 41.6602 18.3671C42.3945 17.1539 43.4162 16.2279 44.7253 15.5575C46.0663 14.9189 47.535 14.5996 49.1633 14.5996Z" fill="#243A76"/>
<path d="M64.8079 14.5996C66.3724 14.5996 67.7772 14.9189 69.0224 15.5575C70.2676 16.196 71.2574 17.1219 72.0236 18.3352C72.758 19.5485 73.1411 20.8894 73.1411 22.3262C73.1411 23.731 72.7899 25.0401 72.0556 26.2533C71.3212 27.4666 70.3315 28.3925 69.0863 29.063C67.8091 29.7335 66.4043 30.0528 64.8079 30.0528C63.2434 30.0528 61.8067 29.7016 60.5295 29.0311C59.2524 28.3606 58.2627 27.4347 57.5283 26.2214C56.8259 25.0401 56.4427 23.731 56.4427 22.2943C56.4427 20.9214 56.794 19.6123 57.5283 18.399C58.2307 17.1858 59.2205 16.2279 60.4657 15.5575C61.7428 14.9508 63.1796 14.5996 64.8079 14.5996ZM59.4759 22.3581C59.4759 23.3479 59.6994 24.2738 60.1464 25.072C60.5934 25.8702 61.232 26.4768 62.0302 26.9238C62.8284 27.3708 63.7543 27.5943 64.776 27.5943C66.3404 27.5943 67.5856 27.1154 68.6073 26.1256C69.5971 25.1678 70.108 23.8907 70.108 22.3581C70.108 21.3683 69.8845 20.4424 69.4375 19.6442C68.9905 18.846 68.3519 18.2075 67.5218 17.7924C66.6917 17.3454 65.7657 17.1219 64.744 17.1219C63.7223 17.1219 62.7964 17.3454 61.9663 17.7924C61.1362 18.2394 60.5295 18.846 60.0826 19.6442C59.6994 20.4424 59.4759 21.3364 59.4759 22.3581Z" fill="#243A76"/>
<path d="M156.952 30.4998H155.484C155.132 30.4998 154.845 30.7872 154.845 31.1384V32.6071C154.845 32.9583 155.132 33.2456 155.484 33.2456H156.952C157.304 33.2456 157.591 32.9583 157.591 32.6071V31.1384C157.591 30.7872 157.304 30.4998 156.952 30.4998Z" fill="#243A76"/>
<path d="M160.688 30.4998H159.187C158.836 30.4998 158.549 30.7872 158.549 31.1384V32.6071C158.549 32.9583 158.836 33.2456 159.187 33.2456H160.688C161.039 33.2456 161.326 32.9583 161.326 32.6071V31.1384C161.326 30.7872 161.039 30.4998 160.688 30.4998Z" fill="#243A76"/>
<path d="M180.451 18.3033C179.749 17.0901 178.791 16.1961 177.61 15.5575C176.428 14.919 175.087 14.5997 173.587 14.5997C172.054 14.5997 170.681 14.919 169.468 15.5895C168.287 16.2599 167.329 17.1859 166.658 18.3991C165.988 19.6124 165.637 20.8895 165.637 22.2624C165.637 23.348 165.828 24.3377 166.211 25.2636C165.828 26.0299 165.158 26.5727 164.168 26.5727H161.869C160.943 26.5408 160.273 26.2853 159.89 25.8383C159.507 25.3914 159.347 24.5612 159.347 23.6034V18.0798H156.441V23.4437C156.441 24.4974 156.25 25.3914 155.867 25.8703C155.484 26.3492 154.845 26.6046 154.015 26.6046H150.567C150.567 25.9341 150.503 25.1359 150.311 24.4654C149.96 23.1245 149.258 22.007 148.204 21.0491C147.214 20.1552 146.001 19.4847 144.532 19.0377L151.812 14.5678L150.535 12.4924L140.701 18.5588V21.0172C140.797 21.0172 140.893 21.0172 140.988 21.0172C141.787 20.9853 142.585 21.0811 143.383 21.3046C144.437 21.5919 145.299 22.0708 146.001 22.7094C146.703 23.348 147.182 24.1142 147.438 25.0082C147.565 25.4871 147.629 26.0938 147.597 26.5727H146.863H124.833V23.8269C124.865 23.6034 124.865 23.3799 124.865 23.1564C124.865 22.9329 124.865 22.7094 124.833 22.454V22.2943C124.833 22.2943 124.833 22.2943 124.801 22.2943C124.673 21.2407 124.354 20.2829 123.779 19.357C123.077 18.2075 122.119 17.3136 120.937 16.7069C119.756 16.1003 118.383 15.781 116.915 15.781C115.35 15.781 113.977 16.1003 112.796 16.7389C111.583 17.3774 110.657 18.2714 109.986 19.4208C109.316 20.5702 108.964 21.8154 108.964 23.1245C108.964 24.4974 109.316 25.7426 109.986 26.86C110.657 27.9775 111.614 28.8715 112.828 29.5101C114.041 30.1486 115.414 30.4679 116.915 30.4679C118.415 30.4679 119.788 30.1486 121.001 29.5101C121.193 29.4143 121.384 29.2866 121.576 29.1589C121.48 29.4781 121.321 29.7655 121.161 30.0848C120.682 30.883 120.012 31.4896 119.15 31.9047C118.287 32.3517 117.298 32.5432 116.244 32.5432C115.414 32.5432 114.616 32.4155 113.881 32.192C113.115 31.9685 112.189 31.5215 111.04 30.9149V33.6288C112.03 34.1396 112.924 34.4908 113.754 34.7143C114.584 34.9378 115.542 35.0336 116.627 35.0336C118.224 35.0336 119.628 34.7143 120.906 34.0758C122.151 33.4372 123.141 32.5432 123.875 31.3619C124.29 30.6914 124.577 29.989 124.737 29.2546H154.334C156.058 29.2546 157.272 28.7438 158.038 27.6582L158.261 27.339L158.453 27.6902C158.996 28.7438 160.145 29.2546 161.901 29.2546H164.328C166.02 29.2546 167.233 28.7438 168.031 27.6582C168.51 28.1052 169.053 28.5203 169.66 28.8396C170.873 29.5101 172.214 29.8294 173.715 29.8294C175.215 29.8294 176.588 29.5101 177.769 28.8396C178.983 28.1691 179.909 27.2432 180.611 26.0618C181.313 24.8805 181.633 23.5715 181.633 22.1666C181.505 20.8256 181.154 19.5166 180.451 18.3033ZM120.522 26.7323C119.565 27.6582 118.351 28.1052 116.883 28.1052C115.893 28.1052 115.031 27.8817 114.265 27.4667C113.498 27.0516 112.892 26.445 112.445 25.7106C111.998 24.9444 111.806 24.0823 111.806 23.1564C111.806 22.1986 112.03 21.3365 112.445 20.5702C112.86 19.804 113.466 19.2292 114.233 18.8142C114.999 18.3991 115.893 18.1756 116.883 18.1756C117.872 18.1756 118.734 18.3991 119.533 18.8142C120.299 19.2292 120.906 19.8359 121.353 20.5702C121.768 21.3365 121.991 22.1986 121.991 23.1564C121.927 24.5932 121.448 25.8064 120.522 26.7323ZM177.227 25.998C176.269 26.9558 175.056 27.4347 173.587 27.4347C172.629 27.4347 171.735 27.2113 170.969 26.7962C170.202 26.3492 169.596 25.7426 169.181 24.9444C168.766 24.1462 168.542 23.2522 168.542 22.2624C168.542 21.2726 168.766 20.3787 169.181 19.5805C169.596 18.7823 170.202 18.1756 170.969 17.7286C171.735 17.2816 172.629 17.0581 173.587 17.0581C174.545 17.0581 175.439 17.2816 176.205 17.6967C176.971 18.1437 177.578 18.7503 178.025 19.5485C178.44 20.3467 178.663 21.2407 178.663 22.2305C178.663 23.795 178.184 25.0401 177.227 25.998Z" fill="#243A76"/>
<path fill-rule="evenodd" clip-rule="evenodd" d="M84.2522 14.5996L87.0299 16.0364L79.3991 30.0847L76.5575 28.3606L84.2522 14.5996Z" fill="#243A76"/>
<path fill-rule="evenodd" clip-rule="evenodd" d="M92.5534 14.5996L95.3311 16.0364L87.7003 30.0847L84.8906 28.3606L92.5534 14.5996Z" fill="#243A76"/>
<path fill-rule="evenodd" clip-rule="evenodd" d="M84.5396 22.1027V27.7859L87.3811 22.9009V16.9942C87.3492 16.9942 84.5396 22.0388 84.5396 22.1027Z" fill="#00AEEF"/>
<path fill-rule="evenodd" clip-rule="evenodd" d="M92.745 22.1027V27.7859L95.5866 22.9009V16.9942C95.5866 16.9942 92.745 22.0388 92.745 22.1027Z" fill="#00AEEF"/>
<path fill-rule="evenodd" clip-rule="evenodd" d="M103.728 15.9725L95.9697 30.0847L93.16 28.3606L101.014 14.4081L98.8432 13.1629L105.388 9.52307V16.9304L103.728 15.9725Z" fill="#243A76"/>
</svg>
