<svg width="149" height="32" viewBox="0 0 149 32" fill="none" xmlns="http://www.w3.org/2000/svg">
<path d="M6.49344 31.2451C4.56189 31.254 2.69498 30.5499 1.25037 29.2677L2.89139 27.3477C3.89864 28.2805 5.21129 28.8143 6.5837 28.8492C7.69139 28.8492 8.36421 28.4062 8.36421 27.6841C8.36421 26.9949 7.93754 26.6421 5.90267 26.1169C3.44113 25.4769 1.80011 24.7877 1.80011 22.3344C1.80011 20.0944 3.60524 18.6092 6.12421 18.6092C7.79124 18.5829 9.41557 19.1369 10.7191 20.1764L9.25037 22.1539C8.3243 21.4356 7.20363 21.0125 6.03396 20.9395C4.99191 20.9395 4.44216 21.4154 4.44216 22.0144C4.44216 22.8349 4.97549 23.0892 7.10883 23.6554C9.6196 24.3118 11.0309 25.2144 11.0309 27.3641C11.0309 29.8256 9.16011 31.1959 6.49344 31.1959V31.2451ZM25.3652 31.0236L24.2329 28.2503H19.0473L17.915 31.0236H15.1416L20.4422 18.5764H22.9529L28.2452 31.0236H25.3652ZM21.6155 21.8421L19.9745 25.8462H23.2565L21.6155 21.8421ZM36.3847 21.1364V23.7949H42.276V26.2564H36.3847V31.04H33.6606V18.7077H43.1047V21.1692L36.3847 21.1364ZM47.995 31.0236V18.7077H57.3242V21.1692H50.7355V23.68H56.5611V26.1415H50.7355V28.7344H57.4473V31.1959L47.995 31.0236ZM62.3622 31.0236V18.7077H71.6914V21.1692H65.0945V23.68H70.9283V26.1415H65.0945V28.7344H71.8063V31.1959L62.3622 31.0236ZM85.4432 31.0236L79.4534 23.1631V31.0236H76.7704V18.7077H79.2811L85.0739 26.3221V18.7077H87.757V31.0728L85.4432 31.0236Z" fill="#041E42"/>
<path d="M85.1151 1.12408V11.0851H81.6854V2.92921H79.0023V11.0851H75.5725V2.92921H72.8895V11.0851H56.9059C57.5452 10.5238 57.9982 9.78091 58.2045 8.95555C58.4109 8.13019 58.3607 7.26155 58.0608 6.46541C57.7609 5.66926 57.2254 4.98345 56.5258 4.49939C55.8262 4.01533 54.9956 3.75601 54.1449 3.75601C53.2941 3.75601 52.4635 4.01533 51.7639 4.49939C51.0643 4.98345 50.5288 5.66926 50.2289 6.46541C49.929 7.26155 49.8788 8.13019 50.0852 8.95555C50.2915 9.78091 50.7445 10.5238 51.3838 11.0851H37.6484C37.3167 11.0852 36.9981 10.9557 36.7606 10.7243C36.523 10.4928 36.3852 10.1777 36.3766 9.84613C36.3722 9.81896 36.3722 9.79125 36.3766 9.76408V4.34049H33.6936V10.0841C33.6947 10.2119 33.6704 10.3387 33.6222 10.4571C33.5741 10.5755 33.5029 10.6832 33.4129 10.774C33.3229 10.8648 33.2158 10.9368 33.0978 10.986C32.9798 11.0352 32.8532 11.0605 32.7254 11.0605H13.4187V4.34049H10.7356V12.8984C10.7356 13.4892 10.7356 15.2779 7.59305 15.2779C5.53356 15.2779 4.82792 14.5149 4.57356 13.8256C4.47645 13.5265 4.43203 13.2128 4.44229 12.8984V7.84408H1.7428V13.4728C1.7428 14.0964 2.21049 17.2061 7.57664 17.2061C13.1807 17.2061 13.3941 13.7436 13.4023 13.4892H33.9151C34.3362 13.4887 34.7523 13.3984 35.1357 13.2244C35.5192 13.0504 35.8611 12.7966 36.1387 12.48C36.3223 12.7865 36.5819 13.0404 36.8924 13.2173C37.2028 13.3941 37.5537 13.4877 37.911 13.4892H87.7654V1.12408H85.1151ZM54.1407 10.2564C53.6831 10.2564 53.2358 10.1207 52.8552 9.86644C52.4747 9.61219 52.1782 9.25082 52.003 8.82802C51.8279 8.40522 51.7821 7.93998 51.8714 7.49113C51.9606 7.04229 52.181 6.63 52.5046 6.30641C52.8282 5.98281 53.2405 5.76244 53.6893 5.67316C54.1382 5.58388 54.6034 5.6297 55.0262 5.80483C55.449 5.97996 55.8104 6.27653 56.0646 6.65704C56.3189 7.03755 56.4546 7.48491 56.4546 7.94254C56.4557 8.24671 56.3966 8.54808 56.2807 8.82929C56.1648 9.11051 55.9944 9.36602 55.7793 9.5811C55.5642 9.79617 55.3087 9.96657 55.0275 10.0825C54.7463 10.1984 54.4449 10.2575 54.1407 10.2564Z" fill="#041E42"/>
<path d="M7.59311 0.418449C7.39185 0.426511 7.19743 0.493649 7.03408 0.611496C6.87074 0.729342 6.7457 0.892677 6.67458 1.08112C6.60346 1.26957 6.58941 1.47478 6.63416 1.67117C6.67892 1.86755 6.78051 2.04641 6.92625 2.18543C7.072 2.32445 7.25546 2.41748 7.45374 2.45291C7.65201 2.48834 7.85634 2.46461 8.04121 2.38468C8.22609 2.30474 8.38333 2.17213 8.49334 2.0034C8.60334 1.83468 8.66123 1.6373 8.65978 1.43588C8.65658 1.29903 8.62645 1.16414 8.57111 1.03894C8.51577 0.913728 8.4363 0.800651 8.33724 0.706166C8.23819 0.611681 8.12149 0.537635 7.99381 0.488267C7.86612 0.4389 7.72996 0.415178 7.59311 0.418449Z" fill="#041E42"/>
<path d="M33.7427 14.7692C33.5438 14.7788 33.3522 14.8465 33.1915 14.964C33.0307 15.0815 32.908 15.2436 32.8385 15.4301C32.769 15.6167 32.7557 15.8195 32.8004 16.0136C32.845 16.2076 32.9456 16.3842 33.0897 16.5216C33.2337 16.659 33.4149 16.7512 33.6108 16.7866C33.8067 16.822 34.0087 16.7992 34.1918 16.721C34.3749 16.6427 34.5309 16.5125 34.6407 16.3464C34.7505 16.1803 34.8091 15.9857 34.8093 15.7866C34.8062 15.6497 34.776 15.5149 34.7207 15.3896C34.6653 15.2644 34.5859 15.1514 34.4868 15.0569C34.3878 14.9624 34.2711 14.8883 34.1434 14.839C34.0157 14.7896 33.8795 14.7659 33.7427 14.7692Z" fill="#041E42"/>
<path d="M36.3846 14.7692C36.1857 14.7788 35.9941 14.8465 35.8334 14.964C35.6727 15.0815 35.5499 15.2436 35.4804 15.4301C35.4109 15.6167 35.3976 15.8195 35.4423 16.0136C35.4869 16.2076 35.5875 16.3842 35.7316 16.5216C35.8756 16.659 36.0568 16.7512 36.2527 16.7866C36.4486 16.822 36.6506 16.7992 36.8337 16.721C37.0168 16.6427 37.1728 16.5125 37.2826 16.3464C37.3924 16.1803 37.451 15.9857 37.4513 15.7866C37.4481 15.6497 37.4179 15.5149 37.3626 15.3896C37.3072 15.2644 37.2278 15.1514 37.1287 15.0569C37.0297 14.9624 36.913 14.8883 36.7853 14.839C36.6576 14.7896 36.5214 14.7659 36.3846 14.7692Z" fill="#041E42"/>
<path d="M54.1407 0.418453C53.9399 0.428108 53.7463 0.496572 53.5841 0.615336C53.4219 0.734101 53.2981 0.897926 53.2282 1.08645C53.1584 1.27497 53.1454 1.47987 53.1911 1.67568C53.2367 1.87148 53.3389 2.04956 53.4849 2.18777C53.6309 2.32598 53.8143 2.41823 54.0123 2.45305C54.2103 2.48787 54.4142 2.46372 54.5986 2.38361C54.783 2.3035 54.9398 2.17095 55.0495 2.00246C55.1592 1.83396 55.2169 1.63694 55.2156 1.43589C55.207 1.15876 55.0892 0.896263 54.8878 0.705662C54.6864 0.515062 54.4179 0.411821 54.1407 0.418453Z" fill="#041E42"/>
<path d="M122.703 31.0728H113.595L129.792 13.4893H138.9L122.703 31.0728Z" fill="#1D448A"/>
<path d="M129.792 13.4892L118.608 1.12408H109.501L120.684 13.4892H129.792Z" fill="#041E42"/>
<path d="M95.3795 31.0728H104.487L120.684 13.4893H111.585L95.3795 31.0728Z" fill="#1D448A"/>
<path d="M147.605 13.4892L136.422 1.12408H127.708L138.9 13.4892H147.605Z" fill="#041E42"/>
</svg>
